/* XPM */
static char *result[] = {
/* columns rows colors chars-per-pixel */
"60 60 147 2 ",
"   c #A07200",
".  c #A17300",
"X  c #A47600",
"o  c #A57600",
"O  c #A57700",
"+  c #A67700",
"@  c #A87900",
"#  c #A87A00",
"$  c #AA7C00",
"%  c #AB7C00",
"&  c #AD7E00",
"*  c #AD7F00",
"=  c #AF8100",
"-  c #B08200",
";  c #B18200",
":  c #B28300",
">  c #B38400",
",  c #B58500",
"<  c #B68700",
"1  c #B68800",
"2  c #B78800",
"3  c #BA8B00",
"4  c #BB8C00",
"5  c #BC8D00",
"6  c #BD8E00",
"7  c #BF9000",
"8  c #C09100",
"9  c #C19200",
"0  c #C29300",
"q  c #C39400",
"w  c #C49500",
"e  c #C59600",
"r  c #C69600",
"t  c #C69700",
"y  c #C79700",
"u  c #C69701",
"i  c #C09F00",
"p  c #C89900",
"a  c #C99A00",
"s  c #CA9B00",
"d  c #CC9C00",
"f  c #CE9E00",
"g  c #CF9F00",
"h  c #C6A500",
"j  c #CBAA00",
"k  c #D0A000",
"l  c #D1A100",
"z  c #D2A200",
"x  c #D2A300",
"c  c #D4A400",
"v  c #D5A500",
"b  c #D6A600",
"n  c #D7A800",
"m  c #D9A900",
"M  c #DAAA00",
"N  c #DCAC00",
"B  c #DDAD00",
"V  c #DDAF00",
"C  c #DFAE00",
"Z  c #DFAF00",
"A  c #D0B000",
"S  c #D6B100",
"D  c #D3B400",
"F  c #DCB900",
"G  c #E0B000",
"H  c #E1B100",
"J  c #E3B200",
"K  c #E4B500",
"L  c #E7B700",
"P  c #E9B900",
"I  c #EABA00",
"U  c #EBBB00",
"Y  c #EBBC01",
"T  c #ECBC00",
"R  c #EEBE00",
"E  c #E2C000",
"W  c #E8C600",
"Q  c #EEC400",
"!  c #E3CB00",
"~  c #EDCB00",
"^  c #F0C000",
"/  c #F1C100",
"(  c #F2C700",
")  c #F5C400",
"_  c #F8C700",
"`  c #F3C800",
"'  c #FAC900",
"]  c #FECD00",
"[  c #FFCD00",
"{  c #FFCE00",
"}  c #FCCC02",
"|  c #E4D600",
" . c #E8D200",
".. c #E9D900",
"X. c #EFDD00",
"o. c #F2D000",
"O. c #FFD102",
"+. c #F8D600",
"@. c #FFD400",
"#. c #FFD702",
"$. c #F7DE00",
"%. c #FCDA01",
"&. c #FFDA02",
"*. c #FFDD00",
"=. c #FFDF00",
"-. c #E5C71F",
";. c #EDE300",
":. c #FFE100",
">. c #FFE300",
",. c #FFE700",
"<. c #F4EE01",
"1. c #FFEA00",
"2. c #FFEE00",
"3. c #FFF200",
"4. c #FFF600",
"5. c #FFF800",
"6. c #FFFB01",
"7. c yellow",
"8. c #FFE310",
"9. c #FFF115",
"0. c #FFFF11",
"q. c #FFD724",
"w. c #FCE42D",
"e. c #FFFC20",
"r. c #FFF42E",
"t. c #E8D746",
"y. c #FFE848",
"u. c #FFFC46",
"i. c #FFFD57",
"p. c #EBD070",
"a. c #E9D875",
"s. c #FFE161",
"d. c #FFF96A",
"f. c #EFE776",
"g. c #FEEB70",
"h. c #FFFE74",
"j. c #E9D79B",
"k. c #FFE782",
"l. c #FFFE8C",
"z. c #F5EA99",
"x. c #FFF89D",
"c. c #FFFEAA",
"v. c #FFFDC3",
"b. c #FFFFDE",
"n. c #FEFCEA",
"m. c #FFFEFE",
"M. c None",
/* pixels */
"M.M.M.M.M.M.M.M.M.M.M.M.M.M.M.M.M.M.M.M.M.M.g w v M b c V V F W ~ o.o.` ^ U G M.M.M.M.M.M.M.M.M.M.M.M.M.M.M.M.M.M.M.M.M.",
"M.M.M.M.M.M.M.M.M.M.M.M.M.M.M.M.M.M.M.G Z V J J H K W o.+.*.*.*.*.*.*.*.@.{ } _ ^ G M.M.M.M.M.M.M.M.M.M.M.M.M.M.M.M.M.M.",
"M.M.M.M.M.M.M.M.M.M.M.M.M.M.M.M.M.U ) _ ' ' ) Q ~ +.*.*.*.=.=.:.:.=.=.*.&.{ [ { { { _ U M.M.M.M.M.M.M.M.M.M.M.M.M.M.M.M.",
"M.M.M.M.M.M.M.M.M.M.M.M.M.M.M.U ' { { { } ( o.%.*.*.>.2.r.h.d.6.6.6.5.3.2.>.#.O.{ { { { ' U M.M.M.M.M.M.M.M.M.M.M.M.M.M.",
"M.M.M.M.M.M.M.M.M.M.M.M.M.G ` { { { { _ ( +.*.*.>.9.i.c.b.x.e.4.3.2.2.2.2.2.1.1.:.@.{ { { { P g M.M.M.M.M.M.M.M.M.M.M.M.",
"M.M.M.M.M.M.M.M.M.M.M.M.U O.@.@.@.@.( Q %.*.=.9.d.v.n.v.y.>.=.%.+.+.+.+.%.&.O.@.&.*.&.O.{ { ) I m M.M.M.M.M.M.M.M.M.M.M.",
"M.M.M.M.M.M.M.M.M.M.M.;.4.5.5.5.5.X.W %.*.>.u.v.n.c.y.%.~ E D j h h h h j D M I ' { @.@.{ { _ T Y Z M.M.M.M.M.M.M.M.M.M.",
"M.M.M.M.M.M.M.M.M.M.f.h.h.h.h.h.w.W +.*.,.6.d.g.w.+.E j i i h j A D D A j i & X 2 n ) { { { ' T T T Z M.M.M.M.M.M.M.M.M.",
"M.M.M.M.M.M.M.M.M.f.c.c.c.c.c.z.-.o.*.1.6.2.=.%.E h i h F ~ +.=.,.1.1.1.,.$.E p &   ; M ' { } R T T T Z M.M.M.M.M.M.M.M.",
"M.M.M.M.M.M.M.M.;.7.7.7.7.7.<.W ~ +.1.6.1.*.o.A i j E +.,.9.e.7.7.7.7.7.6.4.1.&.) b = . 7 L _ T T T T R m M.M.M.M.M.M.M.",
"M.M.M.M.M.M.M.| 6.7.7.7.7.4.! W o.,.5.,.*.W h i F +.,.r.l.v.u.7.7.6.3.,.:.=.@.{ { { ) s X @ k B J Y T T Y z M.M.M.M.M.M.",
"M.M.M.M.M.M.M.+.=.=.=.=.=.E K ~ $.4.,.*.W i h ~ =.r.l.n.b.i.7.5.1.:.o.E E E _ { { { { ] H & X 0 c B L T T H M.M.M.M.M.M.",
"M.M.M.M.M.M.^ { [ [ [ { R B K ~ 3.,.*.W i j o.8.d.b.b.l.e.6.1.=.*.+.D D D h T { { { { { { Y : X w c m L T I v M.M.M.M.M.",
"M.M.M.M.M.G ] { { { { ' C H J $.1.*.~ i j o.y.x.v.h.e.7.3.:.*.*.%.F X.F 0 u T { { { { { { { T - + a c n L T N 9 M.M.M.M.",
"M.M.M.M.M.P / / / / / J C J L :.=.+.h h o.8.i.u.0.7.6.1.*.*.*.*.E ..%.M > 0 T { { { { { { { ] B @ % f c m I J k M.M.M.M.",
"M.M.M.M.z H J J J J C n J H Q @.#.D i W :.4.7.7.7.4.>.*.*.*.w.W ! >.' M , 0 T { { { { { { { ' R f . 2 c c N K c 8 M.M.M.",
"M.M.M.M.M J J J J J m B J J ( { B i F =.3.7.7.7.3.=.*.*.*.8.z.t.8.O.' M , 0 T { { { { { { { _ T L 2 . e b c B b k M.M.M.",
"M.M.M.g H J J J J H b J H K } / & 5 +.2.7.7.7.2.*.*.*.*.w.x.m.n.s.O.' M , 0 T { { { { { { { / T T n @ % f c b c c 7 M.M.",
"M.M.M.v J J J J J M c J M L } a . m :.7.7.7.2.*.*.*.*.8.g.n.m.n.k.q.' M , 0 T { { { { { { } R T T L 7   2 x c c c r M.M.",
"M.M.M.V J J J J J c c N b R L @ > _ 3.7.7.2.*.*.*.*.*.*.E t.b.s.{ { ' M , 0 T { { { { { { _ T T T Y b @ + e c c c s M.M.",
"M.M.g H J J J J H k c l c R p   c >.7.7.3.&.*.*.*.*.*.W ! X.p.} { { ' M , 0 T { { { { { } / T T T T J 3 . , k c c d 7 M.",
"M.M.m J J J J J N k c p n J - @ Q 4.7.5.#.{ O.@.#.&.o.E X.b u ) { { _ m , 0 T { { { { { ) T T T T T I f X % w c k s 8 M.",
"M.M.M J J J J J n l c 9 c k X 5 *.7.7.>.{ { { { { _ F X.H 3 5 Q { { _ m , 0 T { { { { ' R T T T T T T N & + 3 k f s t M.",
"M.M.V J J J J J c x l 7 l 5 . c 2.7.4.@.{ { { { } F ..E 8 3 9  .@.{ _ m , 0 T { { { } / T T T T T T T K 3 . > u d s p M.",
"M.g H J J J J H l c d 5 f ; X I 5.7.>.[ { { { { K ! E x 7 s H ..#.{ _ m , 0 T { { } / T T T T T T T T I p . = 3 a s a 7 ",
"M.z J J J J J H k c a 5 a % % o.7.5.@.{ { { { _ x S k k l / T t.#.{ _ m , 0 T { } / T T T T T T T T T T x X % , u s s w ",
"M.m J J J J J C k b u 3 w @ - o.7.1.{ { { { { ] } } } } ] { Y j.q.{ _ m , 0 T ' R T T T T T T T T T T T M @ @ : 0 s s q ",
"M.r d d d d d a f b 0 3 8 + , ~ <.%.{ { { { { { { { { { { O.Y a.&.{ _ n , 0 J R T T T T T T T T T T T T C & + ; 5 s s q ",
"M.4 9 8 8 8 9 7 d c 0 2 5 X , ! X.( ' { { { { { { { { { { { Y ..&.{ _ n , 9 B T T T T T T T T T T T T T M & X ; 3 a s e ",
"M.5 9 9 9 9 9 7 d c 9 2 3 X , E ..T T ) ' ] { { { { { { { { Y ..&.{ _ n , 9 B T T T T T T T T T T T T K c = X ; < p s e ",
"M.5 9 9 9 9 9 7 d c 9 < < X , F  .T T T T / ) _ ' } } } ' _ K ..&.{ _ n , 9 B T T T T T T T T T T T K C c = X ; , p s e ",
"M.4 9 9 9 9 9 7 d b 0 < , X > S W T T T T T T T T R R T T T B ..&.{ ) n , 9 B T T T T T T T T T Y K B B l & X ; , u d e ",
"M.6 9 9 9 9 9 7 s b w < , + - n K T T T T T T T T T T T T T B ..*.{ ) n , 9 B T T T T T T T T Y J B B N f % + : > e d q ",
"M.8 9 9 9 9 9 7 e c u < < @ % x N I T T T T T T T T T T T T B ..*.{ ) n , 9 B T T T T T T T I H B B B M p @ @ : , e s q ",
"M.8 9 9 9 9 9 8 9 f p < < % + f b J T T T T T T T T T T T T B ..*.{ ) n , 9 B T T T T T T L C B B B B b 0 X % : , u s w ",
"M.1 8 9 9 9 9 8 7 s u < < = . p b m I T T T T T T T T T T T B ..*.{ / b , 9 B T T T T I J C B B B B N k 5 . & : < p a 7 ",
"M.M.7 9 9 9 9 9 7 a p < , : . 5 b c H T T T T T T T T T T T B ..*.{ / b , 9 B T T Y L C B B B B B B n d , . = : 2 a p M.",
"M.M.6 9 9 9 9 9 7 u s 3 : : X - c c b K T T T T T T T T T T B ..*.{ / b , 9 C T L H B B B B B B B M f p % X ; : 5 s t M.",
"M.M.8 9 9 9 9 9 7 0 d 7 : : @ + d b c m L T T T T T T T T T B ..&.{ R b , 9 m J C B B B B B B B B x s 9 X @ : : 8 d 8 M.",
"M.M.1 9 9 9 9 9 8 8 s w > : & . 3 l c c M L T T T T T T T T B ..&.{ T b , 8 x C B B B B B B B B b d s , . = : , e s 7 M.",
"M.M.M.7 9 9 9 9 9 7 p p 2 : ; X @ u d f x m L T T T T T T T B ..&.{ Y b , 8 x C B B B B B B B b d s e + + : : 2 a p M.M.",
"M.M.M.$ 2 2 2 2 2 < 0 d 7 : : % . 3 s s s d k B K L L L L K b ..&.{ I c , 8 x C B B B B B N c d s s 2 . & : : 7 d q M.M.",
"M.M.M.1 = - - - - = 3 s e , : ; X @ e s s s s d x M B B B B x ..#.[ L c , 8 x C B B B B n k s s s w + + ; : , u s 7 M.M.",
"M.M.M.M.* - - - - - : u s 3 : : & . : s s s s s s d c m N C x  .#.] K b , 8 x C B N n k d s s s a - . & : : 3 s t M.M.M.",
"M.M.M.M.# - - - - - = 5 d 0 > : : @ . 5 s s s s s s s d k c f  .@.} H b , 8 f n x f d s s s s s 3 . @ : : , w s 9 M.M.M.",
"M.M.M.M.M.* - - - - - : u a 3 : : - X + 9 d s s s s s s s s w  .@.' B b , 7 w d s s s s s s d 8 X X - : : 3 s y M.M.M.M.",
"M.M.M.M.M.@ - - - - - = 3 s 0 > : : & . @ 0 d s s s s s s s w ! O./ M b , 7 0 s s s s s s d 0 @ . & : : , e s 7 M.M.M.M.",
"M.M.M.M.M.M.$ - - - - - ; 0 s 5 : : : % . @ 9 d s s s s s s w W ] J m d & 8 0 s s s s s s 8 @ . & : : : 5 s r M.M.M.M.M.",
"M.M.M.M.M.M.M.= - - - - = < p p < : : : % . + 5 s s s s s s w K I M b 3 & 9 0 s s s s a 3 + . & : : : < p p M.M.M.M.M.M.",
"M.M.M.M.M.M.M.@ - - - - - = 3 s 0 , : : : & . . > e s s s s 0 0 w 0 8 3 5 3 0 s s s w ; . X & : : : > 0 a 9 M.M.M.M.M.M.",
"M.M.M.M.M.M.M.M.o - - - - - - 7 s 8 > : : : = +   @ 2 e s d s u u u u u u p s s w < +   + = : : : : 5 a w M.M.M.M.M.M.M.",
"M.M.M.M.M.M.M.M.M.$ - - - - - ; 9 s 7 > : : : ; % X   + ; 5 0 p a s s a p 0 5 - +   X % ; : : : : 3 a q M.M.M.M.M.M.M.M.",
"M.M.M.M.M.M.M.M.M.M.$ - - - - - : 0 s 7 > : : : : - % X .   X @ % & & % @ X   . X % ; : : : : : 3 p q M.M.M.M.M.M.M.M.M.",
"M.M.M.M.M.M.M.M.M.M.M.$ - - - - - ; 8 s 0 , : : : : : ; & % + X . . . X X + % = ; : : : : : > 7 p 8 M.M.M.M.M.M.M.M.M.M.",
"M.M.M.M.M.M.M.M.M.M.M.M.# = - - - - ; 5 a u 3 > : : : : : : : ; ; - - ; ; : : : : : : : : 2 0 p 8 M.M.M.M.M.M.M.M.M.M.M.",
"M.M.M.M.M.M.M.M.M.M.M.M.M.O * & & & & & , e s 0 2 > : : : : : : : : : : : : : : : : : < 7 p t 1 M.M.M.M.M.M.M.M.M.M.M.M.",
"M.M.M.M.M.M.M.M.M.M.M.M.M.M.M.o . . . .   @ 3 p a 0 3 , > : : : : : : : : : : : , 3 9 p p w M.M.M.M.M.M.M.M.M.M.M.M.M.M.",
"M.M.M.M.M.M.M.M.M.M.M.M.M.M.M.M.M.o         . % 3 p s p 0 7 3 2 < , , < 2 3 5 0 u a e w M.M.M.M.M.M.M.M.M.M.M.M.M.M.M.M.",
"M.M.M.M.M.M.M.M.M.M.M.M.M.M.M.M.M.M.M.@ $       . @ , 7 u a s a p p p p a a a y q 7 M.M.M.M.M.M.M.M.M.M.M.M.M.M.M.M.M.M.",
"M.M.M.M.M.M.M.M.M.M.M.M.M.M.M.M.M.M.M.M.M.M.O # $       * * 4 4 q q q r 8 8 1 M.M.M.M.M.M.M.M.M.M.M.M.M.M.M.M.M.M.M.M.M."
};
