/* XPM */
static char *result[] = {
/* columns rows colors chars-per-pixel */
"60 60 146 2 ",
"   c #A07200",
".  c #A17200",
"X  c #A27400",
"o  c #A37500",
"O  c #A67700",
"+  c #A87A00",
"@  c #A97A00",
"#  c #AC7D00",
"$  c #AC7E00",
"%  c #AD7F00",
"&  c #AF8000",
"*  c #B08200",
"=  c #B28300",
"-  c #B28400",
";  c #B48500",
":  c #B68700",
">  c #B78900",
",  c #BA8B00",
"<  c #BC8C00",
"1  c #BC8D00",
"2  c #BD8D00",
"3  c #BD8E00",
"4  c #BE8F00",
"5  c #C09000",
"6  c #C09100",
"7  c #C19200",
"8  c #C39500",
"9  c #C49400",
"0  c #C49500",
"q  c #C59600",
"w  c #C69700",
"e  c #C79800",
"r  c #C79900",
"t  c #C79801",
"y  c #C09C00",
"u  c #C09F01",
"i  c #C99A00",
"p  c #CA9B00",
"a  c #CD9D00",
"s  c #CF9F00",
"d  c #C4A400",
"f  c #C7A700",
"g  c #CCAC01",
"h  c #D0A000",
"j  c #D1A200",
"k  c #D4A400",
"l  c #D6A500",
"z  c #D6A600",
"x  c #D7A800",
"c  c #D1AE00",
"v  c #DAAA00",
"b  c #DBAB00",
"n  c #DCAC00",
"m  c #DDAD00",
"M  c #DEAF01",
"N  c #CFB600",
"B  c #D6B400",
"V  c #DCBC00",
"C  c #E1B100",
"Z  c #E2B200",
"A  c #E5B400",
"S  c #E7B700",
"D  c #E8B900",
"F  c #EBBB00",
"G  c #EABE00",
"H  c #ECBC00",
"J  c #EEBE00",
"K  c #E5BB1C",
"L  c #CBA63A",
"P  c #E4C101",
"I  c #E6C300",
"U  c #E9C700",
"Y  c #E9C800",
"T  c #F0C000",
"R  c #F0C300",
"E  c #F5C500",
"W  c #F8C700",
"Q  c #F2CC00",
"!  c #F0CE00",
"~  c #FACA00",
"^  c #FDCC00",
"/  c #FFCD00",
"(  c #FFCF00",
")  c #E7D000",
"_  c #EBD400",
"`  c #E9D702",
"'  c #F2D100",
"]  c #F3D100",
"[  c #F5D200",
"{  c #FFD100",
"}  c #F9D500",
"|  c #FFD400",
" . c #FBDA00",
".. c #FFD800",
"X. c #FFDD00",
"o. c #FFDF00",
"O. c #FFD20B",
"+. c #ECDD14",
"@. c #FFDF10",
"#. c #F5E400",
"$. c #FFE000",
"%. c #FFE102",
"&. c #FFE500",
"*. c #F4EC00",
"=. c #FFEB02",
"-. c #FFEF00",
";. c #FFF300",
":. c #FFF600",
">. c #FFFA00",
",. c yellow",
"<. c #FFFF09",
"1. c #FFEF15",
"2. c #FBE51F",
"3. c #FFFF14",
"4. c #FFF619",
"5. c #FFD623",
"6. c #E6C537",
"7. c #FFE52F",
"8. c #FCEF31",
"9. c #FFF939",
"0. c #D1BA44",
"q. c #D6B960",
"w. c #EACE56",
"e. c #FDEA4D",
"r. c #FFFA52",
"t. c #FCE966",
"y. c #FBE06E",
"u. c #FFF867",
"i. c #EFE773",
"p. c #F3ED79",
"a. c #FFFF71",
"s. c #E4CE8A",
"d. c #FBE88F",
"f. c #FFF582",
"g. c #FFF494",
"h. c #FEF3A7",
"j. c #FFFFA9",
"k. c #FFFFBB",
"l. c #F4ECCE",
"z. c #FEF4C2",
"x. c #FFFECD",
"c. c #FFFCE0",
"v. c #FFFDEE",
"b. c #FFFEF7",
"n. c white",
"m. c None",
/* pixels */
"m.m.m.m.m.m.m.m.m.m.m.m.m.m.m.m.m.m.m.m.m.m.I ! [ ] ] R M v k s v v v b z h r m.m.m.m.m.m.m.m.m.m.m.m.m.m.m.m.m.m.m.m.m.",
"m.m.m.m.m.m.m.m.m.m.m.m.m.m.m.m.m.m.m._ [  .X.X.X.X.X.X.{ / ~ T A M C A A A Z b m m.m.m.m.m.m.m.m.m.m.m.m.m.m.m.m.m.m.m.",
"m.m.m.m.m.m.m.m.m.m.m.m.m.m.m.m.m.!  .X.X.X.%.%.%.$.X.X.| / / ( / E D H W ~ ~ ~ ~ E G m.m.m.m.m.m.m.m.m.m.m.m.m.m.m.m.m.",
"m.m.m.m.m.m.m.m.m.m.m.m.m.m.m.I } X.X.&.1.r.f.3.>.>.:.;.=.X.{ / / ( / E H ~ ( / / ( / E m m.m.m.m.m.m.m.m.m.m.m.m.m.m.m.",
"m.m.m.m.m.m.m.m.m.m.m.m.m.m.! X.X.&.4.a.x.x.r.:.;.-.-.-.-.-.=.%.| / / ( E A E / / / ( ( ^ G m.m.m.m.m.m.m.m.m.m.m.m.m.m.",
"m.m.m.m.m.m.m.m.m.m.m.m.m.Q X.X.=.u.x.v.g.2.2. .} } } }  .| | ..X...( / ~ F Z E | | | | | { Q m.m.m.m.m.m.m.m.m.m.m.m.m.",
"m.m.m.m.m.m.m.m.m.m.m.m.U X.o.8.j.c.h.7.} Y 6.g f d d f c c A W ( | { / ^ J F S #.>.:.:.:.:.:.*.m.m.m.m.m.m.m.m.m.m.m.m.",
"m.m.m.m.m.m.m.m.m.m.m.U  .$.;.r.f.7.} V f u 0.g c B B g f > X ; v W ( / / T H F P e.a.a.a.a.a.a.p.m.m.m.m.m.m.m.m.m.m.m.",
"m.m.m.m.m.m.m.m.m.m.G ' o.;.:.&. .P d u g P t.%.&.=.=.=.#.Y s & . > S / / T H H F w.h.j.j.j.j.j.j.i.m.m.m.m.m.m.m.m.m.m.",
"m.m.m.m.m.m.m.m.m.I Y  .;.:.%.} B u g Y X.1.f.<.,.,.,.,.:.-.X.E j @ O k E T H H F S ) ,.,.,.,.,.,.,._ m.m.m.m.m.m.m.m.m.",
"m.m.m.m.m.m.m.m.r Y ' =.:.%.} c u V  .=.r.k.x.3.,.>.-.&.%.../ ( ( H , . 7 n Z F H H S #.,.,.,.,.,.,.>.m.m.m.m.m.m.m.m.m.",
"m.m.m.m.m.m.m.m.b Y  .:.&.} c u P o.8.j.v.k.x.4.=.X.P P P E / / / ( W q X < k m F H F M  .$.o.o.o.o.$.Q m.m.m.m.m.m.m.m.",
"m.m.m.m.m.m.m.h C Y -.&. .B u Y %.u.c.x.r.9.c.7.X.P N N f A ( / / / ( ~ w X 6 l n D H n A / / / / / / ^ m m.m.m.m.m.m.m.",
"m.m.m.m.m.m.m.v Z ' =.X.P u P 2.g.k.a.3.>.r.b.e.' V ) p 8 A ( / / / / ( W 4 o i l m F Z l W ( / / / / ( R m.m.m.m.m.m.m.",
"m.m.m.m.m.m.h C A  .$.' d B X.9.r.3.,.:.&.f.n.d.V #.J 5 < A ( / / / / / / S $ & j l C S k M T T T T T T J h m.m.m.m.m.m.",
"m.m.m.m.m.m.b Z D | } c f } -.,.,.,.;.$.@.z.n.l.+...F 5 < A ( / / / / / / T j o 4 l x A x s M Z Z Z Z Z Z b m.m.m.m.m.m.",
"m.m.m.m.m.r C Z J ( M y Y &.>.,.,.-.o.X.t.b.n.n.g.5.F 4 , A ( / / / / / ^ J D : O a l v v j x Z Z Z Z Z Z C r m.m.m.m.m.",
"m.m.m.m.m.z Z C E E * y X.:.,.<.4.2.e.h.b.n.n.n.n.c.d.q.L K O./ / / / / W H H k o : k l l k j C Z Z Z Z Z Z z m.m.m.m.m.",
"m.m.m.m.m.v M M ~ k o C =.<.3.9.t.h.v.n.n.n.n.n.n.n.b.l.s.w.5.( / / / / E H H A : o w l l l a m Z Z Z Z Z Z v m.m.m.m.m.",
"m.m.m.m.r x x C T = ; } >.,.>.%.X.@.e.g.v.n.n.n.v.d.6.t 4 A ( / / / / ^ J H H F a o ; j l l p l Z Z Z Z Z Z Z r m.m.m.m.",
"m.m.m.m.0 l s A v o j =.,.,.%...X.X.X.} w.v.n.n.y./ F 5 < A ( / / / / W H H H H m $ @ w l k p s Z Z Z Z Z Z Z m m.m.m.m.",
"m.m.m.m.a k i A 6 O J >.,.=.( ( | ....V ` z.n.c.5./ F 5 < A ( / / / ^ T H H H H S < o , k j p p C Z Z Z Z Z C b m.m.m.m.",
"m.m.m.m.s s q v & ;  .,.>.../ / / ( F ) P s.n.z.O./ F 5 < A ( / / / E H H H H H F a o * a s p i m Z Z Z Z Z Z v m.m.m.m.",
"m.m.m.r k p q p O t =.,.=./ / / ( E V ) p L n.h.( / F 5 < A ( / / ~ J H H H H H H v @ $ 7 p p t v Z Z Z Z Z Z C r m.m.m.",
"m.m.m.h l w q 7 o v :.,.X./ / / ^ B ) n 8 L v.f.{ / F 5 < A ( / ^ T H H H H H H H Z * O > i p i l Z Z Z Z Z Z C h m.m.m.",
"m.m.m.9 l 7 8 , o P ,.;.{ / / ( T j c s s K c.g.{ / D 5 < A ( ^ T H H H H H H H H S , o = 8 p i j Z Z Z Z Z Z A 0 m.m.m.",
"m.m.m.w l 5 7 ; O P ,.&./ / / / / ^ ^ ^ ^ O.z.x.O./ D 5 < A ~ J H H H H H H H H H F 7 o * 5 p i s Z Z Z Z Z Z Z z m.m.m.",
"m.m.m.a k 4 5 * @ P #.../ / / / / / / / / O.h.h.O./ D 5 < m J H H H H H H H H H H F w X & < p i 8 a a a a a a a 0 m.m.m.",
"m.m.m.s k < < & @ P ` E ^ / / / / / / / / / d.8.| / D 5 < x H H H H H H H H H H H D 8 X & > i p 6 6 6 6 6 6 6 7 2 m.m.m.",
"m.m.m.a k < , $ @ V ` H J W ^ / / / / / / ^ y.2.| / D 5 < x H H H H H H H H H H F C 8 o & : t p 6 6 7 7 7 7 7 7 2 m.m.m.",
"m.m.m.a k < > $ @ B ) H H H J E W ~ ^ ^ ~ ~ w.+.| / S 5 < x H H H H H H H H H F Z n 8 o & ; w p 6 6 7 7 7 7 7 7 2 m.m.m.",
"m.m.m.s k < : $ @ c Y H H H H H H H J J H H 6.+.| / S 5 < x H H H H H H H H H A m v 6 o & ; q p 6 6 7 7 7 7 7 7 2 m.m.m.",
"m.m.m.a k 4 : $ O j S H H H H H H H H H H H K ` | / S 5 < x H H H H H H H F A m m v 4 X * = q p 5 6 7 7 7 7 7 7 1 m.m.m.",
"m.m.m.w k 5 : & O a m F H H H H H H H H H H M ` ../ A 5 < x H H H H H H F Z m m m l > o * = q p 5 7 7 7 7 7 7 7 1 m.m.m.",
"m.m.m.0 a 7 : = o t x A H H H H H H H H H J m ` ../ A 5 < x H H H H H F Z m m m m j = o * ; w i 4 7 7 7 7 7 7 7 0 m.m.m.",
"m.m.m.3 p 6 : ; o 5 l n F H H H H H H H H H m ` ../ A 5 < x H H H H D C m m m m v p $ O = ; t t 4 7 7 7 7 7 7 4 3 m.m.m.",
"m.m.m.: i 7 ; ; O : l l A H H H H H H H H H m ` ..^ Z 5 < x H H F A M m m m m m k w O @ = > i q 4 7 7 7 7 7 7 6 : m.m.m.",
"m.m.m.m.e w ; = @ $ j l v D H H H H H H H H m ` ..^ Z 6 < x H D C m m m m m m v a 6 o $ = , p 8 5 7 7 7 7 7 7 2 m.m.m.m.",
"m.m.m.m.w i > = $ o i l l M F H H H H H H H m ` ..^ C 6 < l A M m m m m m m m j p : o * = 4 p 6 6 7 7 7 7 7 7 1 m.m.m.m.",
"m.m.m.m.0 p < = * X > j k l Z H H H H H H H m ` | ^ C 6 < a M m m m m m m m l p i @ O = = 8 i 4 7 7 7 7 7 7 7 , m.m.m.m.",
"m.m.m.m.r p 7 = = O @ t a s k Z H H H H H H m ` | ~ M 6 < a M m m m m m m x a p 5 X $ = ; t w 4 7 7 7 7 7 7 6 : m.m.m.m.",
"m.m.m.m.m.e t ; = $ X < p p p s v A S S S S x ) | ~ M 6 < a M m m m m m x a p p * o * = < p 6 : > > > > > > - m.m.m.m.m.",
"m.m.m.m.m.9 p , = * O $ i p p p p j v m m m j ) | W m 6 < a M m m m v k p p p 7 o @ = = 7 p > & * * * * * * + m.m.m.m.m.",
"m.m.m.m.m.r i 7 = = $ X , p p p p p a l v M j ) | E v 6 < a M m v l s p p p i & o * = : i q = * * * * * * * : m.m.m.m.m.",
"m.m.m.m.m.m.0 i > = * O O q p p p p p p a j a ) | E v 7 < p x k a p p p p p < X $ = = 4 p < & * * * * * * % m.m.m.m.m.m.",
"m.m.m.m.m.m.3 p 5 = = & . * i p p p p p p p 8 Y { J v 7 < 7 p p p p p p p 8 O O * = ; w i ; * * * * * * * # m.m.m.m.m.m.",
"m.m.m.m.m.m.m.0 t ; = = @ . > p p p p p p p 8 Y ( S v 5 < 7 p p p p p p t $ X & = = < p 4 & * * * * * * - m.m.m.m.m.m.m.",
"m.m.m.m.m.m.m.3 p 4 = = * O X , p p p p p p 8 P W n x ; < 7 p p p p p t * . $ = = ; q t ; * * * * * * * # m.m.m.m.m.m.m.",
"m.m.m.m.m.m.m.m.w i > = = * O X > i p p p p 8 Z A v i $ 4 6 p p p p w & . @ = = = < p < & * * * * * * % m.m.m.m.m.m.m.m.",
"m.m.m.m.m.m.m.m.: i 8 = = = * O . = w p p p 8 7 8 8 4 < < 6 p p p 7 @ . @ = = = ; t 8 = * * * * * * & m.m.m.m.m.m.m.m.m.",
"m.m.m.m.m.m.m.m.m., i 4 = = = * O . @ < t p p w w w w w w i p q ; o . $ = = = = 7 i ; & * * * * * * , m.m.m.m.m.m.m.m.m.",
"m.m.m.m.m.m.m.m.m.m.9 i , = = = = $ X . @ > 7 t i p i i q 4 = O . O & = = = = < i , & * * * * * = + m.m.m.m.m.m.m.m.m.m.",
"m.m.m.m.m.m.m.m.m.m.m.w i , = = = = * @ X . X O $ $ $ @ O . . o $ * = = = = , i 4 * * * * * * * % m.m.m.m.m.m.m.m.m.m.m.",
"m.m.m.m.m.m.m.m.m.m.m.m.0 i , = = = = = * $ @ o o X X o O @ & * = = = = = < i 4 * * * * * * * % m.m.m.m.m.m.m.m.m.m.m.m.",
"m.m.m.m.m.m.m.m.m.m.m.m.m.w i 4 ; = = = = = = * * * * * = = = = = = = ; 4 i 4 * * * * * * * % m.m.m.m.m.m.m.m.m.m.m.m.m.",
"m.m.m.m.m.m.m.m.m.m.m.m.m.m.9 i 8 , = = = = = = = = = = = = = = = = , 8 t > $ $ $ $ $ $ $ + m.m.m.m.m.m.m.m.m.m.m.m.m.m.",
"m.m.m.m.m.m.m.m.m.m.m.m.m.m.m.3 e i 7 , ; = = = = = = = = = = ; , 8 i 7 $ . . . . . .   # m.m.m.m.m.m.m.m.m.m.m.m.m.m.m.",
"m.m.m.m.m.m.m.m.m.m.m.m.m.m.m.m.m.0 t i w 6 < > : ; ; : > < 7 w i 8 ; o . . . . .   + m.m.m.m.m.m.m.m.m.m.m.m.m.m.m.m.m.",
"m.m.m.m.m.m.m.m.m.m.m.m.m.m.m.m.m.m.m., w i p i i i i i i i t 5 = O . . . . .     m.m.m.m.m.m.m.m.m.m.m.m.m.m.m.m.m.m.m.",
"m.m.m.m.m.m.m.m.m.m.m.m.m.m.m.m.m.m.m.m.m.m.3 9 w 0 0 0 2 - %           +   m.m.m.m.m.m.m.m.m.m.m.m.m.m.m.m.m.m.m.m.m.m."
};
