/* XPM */
static char *result[] = {
/* columns rows colors chars-per-pixel */
"60 60 165 2 ",
"   c #A07200",
".  c #A27300",
"X  c #A37500",
"o  c #A47600",
"O  c #A57600",
"+  c #A77800",
"@  c #A77900",
"#  c #A87A00",
"$  c #A97B00",
"%  c #AA7C00",
"&  c #AC7E00",
"*  c #AE7F00",
"=  c #AF8100",
"-  c #B08200",
";  c #B18200",
":  c #B18300",
">  c #B28300",
",  c #B28400",
"<  c #B38400",
"1  c #B48500",
"2  c #B78700",
"3  c #B98B00",
"4  c #B98A01",
"5  c #BB8C00",
"6  c #BD8D00",
"7  c #BD8E00",
"8  c #BF9000",
"9  c #BD9D00",
"0  c #BB9118",
"q  c #C09100",
"w  c #C19200",
"e  c #C29200",
"r  c #C29300",
"t  c #C39400",
"y  c #C59500",
"u  c #C59600",
"i  c #C69700",
"p  c #C79800",
"a  c #C89900",
"s  c #C99A00",
"d  c #CA9B00",
"f  c #CB9C00",
"g  c #CD9E00",
"h  c #CE9E00",
"j  c #CF9F00",
"k  c #C2A200",
"l  c #C7A600",
"z  c #CBA900",
"x  c #D0A100",
"c  c #D1A100",
"v  c #D1A200",
"b  c #D3A300",
"n  c #D3A400",
"m  c #D5A500",
"M  c #D5A600",
"N  c #D6A600",
"B  c #D8A800",
"V  c #D9A900",
"C  c #DAAA00",
"Z  c #DAAB00",
"A  c #D8AE00",
"S  c #DCAC00",
"D  c #DDAD00",
"F  c #DEAE00",
"G  c #D3B200",
"H  c #D0B700",
"J  c #DFB000",
"K  c #DBBA00",
"L  c #D8AD1A",
"P  c #E1B100",
"I  c #E3B200",
"U  c #E5B500",
"Y  c #E6B600",
"T  c #E6B700",
"R  c #E0B800",
"E  c #E3BF00",
"W  c #E9B900",
"Q  c #EBBB00",
"!  c #ECBC00",
"~  c #EEBD00",
"^  c #F0BF00",
"/  c #E4B917",
"(  c #C59B20",
")  c #C39E37",
"_  c #E7C000",
"`  c #E0C600",
"'  c #E6C500",
"]  c #EAC000",
"[  c #EBC000",
"{  c #E7C900",
"}  c #E9C800",
"|  c #EBC800",
" . c #ECC900",
".. c #F2C100",
"X. c #F4C400",
"o. c #F7C700",
"O. c #F4CA00",
"+. c #F0CE00",
"@. c #FAC900",
"#. c #FDCC00",
"$. c #FECE00",
"%. c #FFCE00",
"&. c #FFCF00",
"*. c #E4D300",
"=. c #E8D802",
"-. c #EFDA00",
";. c #EFDF00",
":. c #F4D200",
">. c #F1D600",
",. c #FFD201",
"<. c #F8D600",
"1. c #F9D700",
"2. c #FFD401",
"3. c #FFD600",
"4. c #FEDA00",
"5. c #FADF03",
"6. c #FFDD00",
"7. c #FFDE02",
"8. c #EEDF13",
"9. c #FFD312",
"0. c #EAE001",
"q. c #F0E200",
"w. c #FFE000",
"e. c #FFE402",
"r. c #F3ED00",
"t. c #F4ED02",
"y. c #FFE800",
"u. c #FFED00",
"i. c #FFF100",
"p. c #FFF700",
"a. c #FFFB00",
"s. c #FFFE00",
"d. c yellow",
"f. c #FFFD0F",
"g. c #FFE318",
"h. c #FFF019",
"j. c #F7D030",
"k. c #FFE42D",
"l. c #FFFD25",
"z. c #EEE031",
"x. c #FFE33D",
"c. c #FFF435",
"v. c #DEBB45",
"b. c #FDE651",
"n. c #FFFD53",
"m. c #F2DE6B",
"M. c #EEE56C",
"N. c #FDE96F",
"B. c #FFFA66",
"V. c #EFE77E",
"C. c #FFFE72",
"Z. c #FFFF7D",
"A. c #FFFE8B",
"S. c #F1E296",
"D. c #FFFA9D",
"F. c #FDECA0",
"G. c #FFFEAA",
"H. c #F4EDC0",
"J. c #FFFCC0",
"K. c #FEFBCD",
"L. c #FFFFD7",
"P. c #FFFEDF",
"I. c #FFFEED",
"U. c #FFFFFD",
"Y. c None",
/* pixels */
"Y.Y.Y.Y.Y.Y.Y.Y.Y.Y.Y.Y.Y.Y.Y.Y.Y.Y.Y.Y.Y.Y.{ ] >.O.:.:. .U F B b b m V N n c Y.Y.Y.Y.Y.Y.Y.Y.Y.Y.Y.Y.Y.Y.Y.Y.Y.Y.Y.Y.Y.",
"Y.Y.Y.Y.Y.Y.Y.Y.Y.Y.Y.Y.Y.Y.Y.Y.Y.Y.Y.{ >.1.4.6.6.6.6.6.7.3.%.#.@.^ U D J I I F N M Y.Y.Y.Y.Y.Y.Y.Y.Y.Y.Y.Y.Y.Y.Y.Y.Y.Y.",
"Y.Y.Y.Y.Y.Y.Y.Y.Y.Y.Y.Y.Y.Y.Y.Y.Y.| <.6.6.7.w.w.w.w.w.w.7.4.&.%.%.&.%.@.! W X.@.@.@.X.] Y.Y.Y.Y.Y.Y.Y.Y.Y.Y.Y.Y.Y.Y.Y.Y.",
"Y.Y.Y.Y.Y.Y.Y.Y.Y.Y.Y.Y.Y.Y.Y.| 4.6.7.e.u.c.C.C.a.a.a.p.p.i.e.3.,.%.%.%.&.@.^ ~ #.&.&.%.o.] Y.Y.Y.Y.Y.Y.Y.Y.Y.Y.Y.Y.Y.Y.",
"Y.Y.Y.Y.Y.Y.Y.Y.Y.Y.Y.Y.Y.{ 1.6.6.e.h.n.G.P.D.l.p.i.i.u.u.u.u.u.y.w.3.%.%.%.%.! U o.%.%.%.%.O.c Y.Y.Y.Y.Y.Y.Y.Y.Y.Y.Y.Y.",
"Y.Y.Y.Y.Y.Y.Y.Y.Y.Y.Y.Y.] 4.6.w.h.B.K.I.J.b.e.w.4.<.<.<.<.4.4.,.,.4.7.4.&.%.%.o.W I ..,.,.,.2.$.] Y.Y.Y.Y.Y.Y.Y.Y.Y.Y.Y.",
"Y.Y.Y.Y.Y.Y.Y.Y.Y.Y.Y._ 4.6.e.c.J.I.G.b.5.+.E G z l k k l z G A W @.&.,.2.&.%.@.! Q T -.p.p.p.p.p.>.Y.Y.Y.Y.Y.Y.Y.Y.Y.Y.",
"Y.Y.Y.Y.Y.Y.Y.Y.Y.Y._ <.6.y.a.B.N.k.<.E z k 9 k z G G G G z k & o 2 N X.&.&.%.@.~ ! ! T z.C.C.C.C.C.V.Y.Y.Y.Y.Y.Y.Y.Y.Y.",
"Y.Y.Y.Y.Y.Y.Y.Y.Y._ +.6.y.a.u.w.4.' l 9 l K } <.5.y.y.y.y.y.5.E a *   = B @.&.#.~ ! ! ! / S.G.G.G.G.G.M.Y.Y.Y.Y.Y.Y.Y.Y.",
"Y.Y.Y.Y.Y.Y.Y.Y.|  .<.u.a.y.7.:.G 9 l E <.y.h.l.s.s.d.d.s.a.p.u.4.X.N - . 6 T o.~ ! ! ! Q E t.d.d.d.d.s.0.Y.Y.Y.Y.Y.Y.Y.",
"Y.Y.Y.Y.Y.Y.Y.n } +.y.p.y.6. .l k K <.y.c.A.K.n.d.d.a.i.y.e.7.,.%.&.&.X.f o $ j D I Q ! ! Q E p.d.d.d.d.a.{ Y.Y.Y.Y.Y.Y.",
"Y.Y.Y.Y.Y.Y.Y.P  .5.p.y.6.' k l  .w.h.A.I.L.B.l.p.u.+.E E E <.,.%.%.%.&.%.I * o w m S W ! ! I E w.w.w.w.w.1.Y.Y.Y.Y.Y.Y.",
"Y.Y.Y.Y.Y.Y.Z I +.i.y.6.} k z +.e.B.L.P.A.l.f.c.w.+.H H H l +.&.%.%.%.%.%.&.! 1 o w m B T ! W N ~ %.%.%.%.%._ Y.Y.Y.Y.Y.",
"Y.Y.Y.Y.Y.n P I -.u.7.+.k z :.x.D.J.Z.l.s.i.g.b.<.K -.A w d o.&.%.%.%.%.%.%.&.~ ; o i m B T ! S B @.&.%.%.%.%.M Y.Y.Y.Y.",
"Y.Y.Y.Y.Y.F I T 5.w.<.z l +.e.n.n.f.d.a.y.6.k.N.K q.<.b < i X.&.%.%.%.%.%.%.%.$.J $ $ j m B W I v P ^ ^ ^ ^ ^ Y Y.Y.Y.Y.",
"Y.Y.Y.Y.n I P [ 3.3.G k } w.p.d.d.d.p.e.6.7.x.S.=.w.o.b 1 i X.&.%.%.%.%.%.%.%.@.~ x . 1 b m S U m j J I I I I P M Y.Y.Y.",
"Y.Y.Y.Y.F I I X.&.J 9 K 7.i.d.d.d.i.w.6.6.6.N.K.g.%.o.b 1 i X.&.%.%.%.%.%.%.%.o.! W 5 . t N m D N v N I I I I I V Y.Y.Y.",
"Y.Y.Y.M P J I @...= 5 <.u.d.d.s.u.7.7.g.k.b.K.U.F.b.j.L 4 i X.&.%.%.%.%.%.%.%.X.! ! B $ $ f m N m b v P I I I I P c Y.Y.",
"Y.Y.Y.N P C T #.f . N w.a.d.s.u.7.7.g.x.N.H.U.U.P.F.m.v.0 a X.&.%.%.%.%.%.%.#.^ ! ! T q   1 v m m m g C I I I I I N Y.Y.",
"Y.Y.Y.b S m ! W $ ; o.i.d.d.i.7.6.6.6.4.K 8.F.I.x.%.o.b 1 i X.&.%.%.%.%.%.%.o.! ! ! ! N $ + t m m m f v I I I I I F Y.Y.",
"Y.Y.w m v b ~ d   v e.d.d.i.4.6.6.6.6.E *.+.v.K.9.%.X.b 1 i X.&.%.%.%.%.%.$.^ ! ! ! ! U 6 . 1 j m b f f P I I I I P c Y.",
"Y.Y.y N a N U > + ^ p.d.a.4.%.,.3.4. .` -.j ) F.&.%.X.b 1 i X.&.%.%.%.%.%.o.! ! ! ! ! W j o $ t m v d a S I I I I I m Y.",
"Y.Y.h m w b v o 5 4.s.d.y.%.%.%.&.X.K -.B 2 ( S.&.&.X.b 1 i X.&.%.%.%.%.@.~ ! ! ! ! ! ! D = o 4 x g d a N I I I I I Z Y.",
"Y.Y.b v 8 x 8 . v u.d.p.,.%.%.%.@.K -.J 5 5 ( m.,.%.X.b 1 i X.&.%.%.%.#.^ ! ! ! ! ! ! ! U 6 . > y f d a v I I I I I F Y.",
"Y.w m g 6 g < o T p.d.e.%.%.%.#.J *.R j 6 v / b.,.%.X.b 1 i X.&.%.%.#...! ! ! ! ! ! ! ! W s . * 5 s d s g I I I I I J c ",
"Y.e m d 5 d & $ +.s.p.3.%.%.&.^ z A j j b o./ m.,.%.X.b 1 i X.&.%.#...! ! ! ! ! ! ! ! ! ! b o $ 1 i d d f J I I I I J n ",
"Y.u N i 5 y $ * +.s.u.%.%.%.%.$.#.#.#.#.$.&./ S.9.%.X.b 1 i X.%.@.^ ! ! ! ! ! ! ! ! ! ! ! C $ + > w d d s J I I I I I m ",
"Y.h N y 4 q + > } r.4.%.%.%.%.%.%.%.%.%.%.&./ m.2.%.X.b 1 i ^ X.~ ! ! ! ! ! ! ! ! ! ! ! ! J * o ; 6 d d y s f f f f f u ",
"Y.g m t 4 6 o < } ;.X.@.%.%.%.%.%.%.%.%.%.&.T 8.2.%.X.b 1 y U ! ! ! ! ! ! ! ! ! ! ! ! ! ! C * o ; 4 s d y 8 w q q q w 7 ",
"Y.g m w 2 4 o < ` -.! ~ X.@.$.%.%.%.%.%.%.&.T q.3.%...b 1 y I ~ ! ! ! ! ! ! ! ! ! ! ! ! U N = o ; 2 a d y 8 w w w w w 5 ",
"Y.g m w 2 2 o < K +.! ! ! ~ ..X.@.@.#.#.@.@.R q.3.%...b 1 y I ~ ! ! ! ! ! ! ! ! ! ! ! U D b = o ; 1 i f y 8 w w w w w 5 ",
"Y.g N t 2 1 o > A } ! ! ! ! ! ! ! ~ ~ ~ ~ ~ A q.3.%...v 1 y I ~ ! ! ! ! ! ! ! ! ! ! U D D v * o ; < y f y 8 w w w w w 7 ",
"Y.h N y 2 2 + * m R ! ! ! ! ! ! ! ! ! ! ! ~ A q.3.%.^ v 1 y I ~ ! ! ! ! ! ! ! ! Q I D D S g & o > < y f t 8 w w w w w 7 ",
"Y.u b a 2 2 $ $ v A W ! ! ! ! ! ! ! ! ! ! ~ A q.3.%.^ v 1 y I ~ ! ! ! ! ! ! ! W I D D D C s $ + > < y f w 8 w w w w 8 e ",
"Y.e g s 2 2 & o g N I ! ! ! ! ! ! ! ! ! ! ~ A q.3.%.~ v 1 y I ~ ! ! ! ! ! ! T J D D D D N y o $ > 1 i d q q w w w w w , ",
"Y.w d i 2 2 = . i N B W ! ! ! ! ! ! ! ! ! ~ A q.3.%.~ v 1 y I ~ ! ! ! ! W I D D D D D S x 8 . & > 1 i d 8 w w w w w q 3 ",
"Y.Y.a a 2 1 > . 5 N m J ! ! ! ! ! ! ! ! ! ~ A q.3.%.! v 1 y I ~ ! ! Q T J D D D D D D N f 2 . = > 2 s a 8 w w w w w 8 Y.",
"Y.Y.i d 5 > < o * b m N U ! ! ! ! ! ! ! ! ~ A q.3.%.Q v 1 y I ~ ! W P D D D D D D D S j a & o ; > 5 d i 8 w w w w w 7 Y.",
"Y.Y.y f 8 > > $ o f N m B T ! ! ! ! ! ! ! ~ A q.3.%.W v 1 y I W I D D D D D D D D D b f w o $ > > q f t 8 w w w w w e Y.",
"Y.Y.w d y < > * . 2 v b m C W ! ! ! ! ! ! ~ A q.3.%.W v 1 t B D D D D D D D D D D N f d 2 . * > < y d q q w w w w q 3 Y.",
"Y.Y.Y.a s 2 > ; o + i f j v B T ! ! ! ! ! ~ A ;.3.%.T v 1 t m D D D D D D D D D N f d i + o ; > 4 s a 8 w w w w w 8 Y.Y.",
"Y.Y.Y.u d 8 > > & . 4 d d d f x D U T T T T N ;.2.$.U v 1 t N D D D D D D D S b f d d 4 . & > > 8 f w 2 2 2 2 2 2 : Y.Y.",
"Y.Y.Y.w d y 1 > ; o + y d d d d f v C D D D v ;.,.#.I v 1 t N D D D D D D B j d d d y + o ; > 1 i d 4 = - - - - = @ Y.Y.",
"Y.Y.Y.Y.i d 5 > > & . ; s d d d d d f b B D v -.,.#.J v 1 t N D D D S B v f d d d s > . & > > 5 d y > - - - - - = Y.Y.Y.",
"Y.Y.Y.Y.q d t < > > + . 5 d d d d d d d f x d -.,.@.D v 1 t b C N b j f d d d d d 5 . + > > < y f 5 = - - - - - # Y.Y.Y.",
"Y.Y.Y.Y.Y.i s 5 > > - o o q f d d d d d d d t -.,.o.C v 1 w i f d d d d d d d f q o o - > > 5 d i > - - - - - = Y.Y.Y.Y.",
"Y.Y.Y.Y.Y.w d y < > > * . + w f d d d d d d i +.&.! B v 1 q y d d d d d d d f w $ . * > > 1 y d 5 = - - - - - # Y.Y.Y.Y.",
"Y.Y.Y.Y.Y.Y.u d 6 > > > & . $ w d d d d d s i +.@.D B i = w y d d d d d d f w $ . & > > > 6 d t ; - - - - < O Y.Y.Y.Y.Y.",
"Y.Y.Y.Y.Y.Y.Y.a i 2 > > > & . o 6 d d d d d t [ U B b < > w y d d d d d d 6 o . & > > > 2 i a 1 - - - - - = Y.Y.Y.Y.Y.Y.",
"Y.Y.Y.Y.Y.Y.Y.w s t 1 > > > & . . > y d d d w t t t 8 5 6 5 i d d d d y > . . & > > > < w d 5 = - - - - = # Y.Y.Y.Y.Y.Y.",
"Y.Y.Y.Y.Y.Y.Y.Y.e d q < > > > = +   + 2 y d s i i i i i i i d f d y 2 +   + = > > > > 6 d 8 - - - - - - X Y.Y.Y.Y.Y.Y.Y.",
"Y.Y.Y.Y.Y.Y.Y.Y.Y.y d 8 < > > > ; & o   o - 5 t i s d d s i t 5 - o   o & ; > > > > 5 s w ; - - - - - : Y.Y.Y.Y.Y.Y.Y.Y.",
"Y.Y.Y.Y.Y.Y.Y.Y.Y.Y.u d 8 < > > > > - & o .   o + & * * & + o   . o & - > > > > > 5 a w ; - - - - - : Y.Y.Y.Y.Y.Y.Y.Y.Y.",
"Y.Y.Y.Y.Y.Y.Y.Y.Y.Y.Y.y s w 2 > > > > > ; * $ + o . . . . o + $ * ; > > > > > < 6 s q ; - - - - = : Y.Y.Y.Y.Y.Y.Y.Y.Y.Y.",
"Y.Y.Y.Y.Y.Y.Y.Y.Y.Y.Y.Y.q s i 5 < > > > > > > > ; ; - - ; ; > > > > > > > > 2 t s 6 - - - - - = , Y.Y.Y.Y.Y.Y.Y.Y.Y.Y.Y.",
"Y.Y.Y.Y.Y.Y.Y.Y.Y.Y.Y.Y.Y.3 i s t 4 < > > > > > > > > > > > > > > > > > 2 8 a y 1 & & & & & % @ Y.Y.Y.Y.Y.Y.Y.Y.Y.Y.Y.Y.",
"Y.Y.Y.Y.Y.Y.Y.Y.Y.Y.Y.Y.Y.Y.Y.e a s t 5 1 < > > > > > > > > > > > 1 4 q a a 4 +   . . . . X Y.Y.Y.Y.Y.Y.Y.Y.Y.Y.Y.Y.Y.Y.",
"Y.Y.Y.Y.Y.Y.Y.Y.Y.Y.Y.Y.Y.Y.Y.Y.Y.e p s a t 8 5 4 2 1 1 2 2 4 6 w i d i 5 $ .         X Y.Y.Y.Y.Y.Y.Y.Y.Y.Y.Y.Y.Y.Y.Y.Y.",
"Y.Y.Y.Y.Y.Y.Y.Y.Y.Y.Y.Y.Y.Y.Y.Y.Y.Y.Y.w y p s d s a a a a s d s i 8 < + .       O # Y.Y.Y.Y.Y.Y.Y.Y.Y.Y.Y.Y.Y.Y.Y.Y.Y.Y.",
"Y.Y.Y.Y.Y.Y.Y.Y.Y.Y.Y.Y.Y.Y.Y.Y.Y.Y.Y.Y.Y.Y.3 q y 7 r r r 5 5 = %       O X @ Y.Y.Y.Y.Y.Y.Y.Y.Y.Y.Y.Y.Y.Y.Y.Y.Y.Y.Y.Y.Y."
};
