/* XPM */
static char *result[] = {
/* columns rows colors chars-per-pixel */
"60 60 169 2 ",
"   c #A07200",
".  c #A37500",
"X  c #A47600",
"o  c #A67700",
"O  c #A67800",
"+  c #A77900",
"@  c #A97A00",
"#  c #AB7C00",
"$  c #AC7D00",
"%  c #AC7E00",
"&  c #AE8000",
"*  c #AF8100",
"=  c #B08100",
"-  c #B08200",
";  c #B18200",
":  c #B28300",
">  c #B48500",
",  c #B68700",
"<  c #B78800",
"1  c #B98B00",
"2  c #BA8B00",
"3  c #BB8C00",
"4  c #BC8D00",
"5  c #BD8E00",
"6  c #BF9000",
"7  c #C09100",
"8  c #C09200",
"9  c #C19200",
"0  c #C29200",
"q  c #C39300",
"w  c #C29400",
"e  c #C49400",
"r  c #C49500",
"t  c #C49600",
"y  c #C69700",
"u  c #C79800",
"i  c #C29E00",
"p  c #C79E00",
"a  c #C89800",
"s  c #C89900",
"d  c #C99900",
"f  c #CA9B00",
"g  c #CB9C00",
"h  c #CD9D00",
"j  c #CE9E00",
"k  c #CF9F00",
"l  c #C5A400",
"z  c #C9A900",
"x  c #CFAC00",
"c  c #D0A000",
"v  c #D1A100",
"b  c #D3A300",
"n  c #D4A500",
"m  c #D5A500",
"M  c #D7A700",
"N  c #D8A800",
"B  c #D8A900",
"V  c #D9A900",
"C  c #DBAB00",
"Z  c #DCAD00",
"A  c #DDAD00",
"S  c #DFAE00",
"D  c #D3B300",
"F  c #D7B700",
"G  c #DEB500",
"H  c #DABB00",
"J  c #C4A718",
"K  c #D5A912",
"L  c #E0B000",
"P  c #E1B100",
"I  c #E2B200",
"U  c #E3B300",
"Y  c #E4B500",
"T  c #E7B700",
"R  c #E1BC00",
"E  c #E8B800",
"W  c #EABA00",
"Q  c #ECBB00",
"!  c #EDBC00",
"~  c #EEBD00",
"^  c #EFBF00",
"/  c #E8BB05",
"(  c #C29923",
")  c #D5BA30",
"_  c #E5C100",
"`  c #E1C600",
"'  c #E9C100",
"]  c #EBC700",
"[  c #EECC00",
"{  c #E0C20B",
"}  c #F1C100",
"|  c #F3C300",
" . c #F4C400",
".. c #F6C500",
"X. c #F7C600",
"o. c #F2C900",
"O. c #F9C800",
"+. c #FBC900",
"@. c #FCCB00",
"#. c #FBCE00",
"$. c #FECD00",
"%. c #FFCD00",
"&. c #FFCE00",
"*. c #FFCF00",
"=. c #F5C60C",
"-. c #ECD700",
";. c #E8DD00",
":. c #F3D100",
">. c #F7D600",
",. c #FBD200",
"<. c #FFD000",
"1. c #FFD400",
"2. c #FFD600",
"3. c #FFDA00",
"4. c #FFDC00",
"5. c #FFDE00",
"6. c #FEDA0B",
"7. c #FFD214",
"8. c #FFDE16",
"9. c #F7E100",
"0. c #FFE100",
"q. c #FFE500",
"w. c #FFEA00",
"e. c #FFEF00",
"r. c #FFE20A",
"t. c #FFED0E",
"y. c #F7F100",
"u. c #FFF600",
"i. c #FFFA00",
"p. c #FFFF01",
"a. c #FFF814",
"s. c #FFFF19",
"d. c #E6CF29",
"f. c #EED020",
"g. c #FFD72B",
"h. c #FFF02B",
"j. c #F9E338",
"k. c #FFFE33",
"l. c #D8BB63",
"z. c #ECCE4A",
"x. c #FFDB41",
"c. c #E4D755",
"v. c #FFF645",
"b. c #FCE950",
"n. c #FEE05F",
"m. c #E1C362",
"M. c #FFEB65",
"N. c #FFE77E",
"B. c #FFF776",
"V. c #FFFF74",
"C. c #E4D184",
"Z. c #EADB82",
"A. c #FFFE89",
"S. c #FEF396",
"D. c #FDFC9D",
"F. c #FFFFA4",
"G. c #FFF5AC",
"H. c #F4E6B5",
"J. c #FFFFB1",
"K. c #FFF6BC",
"L. c #F4EACB",
"P. c #FFF9C2",
"I. c #FFFBCB",
"U. c #FFFED7",
"Y. c #FEFAE3",
"T. c #FFFCEB",
"R. c #FFFEF8",
"E. c white",
"W. c None",
/* pixels */
"W.W.W.W.W.W.W.W.W.W.W.W.W.W.W.W.W.W.W.W.W.W.j m m N V N B V M M G _ [ :.] I Z W.W.W.W.W.W.W.W.W.W.W.W.W.W.W.W.W.W.W.W.W.",
"W.W.W.W.W.W.W.W.W.W.W.W.W.W.W.W.W.W.W.W.~  .X. . . .} } ! Y ] >.4.5.4.5.4.<.@.| L W.W.W.W.W.W.W.W.W.W.W.W.W.W.W.W.W.W.W.",
"W.W.W.W.W.W.W.W.W.W.W.W.W.W.W.W.W.W.W...&.*.&.&.&.&.*.+.o.>.4.5.0.r.0.5.4.1.%.*.$.| W.W.W.W.W.W.W.W.W.W.W.W.W.W.W.W.W.W.",
"W.W.W.W.W.W.W.W.W.W.W.W.W.W.W.W.W.Z O.*.&.&.&.&.&.&.O.o.3.5.q.h.B.k.i.i.u.w.2.*.&.&.=.Z W.W.W.W.W.W.W.W.W.W.W.W.W.W.W.W.",
"W.W.W.W.W.W.W.W.W.W.W.W.W.W.W.W.Z O.&.&.&.&.&.&.&.O.o.3.5.t.V.U.A.a.e.e.e.e.w.q.1.&.*. .Z W.W.W.W.W.W.W.W.W.W.W.W.W.W.W.",
"W.W.W.W.W.W.W.W.W.W.W.W.W.W.W.Z #.1.1.1.1.1.1.1.#.] 3.5.h.J.Y.M.r.8.>.>.>.3.1.2.4.1.&.+.E W.W.W.W.W.W.W.W.W.W.W.W.W.W.W.",
"W.W.W.W.W.W.W.W.W.W.W.W.W.W.W.y.i.u.u.u.u.u.i.u.-.>.5.h.I.K.j.:.{ ) l l l x Z  .*.1.<.@.^ U W.W.W.W.W.W.W.W.W.W.W.W.W.W.",
"W.W.W.W.W.W.W.W.W.W.W.W.W.W.C.V.V.V.V.V.V.V.V.j.[ 4.e.v.M.6.H i J ) D D x l % % V @.*.@.^ Q I W.W.W.W.W.W.W.W.W.W.W.W.W.",
"W.W.W.W.W.W.W.W.W.W.W.W.W.c.D.F.F.F.F.F.F.F.D.d.>.w.u.0.:.x i D f.b.q.w.w.9.R < . y O.&.^ Q W Z W.W.W.W.W.W.W.W.W.W.W.W.",
"W.W.W.W.W.W.W.W.W.W.W.W.W.y.p.p.p.p.p.p.p.p.-.] 5.u.q.:.z l ] 0.v.V.p.p.p.u.w.#.v o 7 ^ ^ Q Q U W.W.W.W.W.W.W.W.W.W.W.W.",
"W.W.W.W.W.W.W.W.W.W.W.W.;.p.p.p.p.p.p.p.p.y.` :.e.w.>.x z :.t.V.U.A.p.u.q.0.1.&.&.A + 4 A T Q Q L W.W.W.W.W.W.W.W.W.W.W.",
"W.W.W.W.W.W.W.W.W.W.W.W.:.5.5.5.5.5.5.5.5.' R 9.e.4.F l :.h.J.U.D.F.w.>.R R X.&.&.&.V o 9 V T ! U W.W.W.W.W.W.W.W.W.W.W.",
"W.W.W.W.W.W.W.W.W.W.W.L $.%.%.%.%.%.%.&.X.A / w.q.] l ] h.P.I.k.V.P.6.F D z T *.&.&.$.g @ h C W T j W.W.W.W.W.W.W.W.W.W.",
"W.W.W.W.W.W.W.W.W.W.W.| *.&.&.&.&.&.&.*.Q A ' w.>.x F j.G.A.s.u.S.Y.f.` D 6 T *.&.&.*.X.> , n S W c W.W.W.W.W.W.W.W.W.W.",
"W.W.W.W.W.W.W.W.W.W.W.Q ^ ^ ^ ^ ^ ^ ^ ! A P [ 0._ z >.v.k.p.u.r.P.R.z.>.b < T *.&.&.&.&.M + f M Y V W.W.W.W.W.W.W.W.W.W.",
"W.W.W.W.W.W.W.W.W.W.b I I I I I I I I Z V I o.,.z R w.p.p.u.0.j.T.E.S.,.b < T *.&.&.&.@.Q , , n A A 0 W.W.W.W.W.W.W.W.W.",
"W.W.W.W.W.W.W.W.W.W.V I I I I I I I I V S Y O.Y l >.u.p.i.0.8.S.E.E.T.n.K < Y *.&.&.&.+.^ k @ h M V c W.W.W.W.W.W.W.W.W.",
"W.W.W.W.W.W.W.W.W.W.S I I I I I I I P M L Y O.4 x w.p.s.h.M.P.E.E.E.E.R.L.C.z.g.7.*.&.O.! I % 1 n M v W.W.W.W.W.W.W.W.W.",
"W.W.W.W.W.W.W.W.W.j I I I I I I I I S n S T T # / a.k.B.K.R.E.E.E.E.E.E.E.Y.H.N.x.7.&. .Q W 6 @ k n n 4 W.W.W.W.W.W.W.W.",
"W.W.W.W.W.W.W.W.W.m I I I I I I I I C v M T h : >.p.i.0.8.b.G.R.E.E.E.I.m.( / *.&.&.$.} Q Q v o 9 n n 8 W.W.W.W.W.W.W.W.",
"W.W.W.W.W.W.W.W.W.N I I I I I I I I M v v Y < u e.p.w.3.4.4.>.Z.E.E.Y.g.v < T *.&.&.+.! Q ! S % > b b r W.W.W.W.W.W.W.W.",
"W.W.W.W.W.W.W.W.W.Z I I I I I I I I b v h Z # G i.i.1.<.1.3._ d.Y.E.G.@.b < T *.&.&. .Q Q Q T < # h v u W.W.W.W.W.W.W.W.",
"W.W.W.W.W.W.W.W.W.L I I I I I I I P v v d h # [ p.w.&.&.&.X.H { H.E.N.+.b < T *.&.@.^ Q Q Q Q e o e k s W.W.W.W.W.W.W.W.",
"W.W.W.W.W.W.W.W.j P I I I I I I I L v k y 6 ; 9.p.3.%.&.&.Y ` f C.E.n.+.b < T *.&. .Q Q Q Q Q k o 4 f d 4 W.W.W.W.W.W.W.",
"W.W.W.W.W.W.W.W.b I I I I I I I I S v h e , 4 e.u.<.&.*.} F G 9 l.R.x.+.v < T <.+.^ Q Q Q Q ! V @ > u f 0 W.W.W.W.W.W.W.",
"W.W.W.W.W.W.W.W.m I I I I I I I I A v f 9 = y u.w.&.&.*.T x v v z.Y.g.+.v < T $.^ Q Q Q Q Q ! L # * e f 8 W.W.W.W.W.W.W.",
"W.W.W.W.W.W.W.W.N I P P P P P P I C v u 7 % p u.0.%.&.&.$.@.@.$.g.U.g.+.v < Y  .Q Q Q Q Q Q Q Y * % 7 f q W.W.W.W.W.W.W.",
"W.W.W.W.W.W.W.W.t g g g g g g g g u k y 4 # p 9.2.&.&.&.&.&.&.%.g.K.8.+.v < C ! Q Q Q Q Q Q Q T : # 4 f r W.W.W.W.W.W.W.",
"W.W.W.W.W.W.W.W.5 9 7 7 7 7 7 7 9 6 k y 1 @ p -.o.$.&.&.&.&.&.&.7.S.6.+.v < V ! Q Q Q Q Q Q Q Y ; @ 1 f r W.W.W.W.W.W.W.",
"W.W.W.W.W.W.W.W.4 9 9 9 9 9 9 9 9 7 k e < @ i -.! } +.&.&.&.&.&.7.B.6.+.v < V ! Q Q Q Q Q Q Q A ; @ < d t W.W.W.W.W.W.W.",
"W.W.W.W.W.W.W.W.4 9 9 9 9 9 9 9 9 7 k e , + e ] ! Q ^  .O.+.+.+.=.b.3.O.v < V ! Q Q Q Q Q Q Y V ; @ < d t W.W.W.W.W.W.W.",
"W.W.W.W.W.W.W.W.5 9 9 9 9 9 9 9 9 6 k y , @ 7 _ Q Q Q Q Q ! ! ! / j.3.O.v < V ! Q Q Q Q Q T S M = @ , d r W.W.W.W.W.W.W.",
"W.W.W.W.W.W.W.W.5 9 9 9 9 9 9 9 9 6 k u , @ 4 G Q Q Q Q Q Q Q Q / d.3.O.v < V ! Q Q Q Q W L A n * # , d r W.W.W.W.W.W.W.",
"W.W.W.W.W.W.W.W.3 9 9 9 9 9 9 9 9 6 f d , # 1 Z W Q Q Q Q Q Q Q T { 3.O.v < V ! Q Q Q W P A A v # % , d q W.W.W.W.W.W.W.",
"W.W.W.W.W.W.W.W.2 9 9 9 9 9 9 9 9 6 y u < % > M T Q Q Q Q Q Q Q T H 3.X.k < V ! Q Q Q I A A Z h @ % , d 8 W.W.W.W.W.W.W.",
"W.W.W.W.W.W.W.W.5 9 9 9 9 9 9 9 9 6 e y < * * b S Q Q Q Q Q Q Q T H 3.X.k < V ! Q Q I A A A V y o * < d 0 W.W.W.W.W.W.W.",
"W.W.W.W.W.W.W.W.$ 7 9 9 9 9 9 9 9 7 9 y > ; @ k M W Q Q Q Q Q Q T H 3.X.k < V ! W I A A A A M 6 o = 1 d 5 W.W.W.W.W.W.W.",
"W.W.W.W.W.W.W.W.W.7 9 9 9 9 9 9 9 7 6 d , ; o f M P Q Q Q Q Q Q T H 3.X.k < V W L A A A A Z v 1 o ; 4 s W.W.W.W.W.W.W.W.",
"W.W.W.W.W.W.W.W.W.5 9 9 9 9 9 9 9 9 6 d 1 ; o 7 M M T Q Q Q Q Q T H 3. .k < n L A A A A A M g - @ : 6 u W.W.W.W.W.W.W.W.",
"W.W.W.W.W.W.W.W.W.3 9 9 9 9 9 9 9 9 6 u 4 : @ : v n S Q Q Q Q Q T H 3. .k < k S A A A A Z k u @ % : e q W.W.W.W.W.W.W.W.",
"W.W.W.W.W.W.W.W.W.8 9 9 9 9 9 9 9 9 6 y 9 : % + y h b I Q Q Q Q T H 2. .h < k S A A A A n g 7 X = > y 5 W.W.W.W.W.W.W.W.",
"W.W.W.W.W.W.W.W.W.4 , , , , , , , , > 6 y > = X 4 g f k A Y T Y S F 2.} h < k S A A A M g f > o ; < d 5 W.W.W.W.W.W.W.W.",
"W.W.W.W.W.W.W.W.W.W.* - - - - - - - * < d < : + = f f f h M A A V F 2.^ h < k S A A M g f y @ # : 4 a W.W.W.W.W.W.W.W.W.",
"W.W.W.W.W.W.W.W.W.W.& - - - - - - - - : u 6 : % o e f f f g b C V F 2.! h < k S V b g f g 4 X = : e r W.W.W.W.W.W.W.W.W.",
"W.W.W.W.W.W.W.W.W.W.O - - - - - - - - - 9 e : ; X > f f f f f h k D 1.Q h < f b h f f f d # @ : , u 0 W.W.W.W.W.W.W.W.W.",
"W.W.W.W.W.W.W.W.W.W.W.* - - - - - - - * 1 d < : % o 9 g f f f f y x <.T h < 9 f f f f g 1 . * : 4 s W.W.W.W.W.W.W.W.W.W.",
"W.W.W.W.W.W.W.W.W.W.W.& - - - - - - - - : y 6 : ; o * d f f f f u x #.I h , 9 g f f f y + @ : : e q W.W.W.W.W.W.W.W.W.W.",
"W.W.W.W.W.W.W.W.W.W.W.# - - - - - - - - * 4 y > : % . 1 f f f f u n  .C e > 9 g f f d = . = : < d 5 W.W.W.W.W.W.W.W.W.W.",
"W.W.W.W.W.W.W.W.W.W.W.W.& - - - - - - - - > u 4 : : @ X 4 f f f u k I M < , 9 g f f , . % : : 7 r W.W.W.W.W.W.W.W.W.W.W.",
"W.W.W.W.W.W.W.W.W.W.W.W.$ - - - - - - - - * 6 y > : ; o o 4 f f d 4 9 7 4 1 9 g d < . @ : : > y 4 W.W.W.W.W.W.W.W.W.W.W.",
"W.W.W.W.W.W.W.W.W.W.W.W.W.& - - - - - - - - > u 4 : : = o . < u g d u u d d f y ;   @ ; : : 6 r W.W.W.W.W.W.W.W.W.W.W.W.",
"W.W.W.W.W.W.W.W.W.W.W.W.W.$ - - - - - - - - * 4 u , : : = o   # 1 e d d u 9 , +   @ ; : : < y 5 W.W.W.W.W.W.W.W.W.W.W.W.",
"W.W.W.W.W.W.W.W.W.W.W.W.W.W.& - - - - - - - - ; e e : : : ; # .   X @ # + .   X % : : : > e 8 W.W.W.W.W.W.W.W.W.W.W.W.W.",
"W.W.W.W.W.W.W.W.W.W.W.W.W.W.W.* - - - - - - - - > u 6 : : : : = # o X . X + % ; : : : : 7 r W.W.W.W.W.W.W.W.W.W.W.W.W.W.",
"W.W.W.W.W.W.W.W.W.W.W.W.W.W.W.X - - - - - - - - * < d 6 : : : : : : ; ; ; : : : : : : 6 u W.W.W.W.W.W.W.W.W.W.W.W.W.W.W.",
"W.W.W.W.W.W.W.W.W.W.W.W.W.W.W.W.& - - - - - - - - * 1 d 9 > : : : : : : : : : : : > 9 a W.W.W.W.W.W.W.W.W.W.W.W.W.W.W.W.",
"W.W.W.W.W.W.W.W.W.W.W.W.W.W.W.W.W.* - - - - - - - * * , u y 4 > : : : : : : : > 4 y t W.W.W.W.W.W.W.W.W.W.W.W.W.W.W.W.W.",
"W.W.W.W.W.W.W.W.W.W.W.W.W.W.W.W.W.# % % # # @ + o X .   % 9 f y 6 1 < < < 1 7 y d w W.W.W.W.W.W.W.W.W.W.W.W.W.W.W.W.W.W.",
"W.W.W.W.W.W.W.W.W.W.W.W.W.W.W.W.W.W.W.X                   X : 9 d f d d d d a q 5 W.W.W.W.W.W.W.W.W.W.W.W.W.W.W.W.W.W.W.",
"W.W.W.W.W.W.W.W.W.W.W.W.W.W.W.W.W.W.W.W.W.W.$ O X               & 3 q q q 5 W.W.W.W.W.W.W.W.W.W.W.W.W.W.W.W.W.W.W.W.W.W."
};
