/* XPM */
static char *result[] = {
/* columns rows colors chars-per-pixel */
"60 60 42 1 ",
"  c #A07200",
". c #AB7D00",
"X c #AC7D00",
"o c #AC7E00",
"O c #AD7F00",
"+ c #B08200",
"@ c #B78900",
"# c #BB8D00",
"$ c #BC8D00",
"% c #C09100",
"& c #C19200",
"* c #C79800",
"= c #CE9E00",
"- c #D3A300",
"; c #D5A500",
": c #D6A600",
"> c #D8A800",
", c #D9A900",
"< c #DDAD00",
"1 c #E1B100",
"2 c #E2B200",
"3 c #E4B400",
"4 c #E5B400",
"5 c #E7B600",
"6 c #E4C000",
"7 c #F0C000",
"8 c #F1C000",
"9 c #F8C700",
"0 c #FAC900",
"q c #FACD00",
"w c #FFCE00",
"e c #E0D102",
"r c #E2D400",
"t c #FFD200",
"y c #FFE000",
"u c #FBF100",
"i c #FFF700",
"p c #FDFC01",
"a c #FFFF01",
"s c #FFFE6B",
"d c #FFFEAB",
"f c None",
/* pixels */
"ffffffffffffffffffffffffff->>>>>>>-fffffffffffffffffffffffff",
"ffffffffffffffffffffffffff,4444444,fffffffffffffffffffffffff",
"ffffffffffffffffffffffffff800000008fffffffffffffffffffffffff",
"ffffffffffffffffffffffffff9wwwwwww9fffffffffffffffffffffffff",
"ffffffffffffffffffffffffff9wwwwwww9fffffffffffffffffffffffff",
"ffffffffffffffffffffffffffqtttttttqfffffffffffffffffffffffff",
"ffffffffffffffffffffffffffuiiiiiiiufffffffffffffffffffffffff",
"ffffffffffffffffffffffffffsssssssssfffffffffffffffffffffffff",
"ffffffffffffffffffffffffffdddddddddfffffffffffffffffffffffff",
"fffffffffffffffffffffffffepaaaaaaapeffffffffffffffffffffffff",
"fffffffffffffffffffffffffrpaaaaaaaprffffffffffffffffffffffff",
"fffffffffffffffffffffffff6yyyyyyyyy6ffffffffffffffffffffffff",
"fffffffffffffffffffffffff3wwwwwwwww5ffffffffffffffffffffffff",
"fffffffffffffffffffffffff5wwwwwwwww5ffffffffffffffffffffffff",
"fffffffffffffffffffffffff<777777777<ffffffffffffffffffffffff",
"fffffffffffffffffffffffff-122222221-ffffffffffffffffffffffff",
"fffffffffffffffffffffffff-222222222-ffffffffffffffffffffffff",
"fffffffffffffffffffffffff-222222222-ffffffffffffffffffffffff",
"fffffffffffffffffffffffff-222222222;ffffffffffffffffffffffff",
"fffffffffffffffffffffffff;222222222:ffffffffffffffffffffffff",
"fffffffffffffffffffffffff:222222222:ffffffffffffffffffffffff",
"fffffffffffffffffffffffff:222222222,ffffffffffffffffffffffff",
"fffffffffffffffffffffffff,222222222,ffffffffffffffffffffffff",
"fffffffffffffffffffffffff,222222221>ffffffffffffffffffffffff",
"fffffffffffffffffffffffff,222222222>ffffffffffffffffffffffff",
"fffffffffffffffffffffffff>222222222>ffffffffffffffffffffffff",
"fffffffffffffffffffffffff>222222222>ffffffffffffffffffffffff",
"fffffffffffffffffffffffff*=========*ffffffffffffffffffffffff",
"fffffffffffffffffffffffff$&%%%%%%%&$ffffffffffffffffffffffff",
"fffffffffffffffffffffffff$&&&&&&&&&$ffffffffffffffffffffffff",
"fffffffffffffffffffffffff$&&&&&&&&&$ffffffffffffffffffffffff",
"fffffffffffffffffffffffff$&&&&&&&&&$ffffffffffffffffffffffff",
"fffffffffffffffffffffffff$&&&&&&&&&$ffffffffffffffffffffffff",
"fffffffffffffffffffffffff$&&&&&&&&&$ffffffffffffffffffffffff",
"fffffffffffffffffffffffff$&&&&&&&&&$ffffffffffffffffffffffff",
"fffffffffffffffffffffffff$&&&&&&&&&$ffffffffffffffffffffffff",
"fffffffffffffffffffffffff$&&&&&&&&&$ffffffffffffffffffffffff",
"fffffffffffffffffffffffff$&&&&&&&&&$ffffffffffffffffffffffff",
"fffffffffffffffffffffffff#&&&&&&&&&$ffffffffffffffffffffffff",
"fffffffffffffffffffffffff#&&&&&&&&&#ffffffffffffffffffffffff",
"fffffffffffffffffffffffff@&&&&&&&&&#ffffffffffffffffffffffff",
"fffffffffffffffffffffffff+@@@@@@@@@@ffffffffffffffffffffffff",
"fffffffffffffffffffffffffO++++++++++ffffffffffffffffffffffff",
"fffffffffffffffffffffffffO+++++++++Offffffffffffffffffffffff",
"fffffffffffffffffffffffffo+++++++++Offffffffffffffffffffffff",
"fffffffffffffffffffffffffo+++++++++offffffffffffffffffffffff",
"fffffffffffffffffffffffffo+++++++++offffffffffffffffffffffff",
"fffffffffffffffffffffffffo+++++++++offffffffffffffffffffffff",
"fffffffffffffffffffffffffo+++++++++offffffffffffffffffffffff",
"fffffffffffffffffffffffffX+++++++++Xffffffffffffffffffffffff",
"fffffffffffffffffffffffff.+++++++++Xffffffffffffffffffffffff",
"fffffffffffffffffffffffff.+++++++++.ffffffffffffffffffffffff",
"ffffffffffffffffffffffffff+++++++++.ffffffffffffffffffffffff",
"ffffffffffffffffffffffffff+++++++++fffffffffffffffffffffffff",
"ffffffffffffffffffffffffff+++++++++fffffffffffffffffffffffff",
"ffffffffffffffffffffffffffooooooooofffffffffffffffffffffffff",
"ffffffffffffffffffffffffff         fffffffffffffffffffffffff",
"ffffffffffffffffffffffffff         fffffffffffffffffffffffff",
"ffffffffffffffffffffffffff         fffffffffffffffffffffffff",
"ffffffffffffffffffffffffff         fffffffffffffffffffffffff"
};
