/* XPM */
static char *result[] = {
/* columns rows colors chars-per-pixel */
"60 60 125 2 ",
"   c #A07200",
".  c #A17300",
"X  c #A37400",
"o  c #A57600",
"O  c #A77800",
"+  c #A97B00",
"@  c #AB7D00",
"#  c #AE7F00",
"$  c #B18200",
"%  c #B28300",
"&  c #B58600",
"*  c #B68700",
"=  c #B88900",
"-  c #BA8A00",
";  c #BB8C00",
":  c #BD8E00",
">  c #BE8F00",
",  c #BF8F00",
"<  c #BC9900",
"1  c #BF9E00",
"2  c #C09100",
"3  c #C09200",
"4  c #C29300",
"5  c #C39400",
"6  c #C49500",
"7  c #C59600",
"8  c #C69700",
"9  c #C69800",
"0  c #C79800",
"q  c #C89900",
"w  c #C99A00",
"e  c #CA9B00",
"r  c #CC9C00",
"t  c #CE9E00",
"y  c #CE9F00",
"u  c #CF9F00",
"i  c #C2A200",
"p  c #C8A600",
"a  c #CEAC00",
"s  c #D0A100",
"d  c #D1A200",
"f  c #D5A500",
"g  c #D6A700",
"h  c #D9A900",
"j  c #D8AA00",
"k  c #DBAC00",
"l  c #DCAC00",
"z  c #DDAD00",
"x  c #CFB600",
"c  c #D5B100",
"v  c #D9B600",
"b  c #DEB700",
"n  c #DEBC00",
"m  c #DDBB04",
"M  c #E0B000",
"N  c #E2B200",
"B  c #E4B400",
"V  c #E5B700",
"C  c #E6B600",
"Z  c #E0BF01",
"A  c #E9B900",
"S  c #EBBB00",
"D  c #ECBC00",
"F  c #EEBE00",
"G  c #EEBF00",
"H  c #DDB93A",
"J  c #E5C101",
"K  c #E5C601",
"L  c #E8C100",
"P  c #ECC300",
"I  c #ECC900",
"U  c #F2C200",
"Y  c #F6C500",
"T  c #F2CB00",
"R  c #F8C800",
"E  c #FCCB00",
"W  c #FDCC00",
"Q  c #FFCD00",
"!  c #FFCE00",
"~  c #E9DA00",
"^  c #F3D200",
"/  c #F5D300",
"(  c #FFD000",
")  c #FFD101",
"_  c #FFD300",
"`  c #F8D500",
"'  c gold",
"]  c #FAD800",
"[  c #FCDB01",
"{  c #FFDB00",
"}  c #FFDE00",
"|  c #FFDD1F",
" . c #EEE100",
".. c #ECE200",
"X. c #F2E600",
"o. c #F9E300",
"O. c #FFE200",
"+. c #FFE703",
"@. c #FBEA01",
"#. c #FFEB00",
"$. c #F9EF00",
"%. c #FFF201",
"&. c #FFF600",
"*. c #FFFA01",
"=. c #FFFD00",
"-. c yellow",
";. c #FFFF10",
":. c #F7E422",
">. c #FFF925",
",. c #FFF534",
"<. c #F5E342",
"1. c #FFF94E",
"2. c #FFEA55",
"3. c #FFFF57",
"4. c #E0CE62",
"5. c #FFFC63",
"6. c #FDEF7E",
"7. c #E3D495",
"8. c #FFFE83",
"9. c #FEEE9A",
"0. c #FFFE9A",
"q. c #FFFDBB",
"w. c #FFFEDF",
"e. c #FFFFEC",
"r. c None",
/* pixels */
"r.r.r.r.r.r.r.r.r.r.r.r.r.r.r.r.r.r.r.r.r.r.r.r.b I P T / / / / T P V b r.r.r.r.r.r.r.r.r.r.r.r.r.r.r.r.r.r.r.r.r.r.r.r.",
"r.r.r.r.r.r.r.r.r.r.r.r.r.r.r.r.r.r.r.r.r.I T ` [ { } } { } } [ ' ! Q E Y T V r.r.r.r.r.r.r.r.r.r.r.r.r.r.r.r.r.r.r.r.r.",
"r.r.r.r.r.r.r.r.r.r.r.r.r.r.r.r.r.r.L T [ } } } } } O.O.O.} } } } _ Q ! ! ! ! E F L r.r.r.r.r.r.r.r.r.r.r.r.r.r.r.r.r.r.",
"r.r.r.r.r.r.r.r.r.r.r.r.r.r.r.r.I / { } } O.#.>.5.8.,.*.*.*.&.&.%.#.} ' ( ! ! ! ! Q Y V r.r.r.r.r.r.r.r.r.r.r.r.r.r.r.r.",
"r.r.r.r.r.r.r.r.r.r.r.r.r.r.L / } } } +.>.5.q.w.q.1.&.&.%.%.#.#.#.%.#.#.#.O.' ! ! ! ! Q F f r.r.r.r.r.r.r.r.r.r.r.r.r.r.",
"r.r.r.r.r.r.r.r.r.r.r.r.r.T [ } } +.,.0.w.e.q.2.+.O.[ ] ` ` ` ` ] [ ' ) _ ' } { _ ! ! ! Y A l r.r.r.r.r.r.r.r.r.r.r.r.r.",
"r.r.r.r.r.r.r.r.r.r.r.b I { } O.>.0.e.w.9.<.[ ^ J v a p p i i p p a c k D R ! _ _ ) ! ! R D D B s r.r.r.r.r.r.r.r.r.r.r.",
"r.r.r.r.r.r.r.r.r.r.V I [ } #.*.1.6.2.| ^ Z a 1 1 1 p a c c c c a p < X o * d G Q ! ! ! E D D D S f r.r.r.r.r.r.r.r.r.r.",
"r.r.r.r.r.r.r.r.r.n I ` } %.*.%.O.{ ^ v i 1 p v K ^ [ O.+.#.#.#.@.o.^ v 7 #   + 0 D ! ! W G D D D S j r.r.r.r.r.r.r.r.r.",
"r.r.r.r.r.r.r.r.n I ^ } %.*.+.} ` m i 1 a K ` O.%.>.*.=.-.-.-.-.=.&.%.+.' Y l - X + r D R G D D D D D j r.r.r.r.r.r.r.r.",
"r.r.r.r.r.r.r.j I I [ &.&.O.} I a 1 a I [ +.,.8.q.0.;.-.=.*.%.#.O.O.{ ( ! ! ! E M &   # d z M A D D D A f r.r.r.r.r.r.r.",
"r.r.r.r.r.r.s N I ` %.%.} { J i i Z ] +.,.0.e.w.8.;.=.&.+.O.` Z Z Z J Q ! ! ! ! ! Y d O o 4 f h N S D D C > r.r.r.r.r.r.",
"r.r.r.r.r.r.k B I @.%.} [ Z 1 p I } ,.0.e.w.8.>.=.%.+.} } ` v x x x p E ! ! ! ! ! ! ! N # . ; f g z A D A u r.r.r.r.r.r.",
"r.r.r.r.r.l N N ^ %.} { Z 1 a ^ | 6.q.q.5.;.=.&.+.} } } ] m  .Z q 4 y E ! ! ! ! ! ! ! ! D %   ; f f l A D M 9 r.r.r.r.r.",
"r.r.r.r.f M N B o.O.} J 1 a ` O.1.3.>.-.-.*.#.} } } } ] m  .} M : * y E ! ! ! ! ! ! ! ! Q N $ . , f f h A B f 2 r.r.r.r.",
"r.r.r.r.k N N G _ ' I i p ^ O.&.-.-.-.=.%.O.} } } } [ m ~ O.W N , = y E ! ! ! ! ! ! ! ! E G l + o 0 g f l C h u r.r.r.r.",
"r.r.r.j N N N Y ! G 1 i I O.&.-.-.-.*.#.} } } } } { m <.+.! W N , = y E ! ! ! ! ! ! ! ! Y D D y X @ y f f z h f 4 r.r.r.",
"r.r.r.k N M B E R , o v } %.-.-.-.&.O.} } } } } } J 7.9.) ! W M , = y E ! ! ! ! ! ! ! Q U D D B ;   % d f f g f u r.r.r.",
"r.r.3 z M h S W f . * R #.-.-.-.%.O.} } } } } } J 4.9.| ! ! W M , = y E ! ! ! ! ! ! ! E D D D S h @ . ; d f f f f 3 r.r.",
"r.r.t h h g U D # X N } =.-.-.%.} } } } } } } K K :.U Q ! ! W M , = y E ! ! ! ! ! ! ! Y D D D D B 7 . + 7 f f f d 6 r.r.",
"r.r.d g r l U w   ; ( &.-.-.%.{ { } } } } } I Z o.M z ! ! ! W M , = y E ! ! ! ! ! ! E G D D D D S h # . & r f f d q r.r.",
"r.4 f d 7 M N $ . z +.-.-.&._ ! ( _ ' ' { I Z X.B : d ! ! ! W M , = y E ! ! ! ! ! Q U D D D D D D B 4 . @ , f f r e 4 r.",
"r.t g r , z r o $ R &.-.=.} Q ! ! ! ! ! U m X.C 4 & d W ! ! E M , = y E ! ! ! ! ! Y D D D D D D D A d O o * r d e e 9 r.",
"r.d g 7 4 d -   0 } =.-.#.! ! ! ! ! ! Y v  .Z 7 & 4 p o.! ! E M , = y E ! ! ! ! Y D D D D D D D D D M & . $ , r e e 8 r.",
"> f f , 4 r # . z #.-.*.' Q ! ! ! ! R v ~ m d , 4 B m @.! ! E M , = y E ! ! Q Y D D D D D D D D D D C 4   # * 7 e e w > ",
"4 f d ; 7 7 O O G *.-.#.! ! ! ! ! ! M a c y d d C Q m <.( ! E M , = y E ! E U D D D D D D D D D D D A y X O % , e e w 4 ",
"5 g d = 4 , o # I *.=.' Q ! ! ! ! ! W E E E E W ! Q H 9.( ! E M , = y R R G D D D D D D D D D D D D S g + o $ - w e e 5 ",
"t g y * 4 ; X $ K X.@.! ! ! ! ! ! ! ! ! ! ! ! ! ! Q H 6.) ! E M , = r D D D D D D D D D D D D D D D D l @ X $ & 7 e e 6 ",
"u g r * : = . % J ..I Y W ! ! ! ! ! ! ! ! ! ! ! ! Q m @.) ! E M , = w A D D D D D D D D D D D D D D S g # X $ % 4 e e 8 ",
"y g r * - * . % m ..I D G Y E Q ! ! ! ! ! ! ! ! ! Q m $.) ! E z , = w A D D D D D D D D D D D D D A N d # . $ % , e w 7 ",
"y g r * * & . % c ~ G D D D D U Y R R E E E E E R Y v $._ ! R z , = w A D D D D D D D D D D D D A M z d # . $ % ; e e 7 ",
"u g r * * % X % g K D D D D D D D D D D G G D D D S c $._ ! R z , = w A D D D D D D D D D D D A M z l y # X $ % - e w 8 ",
"t g y = * & X # f v S D D D D D D D D D D D D D D S c $._ ! R z , = w A D D D D D D D D D S B z z z l e + X $ % - e e 6 ",
"5 d d - * & o + d h B D D D D D D D D D D D D D D S c $._ ! R z , = w A D D D D D D D D A N z z z z g 7 O o $ % - e w 5 ",
"4 r y ; * * + o r g l A D D D D D D D D D D D D D S c $._ ! R l , = w A D D D D D D S B M z z z z z d 4 X O % % ; e e 4 ",
"> w e ; & * #   4 g f M D D D D D D D D D D D D D S c $._ ! Y l , = w A D D D D D C M z z z z z z h r ;   @ % % , e w > ",
"r.8 e , % & $   & f f g C D D D D D D D D D D D D S c $._ ! Y l , = w A D D D A N z z z z z z z l d e $ . # % % 4 r 8 r.",
"r.9 r 4 % % % o + d f f h A D D D D D D D D D D D S c $._ ! U l , = w A D A N z z z z z z z z z f r 7 O o $ % & 7 r 9 r.",
"r.4 e q * % % + . 4 g f f h A D D D D D D D D D D S c $._ ! U h , = w N M z z z z z z z z z z h r e ;   + % % * w e 4 r.",
"r.r.w e ; % % # . # y d f f h A D D D D D D D D D S c $._ ! U h , = 7 h z z z z z z z z z z h y e q @ . # % % : e q r.r.",
"r.r.6 r 7 % % % O . : r r y d g B D D D D D D D D S c $.) ! G h , = 7 h z z z z z z z z z g r e r ; . O % % % 7 r 6 r.r.",
"r.r.3 e w = % % # . + 0 e e e r y h N C C C C C B N a @.) ! D h , = 7 h z z z z z z z l d r e e 7 + . # % % - w e 2 r.r.",
"r.r.r.8 r 4 % % % +   & e e e e e e y f l z z z z l a @.( ! A h , = 7 h z z z z z l f y e e e e &   + % % % 4 r 8 r.r.r.",
"r.r.r.4 e q * % % $ o X , r e e e e e e y f h l z l a @.! ! C h , = 7 h z z l h f y e e e e r : X o $ % % = w e 4 r.r.r.",
"r.r.r.r.8 r 4 % % % # . O 4 r e e e e e e e r y d f a o.! W N h , = 7 g g d y r e e e e e r 4 O . # % % % 4 r 8 r.r.r.r.",
"r.r.r.r.2 w w - % % % @   + 4 r e e e e e e e e e w p o.! R z h , = 4 q e e e e e e e e r 4 +   @ % % % - w w > r.r.r.r.",
"r.r.r.r.r.5 e 7 & % % % +   + 4 r e e e e e e e e w p [ ! U h h : = 4 0 e e e e e e e r 4 +   + % % % & 7 e 5 r.r.r.r.r.",
"r.r.r.r.r.r.8 e , % % % % +   O : e e e e e e e e 0 p ` R M h f $ = 4 q e e e e e e e : O   + % % % % , e 8 r.r.r.r.r.r.",
"r.r.r.r.r.r.> q w - % % % % @ . X & 7 r e e e e e w w Y B h h 4 + : 4 0 e e e e r 7 & X . @ % % % % - w q > r.r.r.r.r.r.",
"r.r.r.r.r.r.r.3 w 0 = % % % % # o   + ; q r e e e e , 7 4 4 4 - - , ; q e e r 0 ; +   o # % % % % * 0 w 3 r.r.r.r.r.r.r.",
"r.r.r.r.r.r.r.r.4 w 0 = % % % % $ + . . + - 7 e r r q 7 7 7 7 7 0 7 q r e 7 - + . X + $ % % % % & 7 w 4 r.r.r.r.r.r.r.r.",
"r.r.r.r.r.r.r.r.r.4 w 0 - % % % % % # O .   o # - 4 7 q w e e w q 7 4 - # o   X + # % % % % % * 7 w 4 r.r.r.r.r.r.r.r.r.",
"r.r.r.r.r.r.r.r.r.r.3 q q ; % % % % % % # + o .   X o + @ # # @ + o X   . o + # % % % % % % = 7 q 2 r.r.r.r.r.r.r.r.r.r.",
"r.r.r.r.r.r.r.r.r.r.r.> 8 e 4 * % % % % % % $ # @ + o X X X X X X o + @ # $ % % % % % % % : q 8 > r.r.r.r.r.r.r.r.r.r.r.",
"r.r.r.r.r.r.r.r.r.r.r.r.r.5 w 0 : & % % % % % % % % % $ $ $ $ $ $ % % % % % % % % % % - 7 w 5 r.r.r.r.r.r.r.r.r.r.r.r.r.",
"r.r.r.r.r.r.r.r.r.r.r.r.r.r.> 8 e 7 : & % % % % % % % % % % % % % % % % % % % % & - 4 w 8 > r.r.r.r.r.r.r.r.r.r.r.r.r.r.",
"r.r.r.r.r.r.r.r.r.r.r.r.r.r.r.r.3 8 e 0 4 - & % % % % % % % % % % % % % % & = , 7 w 8 3 r.r.r.r.r.r.r.r.r.r.r.r.r.r.r.r.",
"r.r.r.r.r.r.r.r.r.r.r.r.r.r.r.r.r.r.> 9 q e q 7 , ; - * * & & * * = ; , 4 7 w q 9 > r.r.r.r.r.r.r.r.r.r.r.r.r.r.r.r.r.r.",
"r.r.r.r.r.r.r.r.r.r.r.r.r.r.r.r.r.r.r.r.r.3 5 8 w e w w q q q q w w w w 8 5 3 r.r.r.r.r.r.r.r.r.r.r.r.r.r.r.r.r.r.r.r.r.",
"r.r.r.r.r.r.r.r.r.r.r.r.r.r.r.r.r.r.r.r.r.r.r.r.r.2 2 5 6 8 8 6 5 2 2 r.r.r.r.r.r.r.r.r.r.r.r.r.r.r.r.r.r.r.r.r.r.r.r.r."
};
