/* XPM */
static char *result[] = {
/* columns rows colors chars-per-pixel */
"60 60 121 2 ",
"   c #A07200",
".  c #A47500",
"X  c #A97A00",
"o  c #AB7D00",
"O  c #AD7F00",
"+  c #AF8100",
"@  c #B08200",
"#  c #B18200",
"$  c #B28300",
"%  c #B38400",
"&  c #B48600",
"*  c #B78800",
"=  c #B88900",
"-  c #BA8B00",
";  c #BB8C00",
":  c #BC8D00",
">  c #BE8F00",
",  c #BF9000",
"<  c #C09100",
"1  c #C19200",
"2  c #C29300",
"3  c #C39500",
"4  c #C69700",
"5  c #C99900",
"6  c #CB9B00",
"7  c #CD9D00",
"8  c #CE9E00",
"9  c #CF9F00",
"0  c #C2A100",
"q  c #C7A000",
"w  c #C9A200",
"e  c #CBA700",
"r  c #D0A000",
"t  c #D0A100",
"y  c #D2A200",
"u  c #D2A300",
"i  c #D5A500",
"p  c #D5A600",
"a  c #D6A600",
"s  c #D6A700",
"d  c #D0AC03",
"f  c #D8A900",
"g  c #D9A900",
"h  c #DAAA00",
"j  c #DAAC00",
"k  c #DCAD00",
"l  c #DDAD00",
"z  c #DFAF00",
"x  c #D2B100",
"c  c #D8B800",
"v  c #DDBC00",
"b  c #DFBB17",
"n  c #E1B100",
"m  c #E1B200",
"M  c #E0B300",
"N  c #E1B300",
"B  c #E2B200",
"V  c #E5B400",
"C  c #E7B802",
"Z  c #E4BF00",
"A  c #E8B800",
"S  c #EABA00",
"D  c #EBBC00",
"F  c #ECBC00",
"G  c #EDBD00",
"H  c #F0BF00",
"J  c #E3BF3F",
"K  c #ECC000",
"L  c #EDC300",
"P  c #EFC700",
"I  c #E9C900",
"U  c #EEC30A",
"Y  c #F3C200",
"T  c #F4C300",
"R  c #F7C602",
"E  c #F3C800",
"W  c #F4C900",
"Q  c #F0CD00",
"!  c #FAC900",
"~  c #F8CE00",
"^  c #FECC00",
"/  c #FFCE00",
"(  c #EFD202",
")  c #FFD101",
"_  c #FFD400",
"`  c #F8D800",
"'  c #FDDB01",
"]  c #FFDA00",
"[  c #FFDF00",
"{  c #EDC217",
"}  c #ECE300",
"|  c #FAE700",
" . c #FFE700",
".. c #FFEE00",
"X. c #FEF300",
"o. c #FFF901",
"O. c #FFFF01",
"+. c #FFF40C",
"@. c #FFE715",
"#. c #F3D722",
"$. c #FEEE27",
"%. c #FFFE28",
"&. c #FBDA44",
"*. c #E1C75E",
"=. c #FCE544",
"-. c #FFEA4B",
";. c #F8ED57",
":. c #FFF954",
">. c #EEDF6E",
",. c #EEE66F",
"<. c #FFEC75",
"1. c #FFFF72",
"2. c #FFFA89",
"3. c #FCEF94",
"4. c #E8D8A6",
"5. c #FFFFA6",
"6. c #FFF9B4",
"7. c #F3EBC7",
"8. c #FFF9D2",
"9. c #FFFFF9",
"0. c None",
/* pixels */
"0.0.0.0.0.0.0.0.0.0.0.0.0.0.0.0.0.0.0.0.0.0.0.0.f h h h h h h h h N Q P n 0.0.0.0.0.0.0.0.0.0.0.0.0.0.0.0.0.0.0.0.0.0.0.",
"0.0.0.0.0.0.0.0.0.0.0.0.0.0.0.0.0.0.0.0.0.0.a N V V V V V V V M L ' [ ] ! z 0.0.0.0.0.0.0.0.0.0.0.0.0.0.0.0.0.0.0.0.0.0.",
"0.0.0.0.0.0.0.0.0.0.0.0.0.0.0.0.0.0.0.0.0.0.T ! ! ! ! ! ! ! R L ' [ [ ] / ! a 0.0.0.0.0.0.0.0.0.0.0.0.0.0.0.0.0.0.0.0.0.",
"0.0.0.0.0.0.0.0.0.0.0.0.0.0.0.0.0.0.0.0.0.W / / / / / / / / E ` @.:.o.X.] / Y 0.0.0.0.0.0.0.0.0.0.0.0.0.0.0.0.0.0.0.0.0.",
"0.0.0.0.0.0.0.0.0.0.0.0.0.0.0.0.0.0.0.0.n ^ / / / / / / / ! Q  .2.1.X.....] ^ z 0.0.0.0.0.0.0.0.0.0.0.0.0.0.0.0.0.0.0.0.",
"0.0.0.0.0.0.0.0.0.0.0.0.0.0.0.0.0.0.0.0.W _ ) ) _ _ _ _ _ E ` :.6.@.` ` _ ] ) A 0.0.0.0.0.0.0.0.0.0.0.0.0.0.0.0.0.0.0.0.",
"0.0.0.0.0.0.0.0.0.0.0.0.0.0.0.0.0.0.0.0.X.o.o.o.o.o.o.o.X.( @.6.=.v w e M ^ ) H a 0.0.0.0.0.0.0.0.0.0.0.0.0.0.0.0.0.0.0.",
"0.0.0.0.0.0.0.0.0.0.0.0.0.0.0.0.0.0.0.,.1.1.1.1.1.1.1.1.;.( $.=.c 0 x d & i / T h 0.0.0.0.0.0.0.0.0.0.0.0.0.0.0.0.0.0.0.",
"0.0.0.0.0.0.0.0.0.0.0.0.0.0.0.0.0.0.0.3.5.5.5.5.5.5.5.5.>.` ..I e I  . .c O S R N 0.0.0.0.0.0.0.0.0.0.0.0.0.0.0.0.0.0.0.",
"0.0.0.0.0.0.0.0.0.0.0.0.0.0.0.0.0.0.0.o.O.O.O.O.O.O.O.O.( | [ d I +.O.O. .9 1 H S 0.0.0.0.0.0.0.0.0.0.0.0.0.0.0.0.0.0.0.",
"0.0.0.0.0.0.0.0.0.0.0.0.0.0.0.0.0.0.} O.O.O.O.O.O.O.O.X.I  .I x $.1.o. ._ R = y D p 0.0.0.0.0.0.0.0.0.0.0.0.0.0.0.0.0.0.",
"0.0.0.0.0.0.0.0.0.0.0.0.0.0.0.0.0.0.W [ [ [ [ [ [ [ [ Q I  .c ( 5.:.| Z L / s - V k 0.0.0.0.0.0.0.0.0.0.0.0.0.0.0.0.0.0.",
"0.0.0.0.0.0.0.0.0.0.0.0.0.0.0.0.0.0.R / / / / / / / / C Q ` x ;.5.+.I 0 j / H = g N 0.0.0.0.0.0.0.0.0.0.0.0.0.0.0.0.0.0.",
"0.0.0.0.0.0.0.0.0.0.0.0.0.0.0.0.0.0.^ / / / / / / / ^ B ( I b 2.%. .v q i / ^ 4 6 m 0.0.0.0.0.0.0.0.0.0.0.0.0.0.0.0.0.0.",
"0.0.0.0.0.0.0.0.0.0.0.0.0.0.0.0.0.z H H H H H H H H F l ( v #.%.X.' c 7 y / / s > l 8 0.0.0.0.0.0.0.0.0.0.0.0.0.0.0.0.0.",
"0.0.0.0.0.0.0.0.0.0.0.0.0.0.0.0.0.p B B B B B B B B l j E c | O. .#.b t y / / V - g p 0.0.0.0.0.0.0.0.0.0.0.0.0.0.0.0.0.",
"0.0.0.0.0.0.0.0.0.0.0.0.0.0.0.0.0.f B B B B B B B B g z D c o.X.[ 3.&.9 y / / F - y r 0.0.0.0.0.0.0.0.0.0.0.0.0.0.0.0.0.",
"0.0.0.0.0.0.0.0.0.0.0.0.0.0.0.0.0.l B B B B B B B B g m j v O.@.<.9.8.*.b / ^ H > 5 r 0.0.0.0.0.0.0.0.0.0.0.0.0.0.0.0.0.",
"0.0.0.0.0.0.0.0.0.0.0.0.0.0.0.0.0.N B B B B B B B B s M 9 I o.-.8.9.9.4.J ) ^ H 4 1 y 0.0.0.0.0.0.0.0.0.0.0.0.0.0.0.0.0.",
"0.0.0.0.0.0.0.0.0.0.0.0.0.0.0.0.0.z B B B B B B B B y l 4 ( X.[ #.7.3.t y / ^ H t - y 0.0.0.0.0.0.0.0.0.0.0.0.0.0.0.0.0.",
"0.0.0.0.0.0.0.0.0.0.0.0.0.0.0.0.8 m B B B B B B B m t s 3 |  .[ Z *.&.9 y / ! G g & t = 0.0.0.0.0.0.0.0.0.0.0.0.0.0.0.0.",
"0.0.0.0.0.0.0.0.0.0.0.0.0.0.0.0.u B B B B B B B B z 9 t 4 ..] _ c d R t y / R G z & 7 ; 0.0.0.0.0.0.0.0.0.0.0.0.0.0.0.0.",
"0.0.0.0.0.0.0.0.0.0.0.0.0.0.0.0.p B B B B B B B B z 7 5 q X._ ! d 1 G t y / T F V & 5 , 0.0.0.0.0.0.0.0.0.0.0.0.0.0.0.0.",
"0.0.0.0.0.0.0.0.0.0.0.0.0.0.0.0.h B B B B B B B B l 7 1 e ..) G e & K t y ^ H F C * 3 > 0.0.0.0.0.0.0.0.0.0.0.0.0.0.0.0.",
"0.0.0.0.0.0.0.0.0.0.0.0.0.0.0.0.f B B B B B B B B l 6 : x  ./ M w * L t y ! F F S - > 1 0.0.0.0.0.0.0.0.0.0.0.0.0.0.0.0.",
"0.0.0.0.0.0.0.0.0.0.0.0.0.0.0.0.k B B B B B B B B l 6 = c  ./ j 7 t U t y T F F D : - < 0.0.0.0.0.0.0.0.0.0.0.0.0.0.0.0.",
"0.0.0.0.0.0.0.0.0.0.0.0.0.0.0.0.h B B B B B B B B j 6 * c [ / ^ ^ C { t 9 H F F F > = 1 0.0.0.0.0.0.0.0.0.0.0.0.0.0.0.0.",
"0.0.0.0.0.0.0.0.0.0.0.0.0.0.0.0.4 7 7 7 7 7 7 7 7 5 5 & c ] / / / C U t 5 G F F F 1 * 2 0.0.0.0.0.0.0.0.0.0.0.0.0.0.0.0.",
"0.0.0.0.0.0.0.0.0.0.0.0.0.0.0.0.: 1 < < < < < < 1 > 4 $ x ~ / / / C L t 5 G F F F 1 & 2 0.0.0.0.0.0.0.0.0.0.0.0.0.0.0.0.",
"0.0.0.0.0.0.0.0.0.0.0.0.0.0.0.0.: 1 1 1 1 1 1 1 1 < 4 $ d L ^ / / C L t 5 G F F S > & 2 0.0.0.0.0.0.0.0.0.0.0.0.0.0.0.0.",
"0.0.0.0.0.0.0.0.0.0.0.0.0.0.0.0.: 1 1 1 1 1 1 1 1 < 4 # e K H ! ^ M L t 5 G F F V : & 2 0.0.0.0.0.0.0.0.0.0.0.0.0.0.0.0.",
"0.0.0.0.0.0.0.0.0.0.0.0.0.0.0.0.: 1 1 1 1 1 1 1 1 < 4 # w K F G G j L t 5 G F F m - $ 2 0.0.0.0.0.0.0.0.0.0.0.0.0.0.0.0.",
"0.0.0.0.0.0.0.0.0.0.0.0.0.0.0.0.> 1 1 1 1 1 1 1 1 < 4 # 5 D F F G j L t 5 G F S l - $ 2 0.0.0.0.0.0.0.0.0.0.0.0.0.0.0.0.",
"0.0.0.0.0.0.0.0.0.0.0.0.0.0.0.0.> 1 1 1 1 1 1 1 1 > 4 $ 3 S F F G j L 9 5 G F V j * & 1 0.0.0.0.0.0.0.0.0.0.0.0.0.0.0.0.",
"0.0.0.0.0.0.0.0.0.0.0.0.0.0.0.0.1 1 1 1 1 1 1 1 1 > 1 $ < C F F G j L 9 5 G S z g & & < 0.0.0.0.0.0.0.0.0.0.0.0.0.0.0.0.",
"0.0.0.0.0.0.0.0.0.0.0.0.0.0.0.0.< 1 1 1 1 1 1 1 1 > < & : B F F G j L 9 5 G V l g $ * 1 0.0.0.0.0.0.0.0.0.0.0.0.0.0.0.0.",
"0.0.0.0.0.0.0.0.0.0.0.0.0.0.0.0.; 1 1 1 1 1 1 1 1 > < & = z F F G j L 7 5 S z l i + * > 0.0.0.0.0.0.0.0.0.0.0.0.0.0.0.0.",
"0.0.0.0.0.0.0.0.0.0.0.0.0.0.0.0.> 1 1 1 1 1 1 1 1 < < & & g D F G j L 7 5 B l l t O = , 0.0.0.0.0.0.0.0.0.0.0.0.0.0.0.0.",
"0.0.0.0.0.0.0.0.0.0.0.0.0.0.0.0.% 1 1 1 1 1 1 1 1 < < * # i C F G j L 7 3 l l l 6 o - ; 0.0.0.0.0.0.0.0.0.0.0.0.0.0.0.0.",
"0.0.0.0.0.0.0.0.0.0.0.0.0.0.0.0.= < 1 1 1 1 1 1 1 < > = O 7 B F G j L 7 1 l l j 3 o : = 0.0.0.0.0.0.0.0.0.0.0.0.0.0.0.0.",
"0.0.0.0.0.0.0.0.0.0.0.0.0.0.0.0.0.< 1 1 1 1 1 1 1 1 > - o 3 g D G j K 7 1 l l s > o > 0.0.0.0.0.0.0.0.0.0.0.0.0.0.0.0.0.",
"0.0.0.0.0.0.0.0.0.0.0.0.0.0.0.0.0.& * * * * * * * * = : o > 7 z C s K 6 1 l l t = O > 0.0.0.0.0.0.0.0.0.0.0.0.0.0.0.0.0.",
"0.0.0.0.0.0.0.0.0.0.0.0.0.0.0.0.0.@ @ @ @ @ @ @ @ + & > O * 6 t l t K 6 1 l s 6 $ @ 1 0.0.0.0.0.0.0.0.0.0.0.0.0.0.0.0.0.",
"0.0.0.0.0.0.0.0.0.0.0.0.0.0.0.0.0.o @ @ @ @ @ @ @ @ # > @ # 6 6 s t D 6 1 j 7 4 O & 1 0.0.0.0.0.0.0.0.0.0.0.0.0.0.0.0.0.",
"0.0.0.0.0.0.0.0.0.0.0.0.0.0.0.0.0.X @ @ @ @ @ @ @ @ @ > $ o 4 6 7 5 D 6 > 9 6 1 o * , 0.0.0.0.0.0.0.0.0.0.0.0.0.0.0.0.0.",
"0.0.0.0.0.0.0.0.0.0.0.0.0.0.0.0.0.; @ @ @ @ @ @ @ @ + : * X < 6 6 3 C 5 = 6 6 - o - ; 0.0.0.0.0.0.0.0.0.0.0.0.0.0.0.0.0.",
"0.0.0.0.0.0.0.0.0.0.0.0.0.0.0.0.0.0.@ @ @ @ @ @ @ @ + = - o * 6 6 3 V 5 = 6 5 @ O : 0.0.0.0.0.0.0.0.0.0.0.0.0.0.0.0.0.0.",
"0.0.0.0.0.0.0.0.0.0.0.0.0.0.0.0.0.0.+ @ @ @ @ @ @ @ @ & : + o 4 6 3 z 1 * 6 3 X # > 0.0.0.0.0.0.0.0.0.0.0.0.0.0.0.0.0.0.",
"0.0.0.0.0.0.0.0.0.0.0.0.0.0.0.0.0.0.o @ @ @ @ @ @ @ @ $ > $ X > 6 1 i - = 6 * X & < 0.0.0.0.0.0.0.0.0.0.0.0.0.0.0.0.0.0.",
"0.0.0.0.0.0.0.0.0.0.0.0.0.0.0.0.0.0.% @ @ @ @ @ @ @ @ @ : & o O 5 < > - : 4 X O * , 0.0.0.0.0.0.0.0.0.0.0.0.0.0.0.0.0.0.",
"0.0.0.0.0.0.0.0.0.0.0.0.0.0.0.0.0.0.0.@ @ @ @ @ @ @ @ + - = @ . - 5 4 4 5 & X # - 0.0.0.0.0.0.0.0.0.0.0.0.0.0.0.0.0.0.0.",
"0.0.0.0.0.0.0.0.0.0.0.0.0.0.0.0.0.0.0.@ @ @ @ @ @ @ @ @ & > $ o . : 5 5 * . O $ > 0.0.0.0.0.0.0.0.0.0.0.0.0.0.0.0.0.0.0.",
"0.0.0.0.0.0.0.0.0.0.0.0.0.0.0.0.0.0.0.X @ @ @ @ @ @ @ @ @ > & # X . o X . o $ * > 0.0.0.0.0.0.0.0.0.0.0.0.0.0.0.0.0.0.0.",
"0.0.0.0.0.0.0.0.0.0.0.0.0.0.0.0.0.0.0.0.+ @ @ @ @ @ @ @ + - - $ # X . . o $ $ - = 0.0.0.0.0.0.0.0.0.0.0.0.0.0.0.0.0.0.0.",
"0.0.0.0.0.0.0.0.0.0.0.0.0.0.0.0.0.0.0.0.o @ @ @ @ @ @ @ @ & 1 & $ $ # # $ $ & 1 0.0.0.0.0.0.0.0.0.0.0.0.0.0.0.0.0.0.0.0.",
"0.0.0.0.0.0.0.0.0.0.0.0.0.0.0.0.0.0.0.0.= o o o o o o o o o - : $ $ $ $ $ $ : ; 0.0.0.0.0.0.0.0.0.0.0.0.0.0.0.0.0.0.0.0.",
"0.0.0.0.0.0.0.0.0.0.0.0.0.0.0.0.0.0.0.0.0.o                 X 3 - $ $ $ $ - 1 0.0.0.0.0.0.0.0.0.0.0.0.0.0.0.0.0.0.0.0.0.",
"0.0.0.0.0.0.0.0.0.0.0.0.0.0.0.0.0.0.0.0.0.0.                  $ 4 : * * > 4 0.0.0.0.0.0.0.0.0.0.0.0.0.0.0.0.0.0.0.0.0.0.",
"0.0.0.0.0.0.0.0.0.0.0.0.0.0.0.0.0.0.0.0.0.0.0.                  * 5 5 5 5 ; 0.0.0.0.0.0.0.0.0.0.0.0.0.0.0.0.0.0.0.0.0.0.",
"0.0.0.0.0.0.0.0.0.0.0.0.0.0.0.0.0.0.0.0.0.0.0.0.X                 @ 2 < = 0.0.0.0.0.0.0.0.0.0.0.0.0.0.0.0.0.0.0.0.0.0.0."
};
