/* XPM */
static char *result[] = {
/* columns rows colors chars-per-pixel */
"60 60 122 2 ",
"   c #A07200",
".  c #A37500",
"X  c #A97A00",
"o  c #AB7D00",
"O  c #AD7F00",
"+  c #AE7F00",
"@  c #AE8000",
"#  c #AF8100",
"$  c #B08200",
"%  c #B18200",
"&  c #B28300",
"*  c #B48500",
"=  c #B68700",
"-  c #B78800",
";  c #B88A00",
":  c #B98A00",
">  c #BC8D00",
",  c #BD8E00",
"<  c #BE8F00",
"1  c #BF9000",
"2  c #C09100",
"3  c #C19200",
"4  c #C29300",
"5  c #C39500",
"6  c #C69600",
"7  c #C79700",
"8  c #C79800",
"9  c #C89900",
"0  c #C99A00",
"q  c #CB9B00",
"w  c #CD9D00",
"e  c #CF9F00",
"r  c #C4A000",
"t  c #C9A300",
"y  c #CFA000",
"u  c #C9A700",
"i  c #D1A200",
"p  c #D4A400",
"a  c #D5A600",
"s  c #D6A600",
"d  c #D7A800",
"f  c #D0AE00",
"g  c #D9A800",
"h  c #DAAA00",
"j  c #DAAB00",
"k  c #DBAC00",
"l  c #DDAD00",
"z  c #DEAF00",
"x  c #D7B300",
"c  c #DAB703",
"v  c #DEB900",
"b  c #DDBB02",
"n  c #E0B000",
"m  c #E0B100",
"M  c #E1B100",
"N  c #E2B200",
"B  c #E5B500",
"V  c #E1BB00",
"C  c #E2BE00",
"Z  c #E8B800",
"A  c #E8BB01",
"S  c #ECBC00",
"D  c #EEBD00",
"F  c #DEBB20",
"G  c #E4C200",
"H  c #E6C700",
"J  c #EAC000",
"K  c #E9C600",
"L  c #EAC700",
"P  c #EEC400",
"I  c #EDC801",
"U  c #F1C000",
"Y  c #F3C700",
"T  c #F5C500",
"R  c #F4C700",
"E  c #F0CF00",
"W  c #F2CF00",
"Q  c #FAC900",
"!  c #FDCC00",
"~  c #FFCE00",
"^  c #FFCF00",
"/  c #EEDA00",
"(  c #F3D000",
")  c #F1D200",
"_  c #F5D000",
"`  c #F6D400",
"'  c #FFD300",
"]  c #F9D600",
"[  c #FFD600",
"{  c #FEDA00",
"}  c #FFDF00",
"|  c #E9C412",
" . c #FBCF1B",
".. c #EBE100",
"X. c #F6E200",
"o. c #FEE202",
"O. c #FFE801",
"+. c #FEEE00",
"@. c #FAF400",
"#. c #FFF500",
"$. c #FFF800",
"%. c #FEFC01",
"&. c #FFFF01",
"*. c #FFEE11",
"=. c #FAE41E",
"-. c #FFFB11",
";. c #F2CA30",
":. c #FBE334",
">. c #FFFA38",
",. c #FBEC56",
"<. c #FFF750",
"1. c #ECDA72",
"2. c #EDE56E",
"3. c #FFF969",
"4. c #FFFF72",
"5. c #FFFF7B",
"6. c #FFF989",
"7. c #F6F290",
"8. c #FFFAA2",
"9. c #FFFFA8",
"0. c #FFFBC1",
"q. c None",
/* pixels */
"q.q.q.q.q.q.q.q.q.q.q.q.q.q.q.q.q.q.q.q.q.q.q.V W R h h h h h h h h h g q.q.q.q.q.q.q.q.q.q.q.q.q.q.q.q.q.q.q.q.q.q.q.q.",
"q.q.q.q.q.q.q.q.q.q.q.q.q.q.q.q.q.q.q.q.q.q.K { } { ! Z n B B B B B N B z q.q.q.q.q.q.q.q.q.q.q.q.q.q.q.q.q.q.q.q.q.q.q.",
"q.q.q.q.q.q.q.q.q.q.q.q.q.q.q.q.q.q.q.q.q.V { } o.} ^ ! Z T Q Q Q Q Q Q Q R q.q.q.q.q.q.q.q.q.q.q.q.q.q.q.q.q.q.q.q.q.q.",
"q.q.q.q.q.q.q.q.q.q.q.q.q.q.q.q.q.q.q.q.q.` O.<.-.#.} ^ T U ^ ~ ~ ~ ~ ~ ~ ~ P q.q.q.q.q.q.q.q.q.q.q.q.q.q.q.q.q.q.q.q.q.",
"q.q.q.q.q.q.q.q.q.q.q.q.q.q.q.q.q.q.q.q.L } 3.6.#.+.+.{ ! A Q ~ ~ ~ ~ ~ ~ ~ ! V q.q.q.q.q.q.q.q.q.q.q.q.q.q.q.q.q.q.q.q.",
"q.q.q.q.q.q.q.q.q.q.q.q.q.q.q.q.q.q.q.q.` >.0.:.] ] [ { ' D D ' ' ' ' ' ' ' ' Y q.q.q.q.q.q.q.q.q.q.q.q.q.q.q.q.q.q.q.q.",
"q.q.q.q.q.q.q.q.q.q.q.q.q.q.q.q.q.q.q.V o.8.,.G u u x Q ' U G #.$.$.$.$.$.$.$.@.q.q.q.q.q.q.q.q.q.q.q.q.q.q.q.q.q.q.q.q.",
"q.q.q.q.q.q.q.q.q.q.q.q.q.q.q.q.q.q.q.P *.,.b r f f - 0 ! T A ,.4.4.4.4.4.4.4.4.2.q.q.q.q.q.q.q.q.q.q.q.q.q.q.q.q.q.q.q.",
"q.q.q.q.q.q.q.q.q.q.q.q.q.q.q.q.q.q.q.) +.E u H o.O.G + M Q Z 1.9.9.9.9.9.9.9.9.7.q.q.q.q.q.q.q.q.q.q.q.q.q.q.q.q.q.q.q.",
"q.q.q.q.q.q.q.q.q.q.q.q.q.q.q.q.q.q.V X.O.x b *.&.&.+.j : D S H %.&.&.&.&.&.&.&.%.q.q.q.q.q.q.q.q.q.q.q.q.q.q.q.q.q.q.q.",
"q.q.q.q.q.q.q.q.q.q.q.q.q.q.q.q.q.q.v O.E f =.5.-.+.[ Q 1 q Z A @.&.&.&.&.&.&.&.&...q.q.q.q.q.q.q.q.q.q.q.q.q.q.q.q.q.q.",
"q.q.q.q.q.q.q.q.q.q.q.q.q.q.q.q.q.q.C O.b H 6.4.+.G J ^ M - n B E } } } } } } } } ( q.q.q.q.q.q.q.q.q.q.q.q.q.q.q.q.q.q.",
"q.q.q.q.q.q.q.q.q.q.q.q.q.q.q.q.q.q.G X.x :.9.-.E r s ~ Q > i B Z ~ ~ ~ ~ ~ ~ ~ ~ R q.q.q.q.q.q.q.q.q.q.q.q.q.q.q.q.q.q.",
"q.q.q.q.q.q.q.q.q.q.q.q.q.q.q.q.q.q.I E b 6.>.O.G t y ~ ^ y 5 M M ~ ~ ~ ~ ~ ~ ~ ~ ! q.q.q.q.q.q.q.q.q.q.q.q.q.q.q.q.q.q.",
"q.q.q.q.q.q.q.q.q.q.q.q.q.q.q.q.q.p E G | >.#.} b i w ~ ^ N > l j S U U U U U U U D p q.q.q.q.q.q.q.q.q.q.q.q.q.q.q.q.q.",
"q.q.q.q.q.q.q.q.q.q.q.q.q.q.q.q.q.a I c X.&.O.] b d w ~ ^ D : s p l N N N N N N N N a q.q.q.q.q.q.q.q.q.q.q.q.q.q.q.q.q.",
"q.q.q.q.q.q.q.q.q.q.q.q.q.q.q.q.q.g D x +.$.} I | d w ~ ~ U 1 w p j N N N N N N N N g q.q.q.q.q.q.q.q.q.q.q.q.q.q.q.q.q.",
"q.q.q.q.q.q.q.q.q.q.q.q.q.q.q.q.q.k N f $.+.} F ;.d w ~ ~ T 6 5 p d N N N N N N N N k q.q.q.q.q.q.q.q.q.q.q.q.q.q.q.q.q.",
"q.q.q.q.q.q.q.q.q.q.q.q.q.q.q.q.q.z s c %.o.{ F  .s w ^ ! U y > p p N N N N N N N N z q.q.q.q.q.q.q.q.q.q.q.q.q.q.q.q.q.",
"q.q.q.q.q.q.q.q.q.q.q.q.q.q.q.q.q.j q H $.} _ c ~ d w ^ ! U d = i i N N N N N N N N m q.q.q.q.q.q.q.q.q.q.q.q.q.q.q.q.q.",
"q.q.q.q.q.q.q.q.q.q.q.q.q.q.q.q.2 s 5 / +.} H x Q d w ^ Q D n * y w M N N N N N N N M e q.q.q.q.q.q.q.q.q.q.q.q.q.q.q.q.",
"q.q.q.q.q.q.q.q.q.q.q.q.q.q.q.q.< i 3 X.} ' b i U d w ^ Q D B = 0 w m N N N N N N N M p q.q.q.q.q.q.q.q.q.q.q.q.q.q.q.q.",
"q.q.q.q.q.q.q.q.q.q.q.q.q.q.q.q.7 q 5 +.[ Q f 4 Z d w ^ T S Z : 5 q n N N N N N N N N a q.q.q.q.q.q.q.q.q.q.q.q.q.q.q.q.",
"q.q.q.q.q.q.q.q.q.q.q.q.q.q.q.q.7 5 9 +.' U u * A d w ~ U S S > 1 0 l N N N N N N N N a q.q.q.q.q.q.q.q.q.q.q.q.q.q.q.q.",
"q.q.q.q.q.q.q.q.q.q.q.q.q.q.q.q.2 2 t +.^ B t = J d w ! D S S 3 : 0 l N N N N N N N N g q.q.q.q.q.q.q.q.q.q.q.q.q.q.q.q.",
"q.q.q.q.q.q.q.q.q.q.q.q.q.q.q.q.6 > u O.~ n w y J d w T S S D 6 = 9 l N N N N N N N N g q.q.q.q.q.q.q.q.q.q.q.q.q.q.q.q.",
"q.q.q.q.q.q.q.q.q.q.q.q.q.q.q.q.6 > u o.~ ! ! A | d q U S S D 9 * 9 j N N N N N N N N k q.q.q.q.q.q.q.q.q.q.q.q.q.q.q.q.",
"q.q.q.q.q.q.q.q.q.q.q.q.q.q.q.q.8 - u { ~ ~ ^ A | d 6 D S S D q & 6 9 w w w w w w w q 8 q.q.q.q.q.q.q.q.q.q.q.q.q.q.q.q.",
"q.q.q.q.q.q.q.q.q.q.q.q.q.q.q.q.8 = t _ ~ ~ ^ A J d 6 S S S D q % 5 1 3 2 2 2 2 2 2 3 < q.q.q.q.q.q.q.q.q.q.q.q.q.q.q.q.",
"q.q.q.q.q.q.q.q.q.q.q.q.q.q.q.q.8 * r I Q ~ ^ A J d 6 S S S S 6 $ 5 1 3 3 3 3 3 3 3 3 < q.q.q.q.q.q.q.q.q.q.q.q.q.q.q.q.",
"q.q.q.q.q.q.q.q.q.q.q.q.q.q.q.q.8 * r J D Q ! B J s 6 S S S Z 5 $ 4 1 3 3 3 3 3 3 3 3 < q.q.q.q.q.q.q.q.q.q.q.q.q.q.q.q.",
"q.q.q.q.q.q.q.q.q.q.q.q.q.q.q.q.8 * 5 J S S D l J s 6 S S S B 4 $ 4 1 3 3 3 3 3 3 3 3 < q.q.q.q.q.q.q.q.q.q.q.q.q.q.q.q.",
"q.q.q.q.q.q.q.q.q.q.q.q.q.q.q.q.8 * 2 A S S D l J s 6 S S A n 3 $ 3 1 3 3 3 3 3 3 3 3 < q.q.q.q.q.q.q.q.q.q.q.q.q.q.q.q.",
"q.q.q.q.q.q.q.q.q.q.q.q.q.q.q.q.6 = > Z S S D l J s 6 S S B l 1 $ 3 1 3 3 3 3 3 3 3 2 < q.q.q.q.q.q.q.q.q.q.q.q.q.q.q.q.",
"q.q.q.q.q.q.q.q.q.q.q.q.q.q.q.q.2 - : B S S D l J s 6 S S n l > % 3 1 3 3 3 3 3 3 3 3 2 q.q.q.q.q.q.q.q.q.q.q.q.q.q.q.q.",
"q.q.q.q.q.q.q.q.q.q.q.q.q.q.q.q.2 - = n S S D l J p 6 D B l j - & 2 1 3 3 3 3 3 3 3 1 2 q.q.q.q.q.q.q.q.q.q.q.q.q.q.q.q.",
"q.q.q.q.q.q.q.q.q.q.q.q.q.q.q.q.2 - * j S S D l J p 6 S n l d * & 2 1 3 3 3 3 3 3 3 3 , q.q.q.q.q.q.q.q.q.q.q.q.q.q.q.q.",
"q.q.q.q.q.q.q.q.q.q.q.q.q.q.q.q., - $ p Z S D l J p 6 B l l p $ * 2 2 3 3 3 3 3 3 3 2 , q.q.q.q.q.q.q.q.q.q.q.q.q.q.q.q.",
"q.q.q.q.q.q.q.q.q.q.q.q.q.q.q.q.< : + y B S D l J p 3 l l l y + - 2 2 3 3 3 3 3 3 3 3 < q.q.q.q.q.q.q.q.q.q.q.q.q.q.q.q.",
"q.q.q.q.q.q.q.q.q.q.q.q.q.q.q.q.2 > o 0 n S D l J p 1 l l l 0 o : 1 2 3 3 3 3 3 3 3 2 ; q.q.q.q.q.q.q.q.q.q.q.q.q.q.q.q.",
"q.q.q.q.q.q.q.q.q.q.q.q.q.q.q.q.q.> o 1 s A D l J p 1 l l d 4 o > 1 3 3 3 3 3 3 3 3 2 q.q.q.q.q.q.q.q.q.q.q.q.q.q.q.q.q.",
"q.q.q.q.q.q.q.q.q.q.q.q.q.q.q.q.q.< + : w l Z d A p 1 l l i > o > : - - - - - - - - = q.q.q.q.q.q.q.q.q.q.q.q.q.q.q.q.q.",
"q.q.q.q.q.q.q.q.q.q.q.q.q.q.q.q.q.< $ & q y l i A i 1 l d w = + 1 & $ $ $ $ $ $ $ $ # q.q.q.q.q.q.q.q.q.q.q.q.q.q.q.q.q.",
"q.q.q.q.q.q.q.q.q.q.q.q.q.q.q.q.q.2 & + 9 q p i A i 1 j y 0 $ % 1 % $ $ $ $ $ $ $ $ @ q.q.q.q.q.q.q.q.q.q.q.q.q.q.q.q.q.",
"q.q.q.q.q.q.q.q.q.q.q.q.q.q.q.q.q., = o 5 q q 9 Z i > y q 6 o * > $ $ $ $ $ $ $ $ $ O q.q.q.q.q.q.q.q.q.q.q.q.q.q.q.q.q.",
"q.q.q.q.q.q.q.q.q.q.q.q.q.q.q.q.q.< : o > q q 4 B y - q q 1 X - > $ $ $ $ $ $ $ $ $ O q.q.q.q.q.q.q.q.q.q.q.q.q.q.q.q.q.",
"q.q.q.q.q.q.q.q.q.q.q.q.q.q.q.q.q.q.> + % q q 5 N w = q q * o > - $ $ $ $ $ $ $ $ $ q.q.q.q.q.q.q.q.q.q.q.q.q.q.q.q.q.q.",
"q.q.q.q.q.q.q.q.q.q.q.q.q.q.q.q.q.q.< % X 6 q 5 l 9 = q 9 o + > * $ $ $ $ $ $ $ % # q.q.q.q.q.q.q.q.q.q.q.q.q.q.q.q.q.q.",
"q.q.q.q.q.q.q.q.q.q.q.q.q.q.q.q.q.q.2 * X : q 4 p 2 = q > X & 1 % $ $ $ $ $ $ $ $ @ q.q.q.q.q.q.q.q.q.q.q.q.q.q.q.q.q.q.",
"q.q.q.q.q.q.q.q.q.q.q.q.q.q.q.q.q.q., - + o 9 4 > > > 9 + o * > $ $ $ $ $ $ $ $ & O q.q.q.q.q.q.q.q.q.q.q.q.q.q.q.q.q.q.",
"q.q.q.q.q.q.q.q.q.q.q.q.q.q.q.q.q.q.; > % X * 0 6 6 9 : X % : : $ $ $ $ $ $ $ $ $ q.q.q.q.q.q.q.q.q.q.q.q.q.q.q.q.q.q.q.",
"q.q.q.q.q.q.q.q.q.q.q.q.q.q.q.q.q.q.q.< & + . : 9 0 > . o & > * $ $ $ $ $ $ $ $ # q.q.q.q.q.q.q.q.q.q.q.q.q.q.q.q.q.q.q.",
"q.q.q.q.q.q.q.q.q.q.q.q.q.q.q.q.q.q.q.2 - & X . X o . X & * > $ $ $ $ $ $ $ $ $ O q.q.q.q.q.q.q.q.q.q.q.q.q.q.q.q.q.q.q.",
"q.q.q.q.q.q.q.q.q.q.q.q.q.q.q.q.q.q.q.; > & & o . . X % & : : $ $ $ $ $ $ $ $ $ q.q.q.q.q.q.q.q.q.q.q.q.q.q.q.q.q.q.q.q.",
"q.q.q.q.q.q.q.q.q.q.q.q.q.q.q.q.q.q.q.q.6 = & & % % & & & 1 & $ $ $ $ $ $ $ $ @ q.q.q.q.q.q.q.q.q.q.q.q.q.q.q.q.q.q.q.q.",
"q.q.q.q.q.q.q.q.q.q.q.q.q.q.q.q.q.q.q.q.< 1 & & & & & & > : o o o o o o o o X ; q.q.q.q.q.q.q.q.q.q.q.q.q.q.q.q.q.q.q.q.",
"q.q.q.q.q.q.q.q.q.q.q.q.q.q.q.q.q.q.q.q.q.6 > & & & & - 4 X                   q.q.q.q.q.q.q.q.q.q.q.q.q.q.q.q.q.q.q.q.q.",
"q.q.q.q.q.q.q.q.q.q.q.q.q.q.q.q.q.q.q.q.q.; 9 1 - = > 6 &                   q.q.q.q.q.q.q.q.q.q.q.q.q.q.q.q.q.q.q.q.q.q.",
"q.q.q.q.q.q.q.q.q.q.q.q.q.q.q.q.q.q.q.q.q.q.< 9 0 9 9 =                   q.q.q.q.q.q.q.q.q.q.q.q.q.q.q.q.q.q.q.q.q.q.q.",
"q.q.q.q.q.q.q.q.q.q.q.q.q.q.q.q.q.q.q.q.q.q.q.; 2 < #                   q.q.q.q.q.q.q.q.q.q.q.q.q.q.q.q.q.q.q.q.q.q.q.q."
};
