/* XPM */
static char *result[] = {
/* columns rows colors chars-per-pixel */
"60 60 141 2 ",
"   c #A07200",
".  c #A17200",
"X  c #A17300",
"o  c #A47600",
"O  c #A57700",
"+  c #A67800",
"@  c #A77800",
"#  c #A97A00",
"$  c #AB7D00",
"%  c #AE7F00",
"&  c #AE8000",
"*  c #AF8100",
"=  c #B08200",
"-  c #B18200",
";  c #B28300",
":  c #B48600",
">  c #B68700",
",  c #B88900",
"<  c #B98A00",
"1  c #BA8B00",
"2  c #BA8C00",
"3  c #BC8C00",
"4  c #BD8E00",
"5  c #BE8F00",
"6  c #BF8F00",
"7  c #BF9F00",
"8  c #C09100",
"9  c #C19200",
"0  c #C29300",
"q  c #C39300",
"w  c #C39400",
"e  c #C59600",
"r  c #C69700",
"t  c #C79800",
"y  c #C89900",
"u  c #CA9A00",
"i  c #CA9B00",
"p  c #CC9C00",
"a  c #CD9D00",
"s  c #CE9E00",
"d  c #CF9F00",
"f  c #C2A200",
"g  c #C6A600",
"h  c #CFAC00",
"j  c #D0A100",
"k  c #D1A100",
"l  c #D2A300",
"z  c #D5A500",
"x  c #D6A600",
"c  c #D7A600",
"v  c #D9A900",
"b  c #DAAB00",
"n  c #DDAD00",
"m  c #DCAF00",
"M  c #DFAF00",
"N  c #D3B300",
"B  c #DCB200",
"V  c #D9B600",
"C  c #DCBD00",
"Z  c #CDA116",
"A  c #E1B100",
"S  c #E3B200",
"D  c #E5B500",
"F  c #E6B700",
"G  c #E2BA00",
"H  c #E2BE00",
"J  c #E9B900",
"K  c #EBBB01",
"L  c #ECBC00",
"P  c #EDBD00",
"I  c #EEBE00",
"U  c #F0BF00",
"Y  c #DFC400",
"T  c #E4C100",
"R  c #E6C300",
"E  c #E6C502",
"W  c #ECC300",
"Q  c #E9C600",
"!  c #EAC700",
"~  c #EACA00",
"^  c #F1C100",
"/  c #F4C300",
"(  c #F6C500",
")  c #F1CA00",
"_  c #F1CE00",
"`  c #F6CE00",
"'  c #F9C800",
"]  c #FCCC00",
"[  c #FFCE00",
"{  c #FFCF00",
"}  c #EAD500",
"|  c #E9DF00",
" . c #F4D400",
".. c #FFD200",
"X. c #F9D601",
"o. c #FFD400",
"O. c #FFD600",
"+. c #F1DD00",
"@. c #FAD800",
"#. c #FFD800",
"$. c #FEDC00",
"%. c #FFDE00",
"&. c #FFD50E",
"*. c #FBDD1D",
"=. c #FAE000",
"-. c #FFE300",
";. c #FDE702",
":. c #F7EF00",
">. c #FFEB00",
",. c #F7F302",
"<. c #FFF000",
"1. c #FFF400",
"2. c #FFF800",
"3. c #FFFA00",
"4. c #FFFD00",
"5. c #FFFE00",
"6. c yellow",
"7. c #FFE110",
"8. c #FFEF18",
"9. c #FFF913",
"0. c #E4C72C",
"q. c #FCD73B",
"w. c #FFFA2E",
"e. c #FFE53C",
"r. c #E2C346",
"t. c #E5D858",
"y. c #F7E64C",
"u. c #FFFD43",
"i. c #FFFC58",
"p. c #F4DD6A",
"a. c #FFF36D",
"s. c #F0E979",
"d. c #FFFF74",
"f. c #FEF38A",
"g. c #FFFC9B",
"h. c #FAF1A2",
"j. c #FFFFA7",
"k. c #FFFACC",
"l. c #FFFDE3",
"z. c #FEFEFA",
"x. c None",
/* pixels */
"x.x.x.x.x.x.x.x.x.x.x.x.x.x.x.x.x.x.x.x.x.x.G Q ) _ ) A v z c v v v v v x k j x.x.x.x.x.x.x.x.x.x.x.x.x.x.x.x.x.x.x.x.x.",
"x.x.x.x.x.x.x.x.x.x.x.x.x.x.x.x.x.x.x.x.! ` $.%.%.%.%...[ ( F A P ^ ^ / / ( ( ( I x.x.x.x.x.x.x.x.x.x.x.x.x.x.x.x.x.x.x.",
"x.x.x.x.x.x.x.x.x.x.x.x.x.x.x.x.x.x.x.` $.%.%.-.-.%.%.O.[ [ [ ( P ' { [ [ [ [ { [ ) x.x.x.x.x.x.x.x.x.x.x.x.x.x.x.x.x.x.",
"x.x.x.x.x.x.x.x.x.x.x.x.x.x.x.x.x.G X.%.-.8.a.u.3.2.1.>.$.{ [ { ] P ( { [ [ [ [ [ [ ' G x.x.x.x.x.x.x.x.x.x.x.x.x.x.x.x.",
"x.x.x.x.x.x.x.x.x.x.x.x.x.x.x.x.G @.%.>.i.k.g.9.<.<.<.<.>.;.#.[ [ ' D ( [ [ [ [ [ [ [ ' G x.x.x.x.x.x.x.x.x.x.x.x.x.x.x.",
"x.x.x.x.x.x.x.x.x.x.x.x.x.x.x.x.X.%.8.g.l.f.7.$.@. .@.@.o.o.%.O.[ ] L D ] o...........o.] G x.x.x.x.x.x.x.x.x.x.x.x.x.x.",
"x.x.x.x.x.x.x.x.x.x.x.x.x.x.x.) %.8.j.k.y. .H h g f g h b P [ ....[ U J ~ 2.2.2.2.2.2.2.2.:.x.x.x.x.x.x.x.x.x.x.x.x.x.x.",
"x.x.x.x.x.x.x.x.x.x.x.x.x.x.T @.>.w.a.*.H g 7 g h N N g : @ s ( { [ ^ L F y.d.d.d.d.d.d.d.d.s.x.x.x.x.x.x.x.x.x.x.x.x.x.",
"x.x.x.x.x.x.x.x.x.x.x.x.x.G _ -.2.;.@.V 7 h ~ @.-.>.>.;.E 8 o 1 ^ { / L K r.h.j.j.j.j.j.j.j.g.t.x.x.x.x.x.x.x.x.x.x.x.x.",
"x.x.x.x.x.x.x.x.x.x.x.x.x.R @.1.>.@.N f H =.8.9.5.6.5.2.>...n $ : J ^ L L J } 6.6.6.6.6.6.6.6.,.x.x.x.x.x.x.x.x.x.x.x.x.",
"x.x.x.x.x.x.x.x.x.x.x.x.m ~ ;.<.$.V f ~ ;.i.j.w.6.2.>.-.O.[ { J % ; v D L L H <.6.6.6.6.6.6.6.5.| x.x.x.x.x.x.x.x.x.x.x.",
"x.x.x.x.x.x.x.x.x.x.x.x.B  .<.-.E f E ;.f.l.d.4.>._ H H ] [ [ { J $ , c D P D E %.%.%.%.%.%.%.%.X.x.x.x.x.x.x.x.x.x.x.x.",
"x.x.x.x.x.x.x.x.x.x.x.j D =.>. .g C 7.j.l.i.2.;.@.N N g U { [ [ { n @ e v F J v ' [ [ [ [ [ [ [ [ m x.x.x.x.x.x.x.x.x.x.",
"x.x.x.x.x.x.x.x.x.x.x.v F ;.%.V h *.g.j.w.2.-.%.E Y h 9 U { [ [ [ ] q % k b J v K { [ [ [ [ [ [ [ ` x.x.x.x.x.x.x.x.x.x.",
"x.x.x.x.x.x.x.x.x.x.x.M W -._ g ~ w.u.6.2.-.%.@.C  .u 1 U { [ [ [ { F $ 9 c S M c P U U U U U U U K x.x.x.x.x.x.x.x.x.x.",
"x.x.x.x.x.x.x.x.x.x.m A W o.N N -.3.6.3.-.$.7.0.} ] u 3 U { [ [ [ [ ^ q % l b M s n S S S S S S S A z x.x.x.x.x.x.x.x.x.",
"x.x.x.x.x.x.x.x.x.x.v S ( U f ~ 1.6.4.>.%.$.e.h.7.' u 3 U { [ [ [ ] U n # e c b l c S S S S S S S S v x.x.x.x.x.x.x.x.x.",
"x.x.x.x.x.x.x.x.x.x.n A ' p 9 =.4.6.<.%.%.e.k.z.h.q.p 1 U { [ [ [ ] P J > = l z z l S S S S S S S A A x.x.x.x.x.x.x.x.x.",
"x.x.x.x.x.x.x.x.x.0 n A ^ ; z <.6.2.%.%.7.f.z.z.k.p.Z 1 U { [ [ [ ' L L p @ y c z s M S S S S S S S S j x.x.x.x.x.x.x.x.",
"x.x.x.x.x.x.x.x.x.k v S n $ W 3.5.;.%.%.$.H p.l.q.' u 3 U { [ [ [ / L P n # , z z p b S S S S S A S A x x.x.x.x.x.x.x.x.",
"x.x.x.x.x.x.x.x.x.s k S r > =.6.<.#.%.%._ Y E p.{ ' u 3 U { [ [ ] U L L F > $ s z u z S S S S S S S A v x.x.x.x.x.x.x.x.",
"x.x.x.x.x.x.x.x.x.d p n : i 1.5.$.{ o.O.C ~ y K { ' u 3 U { [ [ ' L L L K e @ r l u k S S S S S S A S n x.x.x.x.x.x.x.x.",
"x.x.x.x.x.x.x.x.x.l r l $ B 4.1...[ { U Y V > M { ' u 3 U { [ [ ^ L L L L k @ 4 s u s S S S S S S S A A 5 x.x.x.x.x.x.x.",
"x.x.x.x.x.x.x.x.0 l e r # ~ 6.-.[ [ ] V E q : V ..' u 3 U { [ ' P L L L P n # : u i i M S S S S S S S S j x.x.x.x.x.x.x.",
"x.x.x.x.x.x.x.x.9 k q 6 % +.4.#.[ { K C B 8 s Y o.' u 3 U { ] U L L L L L S % % e i u M S S S S S S S S k x.x.x.x.x.x.x.",
"x.x.x.x.x.x.x.x.t s 9 , : ;.1...[ [ A h k z L 0.&.( u 3 U [ / L L L L L L F : # 6 i y n S S S S S S S S x x.x.x.x.x.x.x.",
"x.x.x.x.x.x.x.x.s p 6 : , ;.>.[ [ [ [ ] ] [ / r.&.( u 3 U ( L L L L L L L J 1 @ 3 i y b S A A A A A A S v x.x.x.x.x.x.x.",
"x.x.x.x.x.x.x.x.a p 3 - 1 +.$.[ [ [ [ [ [ { / r.&.( u 1 F P L L L L L L L K 6 @ , u r r p p p p p p p p w x.x.x.x.x.x.x.",
"x.x.x.x.x.x.x.x.d i 1 % 1 } _ ] [ [ [ [ [ { / Y o.( u , M P L L L L L L L J 4 @ > y r 6 9 8 8 8 8 8 8 9 3 x.x.x.x.x.x.x.",
"x.x.x.x.x.x.x.x.d i , % , } W U ' [ [ [ [ { / Y o.( y , A P L L L L L L L S 3 @ : r r 6 9 9 9 9 9 9 9 9 4 x.x.x.x.x.x.x.",
"x.x.x.x.x.x.x.x.d i > $ > E P L P ^ ' ] ] ] P Y O.( y , A P L L L L L L F n 3 @ : e r 6 9 9 9 9 9 9 9 9 4 x.x.x.x.x.x.x.",
"x.x.x.x.x.x.x.x.d p > $ : H P L L L L P P P S Y O./ y , A P L L L L L J M b 1 @ ; e r 6 9 9 9 9 9 9 9 9 4 x.x.x.x.x.x.x.",
"x.x.x.x.x.x.x.x.a p > % ; B K L L L L L L L S Y O./ y , A P L L L L K S n v > @ ; e e 6 9 9 9 9 9 9 9 9 w x.x.x.x.x.x.x.",
"x.x.x.x.x.x.x.x.w p , % * v J L L L L L L P S Y O./ y , A P L L L K S n n c ; # ; e e 6 9 9 9 9 9 9 9 6 w x.x.x.x.x.x.x.",
"x.x.x.x.x.x.x.x.0 i , = $ l S L L L L L L P S Y O./ y , A P L L L D n n n l % $ : e q 6 9 9 9 9 9 9 9 9 2 x.x.x.x.x.x.x.",
"x.x.x.x.x.x.x.x.9 r , ; # s b K L L L L L P S Y O./ y , A P L L D n n n n p $ $ : r q 8 9 9 9 9 9 9 9 9 < x.x.x.x.x.x.x.",
"x.x.x.x.x.x.x.x.0 y , ; @ y c D L L L L L P S Y O.^ y , A P K D n n n n v r @ % > y 9 8 9 9 9 9 9 9 9 9 = x.x.x.x.x.x.x.",
"x.x.x.x.x.x.x.x.x.y 1 ; @ 9 c n K L L L L P S Y O.^ y , A K S n n n n n l 8 o = , y 6 9 9 9 9 9 9 9 9 8 5 x.x.x.x.x.x.x.",
"x.x.x.x.x.x.x.x.x.u 6 ; # > z c D L L L L P S Y O.^ y , n A n n n n n b s , @ - 1 y 6 9 9 9 9 9 9 9 9 6 x.x.x.x.x.x.x.x.",
"x.x.x.x.x.x.x.x.x.w q ; $ $ s z b J L L L P S Y O.U y , z n n n n n n l u * # ; 6 r 6 9 9 9 9 9 9 9 q 2 x.x.x.x.x.x.x.x.",
"x.x.x.x.x.x.x.x.x.< r : * o 9 s k n K L L P S Y o.P r , z n n n n n c p e @ % ; q e 6 9 9 9 9 9 9 9 9 < x.x.x.x.x.x.x.x.",
"x.x.x.x.x.x.x.x.x.0 y > - @ > i i p b D F D n C o.P r , z n n n n v s i 3 o = : r 6 : > > > > > > > > = x.x.x.x.x.x.x.x.",
"x.x.x.x.x.x.x.x.x.x.y 3 ; $ # r i i p z n n c C o.K r , z n n n v s i u * @ ; , u > * = = = = = = = * x.x.x.x.x.x.x.x.x.",
"x.x.x.x.x.x.x.x.x.x.w q ; = o 3 p i i i k b c C ..J r , z n b z p i i q o % ; 6 r ; = = = = = = = - & x.x.x.x.x.x.x.x.x.",
"x.x.x.x.x.x.x.x.x.x.9 r : ; @ $ y i i i i p p C ..F r , k z s i i i i ; o - ; e 8 * = = = = = = = = + x.x.x.x.x.x.x.x.x.",
"x.x.x.x.x.x.x.x.x.x.x.y 3 ; * o 3 p i i i i e V { S r > e i i i i p 9 o $ ; , y , * = = = = = = = * x.x.x.x.x.x.x.x.x.x.",
"x.x.x.x.x.x.x.x.x.x.x.w q ; ; # # e i i i i e V ] n r > e i i i i y % o - ; 6 e - = = = = = = = = & x.x.x.x.x.x.x.x.x.x.",
"x.x.x.x.x.x.x.x.x.x.x.0 r > ; = o - u i i i e B ^ v 4 > e i i i i > X % ; : r 4 * = = = = = = = = $ x.x.x.x.x.x.x.x.x.x.",
"x.x.x.x.x.x.x.x.x.x.x.x.w 6 ; ; $ X > i i i e l A l : , e i i i 4 o # ; ; 3 r : = = = = = = = = & x.x.x.x.x.x.x.x.x.x.x.",
"x.x.x.x.x.x.x.x.x.x.x.x.= r > ; ; # X , u p r 4 q 6 3 1 e p i 4 o @ - ; ; e 6 * = = = = = = = = = x.x.x.x.x.x.x.x.x.x.x.",
"x.x.x.x.x.x.x.x.x.x.x.x.x.w 8 ; ; - @ X ; e i y r r y y i r > o o = ; ; 1 r : = = = = = = = = & x.x.x.x.x.x.x.x.x.x.x.x.",
"x.x.x.x.x.x.x.x.x.x.x.x.x.5 r , ; ; - # X @ > q r y y e 1 $ X @ = ; ; : e 3 * = = = = = = = = = x.x.x.x.x.x.x.x.x.x.x.x.",
"x.x.x.x.x.x.x.x.x.x.x.x.x.x.0 r : ; ; ; $ o X o # $ # o X o $ - ; ; ; 8 q = = = = = = = = = & x.x.x.x.x.x.x.x.x.x.x.x.x.",
"x.x.x.x.x.x.x.x.x.x.x.x.x.x.x.w q : ; ; ; - $ @ o o o @ $ = ; ; ; ; 3 e : = = = = = = = = = O x.x.x.x.x.x.x.x.x.x.x.x.x.",
"x.x.x.x.x.x.x.x.x.x.x.x.x.x.x.x.u q : ; ; ; ; ; - - - ; ; ; ; ; ; 3 r , * = = = = = = = = < x.x.x.x.x.x.x.x.x.x.x.x.x.x.",
"x.x.x.x.x.x.x.x.x.x.x.x.x.x.x.x.5 u e > ; ; ; ; ; ; ; ; ; ; ; : 6 r , * = = = = = = = * & x.x.x.x.x.x.x.x.x.x.x.x.x.x.x.",
"x.x.x.x.x.x.x.x.x.x.x.x.x.x.x.x.x.x.w y 6 : ; ; ; ; ; ; ; ; 1 e r > % * = = = = = = = * x.x.x.x.x.x.x.x.x.x.x.x.x.x.x.x.",
"x.x.x.x.x.x.x.x.x.x.x.x.x.x.x.x.x.x.x.t u r 9 3 , > > 1 6 e u 8 $ X o o @ @ # $ $ $ $ $ x.x.x.x.x.x.x.x.x.x.x.x.x.x.x.x.",
"x.x.x.x.x.x.x.x.x.x.x.x.x.x.x.x.x.x.x.x.5 w y i u u u u y 9 ; o X X X X X X X X .   x.x.x.x.x.x.x.x.x.x.x.x.x.x.x.x.x.x.",
"x.x.x.x.x.x.x.x.x.x.x.x.x.x.x.x.x.x.x.x.x.x.x.9 w w w 2 & . . . . . .     + = O x.x.x.x.x.x.x.x.x.x.x.x.x.x.x.x.x.x.x.x."
};
