/* XPM */
static char *result[] = {
/* columns rows colors chars-per-pixel */
"60 60 158 2 ",
"   c #A07200",
".  c #A17200",
"X  c #A27400",
"o  c #A37500",
"O  c #A47600",
"+  c #A57700",
"@  c #A87900",
"#  c #A87A00",
"$  c #AA7C00",
"%  c #AC7E00",
"&  c #AD7E00",
"*  c #AD7F00",
"=  c #AE8000",
"-  c #B08100",
";  c #B08200",
":  c #B28300",
">  c #B48600",
",  c #B68700",
"<  c #B78700",
"1  c #B78800",
"2  c #BA8B00",
"3  c #BB8C00",
"4  c #BC8C00",
"5  c #BC8D00",
"6  c #BD8E00",
"7  c #BE8F00",
"8  c #BF8F00",
"9  c #BF9000",
"0  c #BF9E00",
"q  c #BD9217",
"w  c #C09100",
"e  c #C19200",
"r  c #C29300",
"t  c #C39400",
"y  c #C49500",
"u  c #C59600",
"i  c #C69600",
"p  c #C89900",
"a  c #C99900",
"s  c #C99A00",
"d  c #CA9B00",
"f  c #CC9C00",
"g  c #CE9E00",
"h  c #C4A300",
"j  c #CAA200",
"k  c #C8A700",
"l  c #CFAD00",
"z  c #D0A000",
"x  c #D0A100",
"c  c #D0A300",
"v  c #D2A200",
"b  c #D3A300",
"n  c #D4A300",
"m  c #D4A500",
"M  c #D6A500",
"N  c #D7A700",
"B  c #D7AD00",
"V  c #D8A800",
"C  c #D9AA00",
"Z  c #DAAA00",
"A  c #DBAB00",
"S  c #DCAC00",
"D  c #DDAD00",
"F  c #DEAD00",
"G  c #CFB600",
"H  c #D5B300",
"J  c #DAB600",
"K  c #DEBB02",
"L  c #DABF00",
"P  c #D8AD1C",
"I  c #E1B000",
"U  c #E0B300",
"Y  c #E2B200",
"T  c #E3B300",
"R  c #E5B500",
"E  c #E6B500",
"W  c #E7B700",
"Q  c #E2BF00",
"!  c #EAB900",
"~  c #EBBB00",
"^  c #E8BF00",
"/  c #ECBC00",
"(  c #EDBC00",
")  c #EEBE00",
"_  c #C59D2C",
"`  c #C6A13B",
"'  c #E0BA37",
"]  c #DFC113",
"[  c #E4C400",
"{  c #EFC400",
"}  c #E5CF01",
"|  c #EBC800",
" . c #EFCB00",
".. c #F0C000",
"X. c #F4C300",
"o. c #F4C700",
"O. c #F6C600",
"+. c #F8C700",
"@. c #F2CC00",
"#. c #F3CF00",
"$. c #F9C801",
"%. c #FBCA00",
"&. c #FDCC00",
"*. c #FECD00",
"=. c #FFCE00",
"-. c #FFCF00",
";. c #FECF06",
":. c #EDD700",
">. c #E7DB01",
",. c #F6D400",
"<. c #FFD300",
"1. c #FBD800",
"2. c #FFD800",
"3. c #FEDB00",
"4. c #FBDD00",
"5. c #FFDD00",
"6. c #FDDD11",
"7. c #F1E400",
"8. c #FFE000",
"9. c #FBE400",
"0. c #FFE500",
"q. c #F4EB00",
"w. c #FFE900",
"e. c #FFEE01",
"r. c #FFE90B",
"t. c #FFF400",
"y. c #FFF801",
"u. c #FFFC00",
"i. c yellow",
"p. c #FFEC1D",
"a. c #FFFD14",
"s. c #FDD52D",
"d. c #F5DE2C",
"f. c #FFFB22",
"g. c #FFE834",
"h. c #FFFA37",
"j. c #DEBF4E",
"k. c #E1CA5A",
"l. c #FFE446",
"z. c #FDF949",
"x. c #FFFF59",
"c. c #FBDF63",
"v. c #FFEB62",
"b. c #EEE670",
"n. c #F1E37D",
"m. c #FDED78",
"M. c #FFFF72",
"N. c #FFFD86",
"B. c #FDEB91",
"V. c #FDFCA2",
"C. c #FFFFA7",
"Z. c #FEFBB5",
"A. c #F1EAC7",
"S. c #FFF4C0",
"D. c #FFFFC2",
"F. c #FFFDE0",
"G. c #FFFEFB",
"H. c None",
/* pixels */
"H.H.H.H.H.H.H.H.H.H.H.H.H.H.H.H.H.H.H.H.H.H.v m Z V V V V B J Q | #.#.o.E W H.H.H.H.H.H.H.H.H.H.H.H.H.H.H.H.H.H.H.H.H.H.",
"H.H.H.H.H.H.H.H.H.H.H.H.H.H.H.H.H.H.H.V Z Y R R R Y U ^ #.1.5.5.5.5.5.8.<.*.%.o.W H.H.H.H.H.H.H.H.H.H.H.H.H.H.H.H.H.H.H.",
"H.H.H.H.H.H.H.H.H.H.H.H.H.H.H.H.H.( O.$.%.%.%.$.{ { ,.5.5.5.8.8.8.8.8.5.2.=.=.-.=.$.( H.H.H.H.H.H.H.H.H.H.H.H.H.H.H.H.H.",
"H.H.H.H.H.H.H.H.H.H.H.H.H.H.H.I +.=.-.=.=.-.%.{ ,.5.5.8.e.h.N.h.u.u.y.t.e.8.<.=.=.=.=.+.I H.H.H.H.H.H.H.H.H.H.H.H.H.H.H.",
"H.H.H.H.H.H.H.H.H.H.H.H.H.H.( &.=.=.=.=.=.$. .1.5.8.e.z.Z.F.M.y.t.e.e.e.e.e.w.0.2.-.=.-.%.F H.H.H.H.H.H.H.H.H.H.H.H.H.H.",
"H.H.H.H.H.H.H.H.H.H.H.H.H.o.<.<.<.<.<.<.O.| 3.5.0.z.Z.G.Z.g.8.4.1.,.,.1.1.2.<.2.5.3.-.=.*.) E H.H.H.H.H.H.H.H.H.H.H.H.H.",
"H.H.H.H.H.H.H.H.H.H.H.H.q.y.y.y.y.y.y.7.| 1.5.r.N.F.S.v.6. .K l k h h k l H F X.=.<.<.-.=.X./ T H.H.H.H.H.H.H.H.H.H.H.H.",
"H.H.H.H.H.H.H.H.H.H.H.n.M.M.M.M.M.M.z.} ,.5.e.f.m.l.6.[ l 0 0 k l H H l k 0 o * g ..-.=.=.X./ ~ T H.H.H.H.H.H.H.H.H.H.H.",
"H.H.H.H.H.H.H.H.H.H.b.C.C.C.C.C.C.V.k. .3.e.y.w.5. .l 0 k K  .4.9.w.w.w.9.:.C 1 X * C %.-.O./ / ~ F H.H.H.H.H.H.H.H.H.H.",
"H.H.H.H.H.H.H.H.H.>.u.i.i.i.i.i.i.:.| ,.w.y.0.3.[ h h Q 1.w.f.a.i.i.i.i.u.t.0.%.F > X i ) X./ / / ~ V H.H.H.H.H.H.H.H.H.",
"H.H.H.H.H.H.H.H.H.y.i.i.i.i.i.i.7.[  .9.y.0.3.K 0 l #.0.h.V.Z.f.i.u.t.w.8.5.-.-.-.O.s X > V I ! / / W H.H.H.H.H.H.H.H.H.",
"H.H.H.H.H.H.H.H.@.8.8.8.8.8.8.4.K ^ ,.t.w.3.K 0 J 1.p.N.F.D.z.f.e.0.,.Q Q ^ &.=.=.-.&.N + ; z C W / / b H.H.H.H.H.H.H.H.",
"H.H.H.H.H.H.H.I &.=.=.=.=.=.=.! F ^ 9.e.5.[ 0 J 1.g.D.F.N.a.f.g.5.1.H G G j $.=.=.=.=.=.C + > n V R / Y a H.H.H.H.H.H.H.",
"H.H.H.H.H.H.H.o.-.=.=.=.=.-.$.F I ^ e.8. .h H 6.m.D.N.h.u.e.g.l.5.Q } J e d $.=.=.=.=.=.=.c X 8 M C W ! b H.H.H.H.H.H.H.",
"H.H.H.H.H.H.I ) ............I F Y  .0.1.l k ,.p.x.f.i.u.w.5.l.v. .[ 4.V , s $.=.=.=.=.=.-.X.6 + d M S ! C a H.H.H.H.H.H.",
"H.H.H.H.H.H.Z Y Y Y Y Y Y F N Y Y #.2.Q 0 | 0.u.i.i.y.0.5.5.v.B.L 9.%.V , s $.=.=.=.=.=.=.X.I $ : n M I F b H.H.H.H.H.H.",
"H.H.H.H.H.H.I Y Y Y Y Y Y C S Y W &...0 H 8.y.i.i.y.0.5.5.5.B.A.d.2.%.V , s $.=.=.=.=.=.*.../ p o y M V A n H.H.H.H.H.H.",
"H.H.H.H.H.x Y Y Y Y Y Y I M I I ~ &.p ; #.e.i.i.y.0.6.6.g.v.F.G.S.l.s.P 2 s $.=.=.=.=.=.%.) / I * $ z M M n x H.H.H.H.H.",
"H.H.H.H.H.D Y Y Y Y Y Y F c I A { ~ @ y 3.u.i.u.0.5.6.l.m.S.G.G.F.B.c.' q d $.=.=.=.=.=.$./ / ! y X 6 n M M s H.H.H.H.H.",
"H.H.H.H.H.I Y Y Y Y Y Y V c A V X.d + W e.i.i.w.5.5.5.5.3.] Z.F.s.=.%.V , s $.=.=.=.=.=.X./ / / C $ $ f M M z H.H.H.H.H.",
"H.H.H.H.v Y Y Y Y Y Y Y n n z C ! - < 1.u.i.e.3.5.5.5.5.[ } m.S.;.=.%.V , s $.=.=.=.=.%.) / / / R 2 o 6 n M g 7 H.H.H.H.",
"H.H.H.H.F Y Y Y Y Y Y I z M p S M o c e.i.y.<.-.<.2.3.#.L :.j.B.=.=.%.V , s $.=.=.=.=.X./ / / / ~ f o : g n f y H.H.H.H.",
"H.H.H.H.D Y Y Y Y Y Y F z n y N e + ^ u.i.0.=.=.=.=.%.J :.N ` n.&.=.%.V , s $.=.=.=.%./ / / / / / C $ $ y z d s H.H.H.H.",
"H.H.H.H.F Y Y Y Y Y Y C z c w z : - ,.i.y.<.=.=.=.=.R } K 2 _ k.1.=.%.V , s $.=.=.&.../ / / / / / Y > + 2 d d p H.H.H.H.",
"H.H.H.a I Y Y Y Y Y Y N c g 8 d @ 6 0.i.w.=.=.=.-.) L [ z 6 P k.4.=.%.V , s $.=.*.X./ / / / / / / W 8 o > y d s 6 H.H.H.",
"H.H.H.v Y Y Y Y Y Y Y M n f 8 y o d t.u.2.=.=.=.=.S l c g n $.k.d.=.%.N , s $.*.X./ / / / / / / / ~ s o - 8 d d 7 H.H.H.",
"H.H.H.m Y Y Y Y Y Y Y n n p 6 8 o c t.t.-.=.=.=.=.&.%.%.%.*.;.k.c.=.%.N , s O.X./ / / / / / / / / / z o * 2 d d r H.H.H.",
"H.H.H.y f f f f f f f s M i 2 2 o c 7.9.=.=.=.=.=.=.=.=.=.=.;.j.l.=.$.N < i ! / / / / / / / / / / / M + % , p d y H.H.H.",
"H.H.H.4 e w w w w w w y M y 2 1 o c 7. .$.=.=.=.=.=.=.=.=.=.*.K 9.=.$.N < i W / / / / / / / / / / / n + $ > i d y H.H.H.",
"H.H.H.5 e e e e e e w y M y 1 > o j :.{ / X.%.=.=.=.=.=.=.=.*.K 9.=.$.N < i W / / / / / / / / / / R z @ $ : y f t H.H.H.",
"H.H.H.5 e e e e e e w y M y , : o d } ) / / ) X.O.%.%.%.%.%.X.J 9.=.$.M < i W / / / / / / / / / R F g @ $ : e f t H.H.H.",
"H.H.H.4 e e e e e e w y M i , : o i [ / / / / / / / / ) / / ~ H 9.=.$.M < i W / / / / / / / / W F F f + $ : w f y H.H.H.",
"H.H.H.3 e e e e e e w y M i , : o e J ~ / / / / / / / / / / ~ H 9.=.O.M < i W / / / / / / / W F F S p + % : w f y H.H.H.",
"H.H.H.3 e e e e e e e w c s , > o 8 C W / / / / / / / / / / ~ H 9.=.O.M < i W / / / / / / R F F F C y o * : w d r H.H.H.",
"H.H.H.7 e e e e e e e 8 d s 1 > + 1 M F / / / / / / / / / / ~ H 9.-.O.M < i W / / / / ~ R F F F F M 6 X - : e d 7 H.H.H.",
"H.H.H.6 w e e e e e e 8 p i 1 , @ - n N W / / / / / / / / / ~ H 9.-.O.M 1 i W / / / ! Y F F F F S z 1 o ; : y d 6 H.H.H.",
"H.H.H.H.w e e e e e e 8 i p , > % @ z M F / / / / / / / / / ~ H 9.-.X.n 1 i W / / W F F F F F F V f - + : : i s H.H.H.H.",
"H.H.H.H.9 e e e e e e 8 y d 2 : - o p M M R / / / / / / / / ~ H 9.-.X.n 1 i W ! Y F F F F F F S z i @ @ : > p s H.H.H.H.",
"H.H.H.H.3 e e e e e e w w d 8 : ; o 2 M M C ! / / / / / / / ~ H 9.-.X.n 1 y I F F F F F F F F N f 8 o * : 2 d y H.H.H.H.",
"H.H.H.H.7 e e e e e e e 8 s y : : @ $ g n M F ~ / / / / / / ~ H 9.=...n 1 e C F F F F F F F C g d > o ; : 6 d 7 H.H.H.H.",
"H.H.H.H.H.w e e e e e e 8 i p > : % X 8 f g c F ~ / / / / / ~ H 9.=.) n 1 e C F F F F F F A g d i @ @ : : y s H.H.H.H.H.",
"H.H.H.H.H.> 1 1 1 1 1 1 , w d 2 : ; o - s d d f M Y R R R R Y l 9.=./ n 1 e C F F F F F C g d f 2 X * : , p u H.H.H.H.H.",
"H.H.H.H.H.& ; ; ; ; ; ; - 1 d e : : $ o e f d d d g V F F F A l 4.=.~ n 1 e C F F F S N g d d p $ + : : 6 d r H.H.H.H.H.",
"H.H.H.H.H.H.- ; ; ; ; ; ; : i p , : - o - s d d d d f c C F S l 4.=.W n 1 e C F S V z f d d d 2 . * : : y s H.H.H.H.H.H.",
"H.H.H.H.H.H.= ; ; ; ; ; ; - 6 d 6 : : $ X 6 f d d d d d f z n l 4.=.R n 1 e n n z f d d d d y + + : : 1 s y H.H.H.H.H.H.",
"H.H.H.H.H.H.# ; ; ; ; ; ; ; > p i > : ; + @ y d d d d d d d s k 1.&.I n 1 8 p d d d d d d p - X - : : w d 6 H.H.H.H.H.H.",
"H.H.H.H.H.H.H.% ; ; ; ; ; ; - 8 d 2 : : * X * p d d d d d d s j 1.O.S n < 8 p d d d d d d , . $ : : 1 p y H.H.H.H.H.H.H.",
"H.H.H.H.H.H.H.# ; ; ; ; ; ; ; > p i > : : $ . ; p d d d d d s j ;.! C d ; 8 p d d d d d 1 X @ : : : w s 6 H.H.H.H.H.H.H.",
"H.H.H.H.H.H.H.H.= ; ; ; ; ; ; - 2 d 6 : : : $ . - i f d d d s s ) S N 1 : 8 p d d d s 1 X + ; : : 1 p y H.H.H.H.H.H.H.H.",
"H.H.H.H.H.H.H.H.H.- ; ; ; ; ; ; : y p 1 : : : $ . $ e d d d s 8 y y e 2 6 2 p d f i : . + - : : : e p H.H.H.H.H.H.H.H.H.",
"H.H.H.H.H.H.H.H.H.O ; ; ; ; ; ; ; > p y > : : : $ . o > i d f p i i i i i p d p 2 @ . @ ; : : : 2 s 9 H.H.H.H.H.H.H.H.H.",
"H.H.H.H.H.H.H.H.H.H.& ; ; ; ; ; ; - 2 s w : : : : * + . + : 8 i p s d s p e , $ . o % : : : : 1 p r H.H.H.H.H.H.H.H.H.H.",
"H.H.H.H.H.H.H.H.H.H.H.= ; ; ; ; ; ; ; 6 s 8 : : : : ; $ o . . + $ * * $ @ X . o $ - : : : : , i y H.H.H.H.H.H.H.H.H.H.H.",
"H.H.H.H.H.H.H.H.H.H.H.H.= ; ; ; ; ; ; ; 8 s 8 : : : : : ; * $ + o X X o o @ % - : : : : : 1 i y H.H.H.H.H.H.H.H.H.H.H.H.",
"H.H.H.H.H.H.H.H.H.H.H.H.H.= ; ; ; ; ; ; ; 6 s y , : : : : : : : ; - - ; ; : : : : : : : 2 p y H.H.H.H.H.H.H.H.H.H.H.H.H.",
"H.H.H.H.H.H.H.H.H.H.H.H.H.H.& $ % % % % % % 1 p p 6 > : : : : : : : : : : : : : : : , e p r H.H.H.H.H.H.H.H.H.H.H.H.H.H.",
"H.H.H.H.H.H.H.H.H.H.H.H.H.H.H.#   . . . . . . % e d i 6 > : : : : : : : : : : : 1 w p s 6 H.H.H.H.H.H.H.H.H.H.H.H.H.H.H.",
"H.H.H.H.H.H.H.H.H.H.H.H.H.H.H.H.H.    . . . . . o > y d p e 6 2 1 > > , 1 2 8 y p p r H.H.H.H.H.H.H.H.H.H.H.H.H.H.H.H.H.",
"H.H.H.H.H.H.H.H.H.H.H.H.H.H.H.H.H.H.H.O   . . . . . + : 8 p d d s p p p s s p y 9 H.H.H.H.H.H.H.H.H.H.H.H.H.H.H.H.H.H.H.",
"H.H.H.H.H.H.H.H.H.H.H.H.H.H.H.H.H.H.H.H.H.H.O             % > 4 9 t t y r 9 H.H.H.H.H.H.H.H.H.H.H.H.H.H.H.H.H.H.H.H.H.H."
};
