/* XPM */
static char *result[] = {
/* columns rows colors chars-per-pixel */
"60 60 9 1 ",
"  c #383D50",
". c #252733",
"X c #1B1D26",
"o c #21232E",
"O c #313545",
"+ c #010102",
"@ c #2C2F3E",
"# c #3E4359",
"$ c #0F0F14",
/* pixels */
"                                                            ",
"                                                            ",
"                                                            ",
"         O@OOOOOOOOOOOOOOOOOOOOOOOOOOOOOOOOOOOOOOOO         ",
"        # .ooooooooooooo....o...o...ooooooooooooo. #        ",
"         #OXXXXXXXXXXXXXo..oo..oo..oXXXXXXXXXXXXoO#         ",
"          #OXXo..........@@..@@..@@.............O#          ",
"   O       #OoXo........@@O.@@@@@@@@........... #       O   ",
"   OO       #OoXo.......@@@@.@O..O@@.......... #       OO   ",
"   O@O       #OoXo......@@@@.O@.@@@.......... #       OO#   ",
"   O..O       #OoXo......@O..O@@.@O@........ #       O.@#   ",
"   Ooo@O       #OoXo.....@@...@...@........ #       O@X@#   ",
"   OoX.@O       #OoXo..................... #       O@oX@#   ",
"   OoX..@O       #OXXoooooooooooooooooooo #       O@oXo@#   ",
"   OoX...@O       #OX$XXXXXXXXXXXXXXXXXXO#       O@oX..@#   ",
"   OoX....@O       #OXXXXXXXXXXXXXXXXXXO#       O@oX...@#   ",
"   OoX.....@O       #O$$$$$$$$$$$$$$$$O#       O@oX....@#   ",
"   OoX......@O       #@++++++++++++++.#       O@oX.....@#   ",
"   OoX.......@O       #@++++++++++++@#       O@oXo.....@#   ",
"   OoX.........O       #@++++++++++.#       O.XXo......@#   ",
"   OoX.......oX.O       #@++++++++@#       O.XX........@#   ",
"   OoX.....oooXX.O       #@++++++.#       O.X$Xoo......@#   ",
"   OoX....XXXX$X$oO       #@++++@#       Oo$$XXXXX.....@#   ",
"   OoX....Xo.oXX$+oO       #@++.#       Oo+$XXoooX.....@#   ",
"   OoX....Xo.oXX$++oO       #@@#       Oo++$XXo.oX.....@#   ",
"   OoX....Xo.oXX$+++oO       ##       Oo+++$XXo.oX.....@#   ",
"   OoX....Xo.oXX$++++oO              Oo++++$XXo.oX.....@#   ",
"   OoX....Xo.oXX$+++++oO            Oo+++++$XXo.oX.....@#   ",
"   OoX....Xo.oXX$++++++oO          Oo++++++$XXo.oX.....@#   ",
"   OoXXoXXXo.oXX$+++++++o          .+++++++$XXo.oXoXoXX@#   ",
"   OoXXXXX$o.oXX$+++++++@#         @+++++++$XXo.o$XXXXX@#   ",
"   Ooo....Xo.oXX$++++++.#          #@++++++$XXo.oX.....O#   ",
"   OoX....Xo.oXX$+++++.#            #@+++++$XXo.oX.....@#   ",
"   OoX....Xo.oXX$++++.#              #@++++$XXo.oX.....O#   ",
"   OoX....Xo.oXX$+++.#       OO       #@+++$XXo.oX.....@#   ",
"   OoX....Xo.oXX$++.#       OooO       #@++$XXo.oX.....@#   ",
"   OoX....Xo.oXX$+.#       Oo++oO       #@+$XXo.oX.....@#   ",
"   OoX....XXXXX$$.#       Oo++++oO       #@$$$XXXX.....@#   ",
"   OoX....ooooXXO#       Oo++++++oO       #OXXXo.......@#   ",
"   OoX.......oXO#       Oo++++++++oO       #OXXo.......O#   ",
"   OoX.......oO#       Oo++++++++++oO       #OXXo......@#   ",
"   OoX....... #       Oo++++++++++++oO       #OoXo.....@#   ",
"   OoX...... #       Oo++++++++++++++oO       #OoXo....@#   ",
"   OoX..... #       O.$$$$$$$$$$$$$$$$.O       #OoXo...@#   ",
"   OoX.... #       O.XXXXXXXXXXXXXXXXXo.O       #OoXo..@#   ",
"   OoX... #       O.X$XXXXXXXXXXXXXXXXXo.O       #OoXo.@#   ",
"   OoX.. #       O@XXoooooooooooooooooooo@O       #OoXo@#   ",
"   OoX. #       O@oXo.....................@O       #OoX@#   ",
"   OooO#       O@oXo.....@...@...@.........@O       #Oo@#   ",
"   O.O#       O@oXo.....@@@@.@@@.@@@........@O       #O@#   ",
"   O #       O@oXo.......O@.@@@.@@O..........@O       ###   ",
"    #       O@oXo.......@@@@.O@@.@@@..........@O       ##   ",
"  ##       O@oXo........@@@.@@@.@@@@...........@O       #   ",
"          O@oXo.........@@@@.@@@.@O.............@O          ",
"         O.XXo...........O@.@@@.@@@@.............@O         ",
"        OO@@@@@@@@@@@@@@OOOOOOOOOOOO@@@@@@@@@@@@@OOO        ",
"       OO##########################################OO       ",
"                                                            ",
"                                                            ",
"                                                            "
};
