/* XPM */
static char *result[] = {
/* columns rows colors chars-per-pixel */
"60 60 180 2 ",
"   c #070108",
".  c #080209",
"X  c #09010B",
"o  c #09040A",
"O  c #0A050B",
"+  c #09060A",
"@  c #0C020D",
"#  c #0E010F",
"$  c #0C050D",
"%  c #0C070D",
"&  c #100211",
"*  c #130214",
"=  c #130314",
"-  c #130614",
";  c #140516",
":  c #18041A",
">  c #19041B",
",  c #1B031D",
"<  c #1B051D",
"1  c #170A19",
"2  c #1D0B1E",
"3  c #131314",
"4  c #141716",
"5  c #181019",
"6  c #18171A",
"7  c #181B1A",
"8  c #191B1B",
"9  c #191C1B",
"0  c #1B1E1D",
"q  c #1D1E1F",
"w  c #1C201E",
"e  c #1F0321",
"r  c #1E0920",
"t  c #1E0D21",
"y  c #1F0D21",
"u  c #200323",
"i  c #220525",
"p  c #240426",
"a  c #210F22",
"s  c #230825",
"d  c #230A25",
"f  c #240A26",
"g  c #260A27",
"h  c #260529",
"j  c #26042A",
"k  c #29042C",
"l  c #2B042E",
"z  c #260B29",
"x  c #270B2A",
"c  c #2C0E2E",
"v  c #201821",
"b  c #271028",
"n  c #28112A",
"m  c #2A162B",
"M  c #301F28",
"N  c #2D0431",
"B  c #2F0533",
"V  c #2C0830",
"C  c #310535",
"Z  c #320536",
"A  c #330637",
"S  c #310D34",
"D  c #360A3A",
"F  c #390F3D",
"G  c #2F1432",
"H  c #351337",
"J  c #37183A",
"K  c #202322",
"L  c #202423",
"P  c #222625",
"I  c #222725",
"U  c #232826",
"Y  c #242927",
"T  c #262228",
"R  c #262B29",
"E  c #282D2B",
"W  c #29282D",
"Q  c #2B2B2D",
"!  c #292E2C",
"~  c #2A2F2D",
"^  c #302F25",
"/  c #302F2F",
"(  c #2B312F",
")  c #3F3A2E",
"_  c #2C3230",
"`  c #2E3532",
"'  c #2F3533",
"]  c #313634",
"[  c #343A37",
"{  c #343A38",
"}  c #353C39",
"|  c #373E3B",
" . c #393F3C",
".. c #4A3A22",
"X. c #4A2D3D",
"o. c #463435",
"O. c #3A413E",
"+. c #5F4B2D",
"@. c #48443B",
"#. c #55413E",
"$. c #3D1141",
"%. c #3D1840",
"&. c #421846",
"*. c #46194A",
"=. c #461D49",
"-. c #422645",
";. c #443146",
":. c #4A324D",
">. c #4C2050",
",. c #3B4340",
"<. c #3D4441",
"1. c #3E4743",
"2. c #404945",
"3. c #434C48",
"4. c #454E4A",
"5. c #454F4B",
"6. c #464E4B",
"7. c #4D4E4B",
"8. c #4C494C",
"9. c #47514D",
"0. c #48514D",
"q. c #48524E",
"w. c #575547",
"e. c #5D584D",
"r. c #5A465C",
"t. c #4A5450",
"y. c #515453",
"u. c #525C58",
"i. c #5D595B",
"p. c #6B5352",
"a. c #57605C",
"s. c #6F6459",
"d. c #7B6D58",
"f. c #6D686E",
"g. c #7D7173",
"h. c #8D753C",
"j. c #83735A",
"k. c #8B7F65",
"l. c #AA9157",
"z. c #9B8C6E",
"x. c #BAA678",
"c. c #7F7F80",
"v. c #878287",
"b. c #8D8B8D",
"n. c #918992",
"m. c #949492",
"M. c #A29999",
"N. c #BEAE84",
"B. c #A2A09C",
"V. c #A6A0A4",
"C. c #ACA8A8",
"Z. c #B1AAA8",
"A. c #B3B0B2",
"S. c #BAB5BA",
"D. c gray75",
"F. c #C8B588",
"G. c #C9B992",
"H. c #E2C88A",
"J. c #E6D19C",
"K. c #D7CDB3",
"L. c #EFD9A1",
"P. c #FBE3AA",
"I. c #FFE9AE",
"U. c #FFEBB0",
"Y. c #FFECB0",
"T. c #FFECB1",
"R. c #C1C1C1",
"E. c #C6C5C4",
"W. c #CBCACA",
"Q. c #D1CFCE",
"!. c #D7D7D7",
"~. c gray87",
"^. c #E1E1E1",
"/. c #E9EAEA",
"(. c #EFEFEF",
"). c gray96",
"_. c #F8F8F8",
"`. c #FEFEFE",
"'. c white",
"]. c None",
/* pixels */
"].].].].].].].].].].].].].].].].].].].].. o   & @ % = 1 r b m g s y $ ].].].].].].].].].].].].].].].].].].].].].].].].].",
"].].].].].].].].].].].].].].].].].# * > e i p h h h h i i d x S F $.%.H y ].].].].].].].].].].].].].].].].].].].].].].].",
"].].].].].].].].].].].].].].].].& N C A A A A A A A A A Z C B x i k D $.*.J 2 ].].].].].].].].].].].].].].].].].].].].].",
"].].].].].].].].].].].].].].].].* C Z Z Z Z Z Z Z Z Z Z Z Z Z D D x j Z D &.=.y ].].].].].].].].].].].].].].].].].].].].",
"].].].].].].].].].].].].].].].].X h l N N B Z Z Z Z Z Z Z Z Z Z A F x l Z A &.&.- ].].].].].].].].].].].].].].].].].].].",
"].].].].].].].].].].].].].].].].].> h h h h N Z Z Z Z Z Z Z Z Z Z D F i Z Z D *.H ].].].].].].].].].].].].].].].].].].].",
"].].].].].].].].].].].].].].].].].O p h h h j B Z Z Z Z Z Z Z Z Z Z F x N Z Z $.=.- ].].].].].].].].].].].].].].].].].].",
"].].].].].].].].].].].].].].].].].$ i h h h h B Z Z Z Z Z Z Z Z Z Z D G k A Z A *.c ].].].].].].].].].].].].].].].].].].",
"].].].].].].].].].].].].].].].].].X p h h h k C Z Z Z Z Z Z Z Z Z Z D S h A Z Z &.J ].].].].].].].].].].].].].].].].].].",
"].].].].].].].].].].].].].].].].].@ h h h k B Z Z Z Z Z C B B B B B Z S p C B B F %.].].].].].].].].].].].].].].].].].].",
"].].].].].].].].].].].].].].].].].* h h h B C C C C B S -.:.:.:.:.:.:.:.;.:.:.:.:.%.$ ].].].].].].].].].].].].].].].].].",
"].].].].].].].].].].].].].].].].. > r r d d d d d d i i.D.D.!.~.^.^.~.~.~.!.^.^.D.f.& ].].].].].].].].].].].].].].].].].",
"].].].].].].].].].].].].].].].].2 =.>.>.>.>.>.>.>.>.=.n.W.b.^.).'.'.(.).(.(.'._.m.b.n ].].].].].].].].].].].].].].].].].",
"].].].].].].].].].].].].].].].].2 >.>.>.>.>.>.>.>.>.=.n.~.~./._.(././.).^.~.(.`./.V.n ].].].].].].].].].].].].].].].].].",
"].].].].].].].].].].].].].].].].2 >.>.>.>.>.>.>.>.>.=.n.~././.`.).!.D.D.D.!._.`.(.V.n ].].].].].].].].].].].].].].].].].",
"].].].].].].].].].].].].].].].].2 &.*.*.*.*.*.*.*.*.&.n.~.~.).'.'.(.^.W.^.`.'.).^.V.n ].].].].].].].].].].].].].].].].].",
"].].].].].].].].].].].].].].].].# p h h h h h h h h p v.W.b.).'.`.(._./._.'.'./.b.v.: ].].].].].].].].].].].].].].].].].",
"].].].].].].].].].].].].].].].].* e p e < < e i p e ; 7.C.C.W.Q.W.E.W.E.W.Q.Q.R.B.r.@ ].].].].].].].].].].].].].].].].].",
"].].].].].].].].].].].].].].].& k A A C k l C A l ; q / }  .@.z.G.G.G.G.G.N.e. .Q i # ].].].].].].].].].].].].].].].].].",
"].].].].].].].].].].].].].].o i B Z Z Z N C Z B M ) K q Q / / @.F.Y.I.I.I.z.] Q q ; # ].].].].].].].].].].].].].].].].].",
"].].].].].].].].].].].].].].@ h B Z Z Z Z Z Z k d.L.k.i.] q T / F.T.U.U.I.d.q / 7.v X ].].].].].].].].].].].].].].].].].",
"].].].].].].].].].].].].].].= h N Z Z Z Z Z A k j.L.B._.V.o.@.@.J.H.z.k.F.z.i.A.g.v $ ].].].].].].].].].].].].].].].].].",
"].].].].].].].].].].].].].].& p k B Z Z Z Z Z N o.N.m.Q.p.g.G.F.j.M h j m k.K.M.s.v ].].].].].].].].].].].].].].].].].].",
"].].].].].].].].].].].].].].]., h k B C C Z Z Z k #.w.V.C.M.z.#.h B A A B m k.Z.g.% ].].].].].].].].].].].].].].].].].].",
"].].].].].].].].].].].].].].].$ , p j k k l B C Z k r 5 T M b N A Z Z Z Z B b T 1 X ].].].].].].].].].].].].].].].].].].",
"].].].].].].].].].].].].].].].].].# & * , p h k l N N k j l B B B B B B B B N e & ].].].].].].].].].].].].].].].].].].].",
"].].].].].].].].].].].].].].].].].].].].].- & : > , e e i i p p p p p p i e > - ].].].].].].].].].].].].].].].].].].].].",
"].].].].].].].].].].].].].].].].].].].].].].].].X % 6 Q Q q ; < 5 6 6   $ ].].].].].].].].].].].].].].].].].].].].].].].",
"].].].].].].].].].].].].].].].].].].].].].].].+ _ 1.` t.u.1.x l W } } O ].].].].].].].].].].].].].].].].].].].].].].].].",
"].].].].].].].].].].].].].].].].].].].].].].f g G <.~ } u.,.x N T [ [ q e n ].].].].].].].].].].].].].].].].].].].].].].",
"].].].].].].].].].].].].].].].].].].].].].c D A C J c.c. .6 r i 5 O.a.m.i.V z ].].].].].].].].].].].].].].].].].].].].].",
"].].].].].].].].].].].].].].].].].].].].].F Z Z C %.S.Q.2.~ ` ` E i.D.~.c.k H ].].].].].].].].].].].].].].].].].].].].].",
"].].].].].].].].].].].].].].].].].].].].2 D Z Z B x y.y.q R ] [ ] q 7.7.6 h D f ].].].].].].].].].].].].].].].].].].].].",
"].].].].].].].].].].].].].].].].].].].. h k N N p v  .1.2.[ ` 1._ _ 1.1.2.T l l ].].].].].].].].].].].].].].].].].].].].",
"].].].].].].].].].].].].].].].].].].].c &.%.i r W R 2.<.` 1.R [ Y ] 9._ 1.Q G x ].].].].].].].].].].].].].].].].].].].].",
"].].].].].].].].].].].].].].].].].].s $.&.=.V v 2.E <.<.}  ._ <.~ ` 2.} <.Q &.$.z ].].].].].].].].].].].].].].].].].].].",
"].].].].].].].].].].].].].].].].].].a #.z.x.d.~ 2.E 2.9.5.<.E } Y ] 9.5.5.[ p.X.g ].].].].].].].].].].].].].].].].].].].",
"].].].].].].].].].].].].].].].].].]...H.P.J.x.[ 2.E 2.t.t.1._ ,.E ] q.q.9.w.L.H.+.].].].].].].].].].].].].].].].].].].].",
"].].].].].].].].].].].].].].].].].].].l.s.7. .Y 2._ _ ] ] E _ | _ Y ] ] ` [ k.x.h.].].].].].].].].].].].].].].].].].].].",
"].].].].].].].].].].].].].].].].].].].<.9.5.} K } 1.` ` ] [  . . .[ ` } Y ,.3.3.^ ].].].].].].].].].].].].].].].].].].].",
"].].].].].].].].].].].].].].].].].].].3.2.E Y 6 R q v T T W W W W W T q 3 R | q.{ ].].].].].].].].].].].].].].].].].].].",
"].].].].].].].].].].].].].].].].].].].U Y } 2.~ E 6 < k k l k k k l N e 6 ,._ ~ L ].].].].].].].].].].].].].].].].].].].",
"].].].].].].].].].].].].].].].].].].].0 } <.| <.q q q h l k l l B Z B r.f.` 1.| P ].].].].].].].].].].].].].].].].].].].",
"].].].].].].].].].].].].].].].].].].]._ 1.|  . .` K ~ r p < e p N J n.!.B.<.[ <.] ].].].].].].].].].].].].].].].].].].].",
"].].].].].].].].].].].].].].].].].].].I }  .O.O.Y K } 5 = O # & J V.D.m.A.g.K  .R ].].].].].].].].].].].].].].].].].].].",
"].].].].].].].].].].].].].].].].].].].].R O.O.Y 3 3 < < o ].].].8.m.B.A.r.S r R 9 ].].].].].].].].].].].].].].].].].].].",
"].].].].].].].].].].].].].].].].].].].].$ _ Y 3 ; k N : ].].].].].8.M.-.N C l 6 ].].].].].].].].].].].].].].].].].].].].",
"].].].].].].].].].].].].].].].].].].].].].].@ ; l A j + ].].].].].].y N Z B x $ ].].].].].].].].].].].].].].].].].].].].",
"].].].].].].].].].].].].].].].].].].].].].].u B Z Z B ].].].].].].].t C Z Z V ].].].].].].].].].].].].].].].].].].].].].",
"].].].].].].].].].].].].].].].].].].].].].].s A Z Z Z u ].].].].].].c Z C C N & ].].].].].].].].].].].].].].].].].].].].",
"].].].].].].].].].].].].].].].].].].].].].].v b x x b a ].].].].].].m m m m Q ~ ].].].].].].].].].].].].].].].].].].].].",
"].].].].].].].].].].].].].].].].].].].].].7 2.3.2.2.3.] ].].].].].7 } 5.5.9.t.2.].].].].].].].].].].].].].].].].].].].].",
"].].].].].].].].].].].].].].].].].].].].].7 3.t.t.q.q.] ].].].].].].[ 9.q.q.9.<.].].].].].].].].].].].].].].].].].].].].",
"].].].].].].].].].].].].].].].].].].].].].].( } | } ` w ].].].].].].w ~ ` ` _ 8 ].].].].].].].].].].].].].].].].].].].].",
"].].].].].].].].].].].].].].].].].].].].].].4 ` [ [ R o ].].].].].].+ R  .1.O.8 ].].].].].].].].].].].].].].].].].].].].",
"].].].].].].].].].].].].].].].].].].! 4.4.6.<.<.q.3.| P ].].].].].].P | 2.5.3.3.0.y.4.! ].].].].].].].].].].].].].].].].",
"].].].].].].].].].].].].].].].].].' u.a.a.u.q.9.9.5.q.O.].].].].].t 1.q.9.9.q.t.u.a.a.u.' ].].].].].].].].].].].].].].].",
"].].].].].].].].].].].].].].].].L q.u.u.u.t.q.q.q.q.q.3.0 ].].].].U 5.q.q.q.q.q.t.u.u.u.9.0 ].].].].].].].].].].].].].].",
"].].].].].].].].].].].].].].].].' q.q.t.9.5.5.2.<.3.3.3.P ].].].].I 3.5.3.<.2.3.5.9.q.q.q._ ].].].].].].].].].].].].].].",
"].].].].].].].].].].].].].].].].I ` _ _ ~ ~ E R Y R R R 4 ].].].].w E R R Y Y Y R R R R E K ].].].].].].].].].].].].].]."
};
