/* XPM */
static char *result[] = {
/* columns rows colors chars-per-pixel */
"60 60 172 2 ",
"   c #0A020B",
".  c #0E050F",
"X  c #110112",
"o  c #120114",
"O  c #120214",
"+  c #130214",
"@  c #120414",
"#  c #130515",
"$  c #110813",
"%  c #150F16",
"&  c #160718",
"*  c #19031B",
"=  c #19041B",
"-  c #1C031E",
";  c #1B041D",
":  c #1C041D",
">  c #1D0B1E",
",  c #141616",
"<  c #161816",
"1  c #1E121E",
"2  c #18181A",
"3  c #181B1A",
"4  c #1B1D1D",
"5  c #1A1E1D",
"6  c #1C201E",
"7  c #1E201F",
"8  c #1F0421",
"9  c #210424",
"0  c #220B25",
"q  c #230826",
"w  c #240A27",
"e  c #220D24",
"r  c #230E25",
"t  c #240F26",
"y  c #250428",
"u  c #28052B",
"i  c #28022D",
"p  c #29052D",
"a  c #2B042F",
"s  c #270D29",
"d  c #29092D",
"f  c #2B0F2D",
"g  c #211422",
"h  c #231A26",
"j  c #2C102F",
"k  c #2F192D",
"l  c #2E0333",
"z  c #2D0531",
"x  c #2F0633",
"c  c #2D0930",
"v  c #300535",
"b  c #320636",
"n  c #330637",
"m  c #310A35",
"M  c #320F35",
"N  c #370D3B",
"B  c #321535",
"V  c #37153A",
"C  c #361C39",
"Z  c #202322",
"A  c #202422",
"S  c #212524",
"D  c #262725",
"F  c #242826",
"G  c #252A28",
"H  c #262B29",
"J  c #282C2B",
"K  c #31292F",
"L  c #2B312F",
"P  c #2C302F",
"I  c #2C3230",
"U  c #2E3431",
"Y  c #2F3432",
"T  c #303634",
"R  c #323836",
"E  c #333A37",
"W  c #343A37",
"Q  c #3A323B",
"!  c #343B39",
"~  c #353C3A",
"^  c #373E3B",
"/  c #383E3C",
"(  c #412C2D",
")  c #503D3C",
"_  c #3A423F",
"`  c #4B4129",
"'  c #55492B",
"]  c #44413A",
"[  c #63512A",
"{  c #6D5E39",
"}  c #3F1C41",
"|  c #401544",
" . c #441748",
".. c #461C4A",
"X. c #4A1E4E",
"o. c #412E43",
"O. c #5A3E44",
"+. c #4D2051",
"@. c #4D2B50",
"#. c #513D53",
"$. c #3B4340",
"%. c #3E4744",
"&. c #414946",
"*. c #424A47",
"=. c #424B47",
"-. c #444E4A",
";. c #4F4D4F",
":. c #514C40",
">. c #47504C",
",. c #48534F",
"<. c #4E504F",
"1. c #585A4C",
"2. c #574C58",
"3. c #4C5652",
"4. c #505A56",
"5. c #555F5B",
"6. c #5A5A5A",
"7. c #66574B",
"8. c #6B654F",
"9. c #776657",
"0. c #635065",
"q. c #6A596C",
"w. c #676767",
"e. c #676668",
"r. c #7C7668",
"t. c #7C6E7D",
"y. c #856E3D",
"u. c #8E753C",
"i. c #827144",
"p. c #907C58",
"a. c #A08445",
"s. c #A68C4E",
"d. c #A28B58",
"f. c #9C8962",
"g. c #9C8E6E",
"h. c #AF9A72",
"j. c #C5A45A",
"k. c #D2B570",
"l. c #EFC565",
"z. c #807E80",
"x. c #837884",
"c. c #8B848B",
"v. c #958E96",
"b. c gray58",
"n. c #BEAC83",
"m. c #B5AC97",
"M. c #A4A3A1",
"N. c #A9A7A9",
"B. c #BAB4A8",
"V. c gray69",
"C. c #B9B8B5",
"Z. c #C2B28E",
"A. c #CFBD91",
"S. c #DBC796",
"D. c #DDC999",
"F. c #E6D19B",
"G. c #E8D29E",
"H. c #FAE2A9",
"J. c #FFE9AF",
"K. c #C3C3C3",
"L. c #CBCBCB",
"P. c #D2D2D2",
"I. c #D8D8D8",
"U. c gainsboro",
"Y. c #E1E1E1",
"T. c #E7E7E7",
"R. c #EEEEEE",
"E. c #F3F3F3",
"W. c gray96",
"Q. c gray99",
"!. c white",
"~. c None",
/* pixels */
"~.~.~.~.~.~.~.~.~.~.~.~.~.~.~.~.~.~.~.~.~.~.~.~.~.~.~.~.~.~.~.~.~.~.~.~.~.~.~.~.~.~.~.~.~.~.~.~.~.~.~.~.~.~.~.~.~.~.~.~.",
"~.~.~.~.~.~.~.~.~.~.~.~.~.~.~.~.~.~.~.~.~.~.~.~.~.~.~.~.~.~.~.~.~.~.~.~.~.~.~.~.~.~.~.~.~.~.~.~.~.~.~.~.~.~.~.~.~.~.~.~.",
"~.~.~.~.~.~.~.~.~.~.~.~.~.~.~.~.~.~.~.~.~.~.~.~.~.~.~.~.~.~.~.~.~.~.~.~.~.~.~.~.~.~.~.~.~.  O X ~.~.~.~.~.~.~.~.~.~.~.~.",
"~.~.~.~.~.~.~.~.~.~.~.~.~.~.~.~.~.~.~.~.~.~.~.~.~.~.~.~.~.~.~.~.~.~.~.~.~.~.~.~.~.  # = y a v x X ~.~.~.~.~.~.~.~.~.~.~.",
"~.~.~.~.~.~.~.~.~.~.~.~.~.~.~.~.~.~.~.~.~.~.~.~.~.~.~.~.~.~.~.~.~.~.~.~.~.~.  @ & y x b n n b z : ~.~.~.~.~.~.~.~.~.~.~.",
"~.~.~.~.~.~.~.~.~.~.~.~.~.~.~.~.~.~.~.~.~.~.~.~.~.~.~.~.~.~.~.~.~.~.~.~.t e 8 p v n b b b v a y O ~.~.~.~.~.~.~.~.~.~.~.",
"~.~.~.~.~.~.~.~.~.~.~.~.~.~.~.~.~.~.~.~.~.~.~.~.~.~.~.~.~.~.~.~.~.~.t M s u v n b b b b z u y y X ~.~.~.~.~.~.~.~.~.~.~.",
"~.~.~.~.~.~.~.~.~.~.~.~.~.~.~.~.~.~.~.~.~.~.~.~.~.~.~.~.~.~.~.~.> V N w z n b b b b b v u y y u # ~.~.~.~.~.~.~.~.~.~.~.",
"~.~.~.~.~.~.~.~.~.~.~.~.~.~.~.~.~.~.~.~.~.~.~.~.~.~.~.~.~.~.~.r | N y M n b b b b b b v u y y y 9 o ~.~.~.~.~.~.~.~.~.~.",
"~.~.~.~.~.~.~.~.~.~.~.~.~.~.~.~.~.~.~.~.~.~.~.~.~.~.~.~.~.~.> | N z f N b b b b b b b b z u y y u * ~.~.~.~.~.~.~.~.~.~.",
"~.~.~.~.~.~.~.~.~.~.~.~.~.~.~.~.~.~.~.~.~.~.~.~.~.~.~.~.~.~.C | b u M n b b b b b b b b b x a y 9 ; # ~.~.~.~.~.~.~.~.~.",
"~.~.~.~.~.~.~.~.~.~.~.~.~.~.~.~.~.~.~.~.~.~.~.~.~.~.~.~.~.> ..N b y N n b b b b b b b b b x u 9 f } ..0 ~.~.~.~.~.~.~.~.",
"~.~.~.~.~.~.~.~.~.~.~.~.~.~.~.~.~.~.~.~.~.~.~.~.~.~.~.~.~.j  .n b u N n b b b b v l v z y s V ..+.+.+.B ~.~.~.~.~.~.~.~.",
"~.~.~.~.~.~.~.~.~.~.~.~.~.~.~.~.~.~.~.~.~.~.~.~.~.~.~.~.~.B  .b n p M n b v l M #.0.k f } +.+.+.+.+.+.| $ ~.~.~.~.~.~.~.",
"~.~.~.~.~.~.~.~.~.~.~.~.~.~.~.~.~.~.~.~.~.~.~.~.~.~.~.~.~.B | b b z d n z } q.N.C.K.t.X.+.+.+.+.+...| x # ~.~.~.~.~.~.~.",
"~.~.~.~.~.~.~.~.~.~.~.~.~.~.~.~.~.~.~.~.~.~.~.~.~.~.~.~.~.j | b v l f #.c.L.E.R.V.L.V.@.+.+.X. .N p 8 8 9 # ~.~.~.~.~.~.",
"~.~.~.~.~.~.~.~.~.~.~.~.~.~.~.~.~.~.~.~.~.~.~.~.~.~.~.~.~.r | x } q.N.U.E.!.Q.E.T.T.P.0. .| b 9 ; ; u b n x 8 . ~.~.~.~.",
"~.~.~.~.~.~.~.~.~.~.~.~.~.~.~.~.~.~.~.~.~.~.~.~.~.~.~.~.~.. } x.L.R.R.W.E.T.Y.Q.E.T.U.v.d 8 9 y p p z b b b p * ~.~.~.~.",
"~.~.~.~.~.~.~.~.~.~.~.~.~.~.~.~.~.~.~.~.~.~.~.~.~.~.~.~.~.~.#.M.T.Q.T.I.I.K.R.!.!.P.M.N.1 & y v b v v b b b a 8 ~.~.~.~.",
"~.~.~.~.~.~.~.~.~.~.~.~.~.~.~.~.~.~.~.~.~.~.~.~.~.~.~.~.~.~.o.V.R.Q.Y.L.K.U.R.Q.Q.U.b.6.J 2 K k v b b b b b p 8 ~.~.~.~.",
"~.~.~.~.~.~.~.~.~.~.~.~.~.~.~.~.~.~.~.~.~.~.~.~.~.~.~.~.~.~.t v.R.Q.!.Q.R.R.T.L.B.r.T P S ` k.p.p b b b b x u * ~.~.~.~.",
"~.~.~.~.~.~.~.~.~.~.~.~.~.~.~.~.~.~.~.~.~.~.~.~.~.~.~.~.~.~.$ 2.L.I.!.Q.Y.C.m.A.A.:.P S ' a.l.j.f b b v z u 8 . ~.~.~.~.",
"~.~.~.~.~.~.~.~.~.~.~.~.~.~.~.~.~.~.~.~.~.~.~.~.~.~.~.~.~.~.~.g z.N.K.M.Z.D.H.J.G.:.7 ' [ y.l.d.d n v p 9 # ~.~.~.~.~.~.",
"~.~.~.~.~.~.~.~.~.~.~.~.~.~.~.~.~.~.~.~.~.~.~.~.~.~.~.~.~.~.~.. C 2._ ] g.H.J.J.J.n.y.j.u.s.d.( l x p 8 X ~.~.~.~.~.~.~.",
"~.~.~.~.~.~.~.~.~.~.~.~.~.~.~.~.~.~.~.~.~.~.~.~.~.~.~.~.~.~.~.~.# & S D W S.Z.9.7.9.f.j.k.h.) p z y - . ~.~.~.~.~.~.~.~.",
"~.~.~.~.~.~.~.~.~.~.~.~.~.~.~.~.~.~.~.~.~.~.~.~.~.~.~.~.~.~.~.~.. 1 { ` ` f.( i a a p f k s u y - X ~.~.~.~.~.~.~.~.~.~.",
"~.~.~.~.~.~.~.~.~.~.~.~.~.~.~.~.~.~.~.~.~.~.~.~.~.~.~.~.~.~.~.~.~.@ a.a.y.y.i n b b b v a y 8 1 # ~.~.~.~.~.~.~.~.~.~.~.",
"~.~.~.~.~.~.~.~.~.~.~.~.~.~.~.~.~.~.~.~.~.~.~.~.~.~.~.~.~.~.~.~.~.~.( d.k.` l b v x p 9 ; 2 7 G % + . ~.~.~.~.~.~.~.~.~.",
"~.~.~.~.~.~.~.~.~.~.~.~.~.~.~.~.~.~.~.~.~.~.~.~.~.~.~.~.~.~.~.~.~.~.  D ) d x z u 8 & % / R W P y z x j ~.~.~.~.~.~.~.~.",
"~.~.~.~.~.~.~.~.~.~.~.~.~.~.~.~.~.~.~.~.~.~.~.~.~.~.~.~.~.~.~.~.~.~.~.$ @ - - @ + & & h V.K.b.Q u b b N 0 ~.~.~.~.~.~.~.",
"~.~.~.~.~.~.~.~.~.~.~.~.~.~.~.~.~.~.~.~.~.~.~.~.~.~.~.~.~.~.~.~.~.~.~.~.~.~.~.~.. h U G 6.M.b.Q y v b n m ~.~.~.~.~.~.~.",
"~.~.~.~.~.~.~.~.~.~.~.~.~.~.~.~.~.~.~.~.~.~.~.~.~.~.~.~.~.~.~.~.~.~.~.~.~.~.~.~.6 7 P $.$.P U P ; u x z z : ~.~.~.~.~.~.",
"~.~.~.~.~.~.~.~.~.~.~.~.~.~.~.~.~.~.~.~.~.~.~.~.~.~.~.~.~.~.~.~.~.~.~.~.~.~.~.~.Z S R W %.U ~ -.J & ; M V c ~.~.~.~.~.~.",
"~.~.~.~.~.~.~.~.~.~.~.~.~.~.~.~.~.~.~.~.~.~.~.~.~.~.~.~.~.~.~.~.~.~.~.~.~.~.~.~.Z S U _ %.U W >.,.~ 1 } ..| 0 ~.~.~.~.~.",
"~.~.~.~.~.~.~.~.~.~.~.~.~.~.~.~.~.~.~.~.~.~.~.~.~.~.~.~.~.~.~.~.~.~.~.~.~.~.~.~.Z S R ,.>.T ~ >.,.%.7.n.h.O.: ~.~.~.~.~.",
"~.~.~.~.~.~.~.~.~.~.~.~.~.~.~.~.~.~.~.~.~.~.~.~.~.~.~.~.~.~.~.~.~.~.~.~.~.~.~.~.6 S U =.=.P ~ >.,._ 8.n.F.k.~.~.~.~.~.~.",
"~.~.~.~.~.~.~.~.~.~.~.~.~.~.~.~.~.~.~.~.~.~.~.~.~.~.~.~.~.~.~.~.~.~.~.~.~.~.~.~.< D J G G J / >.,.U R =.1.i.~.~.~.~.~.~.",
"~.~.~.~.~.~.~.~.~.~.~.~.~.~.~.~.~.~.~.~.~.~.~.~.~.~.~.~.~.~.~.~.~.~.~.~.~.~.A 7 4 7 W / _ _ _ -._ 4 G / >.^ ~.~.~.~.~.~.",
"~.~.~.~.~.~.~.~.~.~.~.~.~.~.~.~.~.~.~.~.~.~.~.~.~.~.~.~.~.~.~.~.~.~.~.~.~.~.I U T 2 1 h h h h 1 J S / T U H ~.~.~.~.~.~.",
"~.~.~.~.~.~.~.~.~.~.~.~.~.~.~.~.~.~.~.~.~.~.~.~.~.~.~.~.~.~.~.~.~.~.~.~.~.L S J W Q 9 l z z 9 % 4 U _ $.~ 5 ~.~.~.~.~.~.",
"~.~.~.~.~.~.~.~.~.~.~.~.~.~.~.~.~.~.~.~.~.~.~.~.~.~.~.~.~.~.~.~.~.~.~.~.~.T T S <.V.Q 9 y y & S 4 ~ / / $.L ~.~.~.~.~.~.",
"~.~.~.~.~.~.~.~.~.~.~.~.~.~.~.~.~.~.~.~.~.~.~.~.~.~.~.~.~.~.~.~.~.~.~.~.~.5 J J c.M.w.K 1 + % W G U _ / ~ 5 ~.~.~.~.~.~.",
"~.~.~.~.~.~.~.~.~.~.~.~.~.~.~.~.~.~.~.~.~.~.~.~.~.~.~.~.~.~.~.~.~.~.~.~.~.~.A w } t.V.z.;.~.~.7 % 2 J _ I ~.~.~.~.~.~.~.",
"~.~.~.~.~.~.~.~.~.~.~.~.~.~.~.~.~.~.~.~.~.~.~.~.~.~.~.~.~.~.~.~.~.~.~.~.~.~.~.a v z q.e.~.~.~.X 9 & % 4 < ~.~.~.~.~.~.~.",
"~.~.~.~.~.~.~.~.~.~.~.~.~.~.~.~.~.~.~.~.~.~.~.~.~.~.~.~.~.~.~.~.~.~.~.~.~.~.~.d v b q ~.~.~.~.~.- z p : ~.~.~.~.~.~.~.~.",
"~.~.~.~.~.~.~.~.~.~.~.~.~.~.~.~.~.~.~.~.~.~.~.~.~.~.~.~.~.~.~.~.~.~.~.~.~.~.o v n n m ~.~.~.~.~.q b n c ~.~.~.~.~.~.~.~.",
"~.~.~.~.~.~.~.~.~.~.~.~.~.~.~.~.~.~.~.~.~.~.~.~.~.~.~.~.~.~.~.~.~.~.~.~.~.~.g f d d d $ ~.~.~.~.z b l a q ~.~.~.~.~.~.~.",
"~.~.~.~.~.~.~.~.~.~.~.~.~.~.~.~.~.~.~.~.~.~.~.~.~.~.~.~.~.~.~.~.~.~.~.~.~.~.$.=.$._ / 5 ~.~.~.~.s k K / ~ , ~.~.~.~.~.~.",
"~.~.~.~.~.~.~.~.~.~.~.~.~.~.~.~.~.~.~.~.~.~.~.~.~.~.~.~.~.~.~.~.~.~.~.~.~.~.$.,.,.,.%.6 ~.~.~.~.%.>.,.,.%.6 ~.~.~.~.~.~.",
"~.~.~.~.~.~.~.~.~.~.~.~.~.~.~.~.~.~.~.~.~.~.~.~.~.~.~.~.~.~.~.~.~.~.~.~.~.~.A T R T J , ~.~.~.~.$.>.=./ J . ~.~.~.~.~.~.",
"~.~.~.~.~.~.~.~.~.~.~.~.~.~.~.~.~.~.~.~.~.~.~.~.~.~.~.~.~.~.~.~.~.~.~.~.~.~.A _ %.W 3 ~.~.~.~.~.5 G T W P $ ~.~.~.~.~.~.",
"~.~.~.~.~.~.~.~.~.~.~.~.~.~.~.~.~.~.~.~.~.~.~.~.~.~.~.~.~.~.~.~.~.~.Z *.4.3.>.-.>.%./ ~.~.~.Y &.^ T -.-.%.L ~.~.~.~.~.~.",
"~.~.~.~.~.~.~.~.~.~.~.~.~.~.~.~.~.~.~.~.~.~.~.~.~.~.~.~.~.~.~.~.~.6 >.5.5.4.,.,.,.,.>.A ~.^ 4.5.4.>.>.>.,.-.6 ~.~.~.~.~.",
"~.~.~.~.~.~.~.~.~.~.~.~.~.~.~.~.~.~.~.~.~.~.~.~.~.~.~.~.~.~.~.~.~.E 3.4.3.,.,.>.-.,.,.I F 4.5.5.3.,.,.>.,.,.L ~.~.~.~.~.",
"~.~.~.~.~.~.~.~.~.~.~.~.~.~.~.~.~.~.~.~.~.~.~.~.~.~.~.~.~.~.~.~.~.L / ! ! ! R U U R W G ~ 3.3.>.=.%./ W W R F ~.~.~.~.~.",
"~.~.~.~.~.~.~.~.~.~.~.~.~.~.~.~.~.~.~.~.~.~.~.~.~.~.~.~.~.~.~.~.~.~.~.~.~.~.~.~.~.~.~.~.F L L A H 6 < , ~.~.~.~.~.~.~.~.",
"~.~.~.~.~.~.~.~.~.~.~.~.~.~.~.~.~.~.~.~.~.~.~.~.~.~.~.~.~.~.~.~.~.~.~.~.~.~.~.~.~.~.~.~.~.~.~.~.~.~.~.~.~.~.~.~.~.~.~.~.",
"~.~.~.~.~.~.~.~.~.~.~.~.~.~.~.~.~.~.~.~.~.~.~.~.~.~.~.~.~.~.~.~.~.~.~.~.~.~.~.~.~.~.~.~.~.~.~.~.~.~.~.~.~.~.~.~.~.~.~.~.",
"~.~.~.~.~.~.~.~.~.~.~.~.~.~.~.~.~.~.~.~.~.~.~.~.~.~.~.~.~.~.~.~.~.~.~.~.~.~.~.~.~.~.~.~.~.~.~.~.~.~.~.~.~.~.~.~.~.~.~.~.",
"~.~.~.~.~.~.~.~.~.~.~.~.~.~.~.~.~.~.~.~.~.~.~.~.~.~.~.~.~.~.~.~.~.~.~.~.~.~.~.~.~.~.~.~.~.~.~.~.~.~.~.~.~.~.~.~.~.~.~.~."
};
