/* XPM */
static char *result[] = {
/* columns rows colors chars-per-pixel */
"60 60 126 2 ",
"   c #0C040D",
".  c #0E070F",
"X  c #0D090E",
"o  c #0F0410",
"O  c #0E0A10",
"+  c #100211",
"@  c #100411",
"#  c #110612",
"$  c #120314",
"%  c #130315",
"&  c #170915",
"*  c #150917",
"=  c #1B031D",
"-  c #1A061C",
";  c #1C041E",
":  c #170918",
">  c #121513",
",  c #121414",
"<  c #131615",
"1  c #1A131D",
"2  c #161918",
"3  c #171919",
"4  c #191C1B",
"5  c #1A1A1C",
"6  c #1A1E1D",
"7  c #1B1E1D",
"8  c #1B1F1E",
"9  c #1C201E",
"0  c #1E0420",
"q  c #1F0721",
"w  c #200322",
"e  c #200622",
"r  c #210324",
"t  c #210524",
"y  c #240526",
"u  c #250428",
"i  c #27052B",
"p  c #2A052D",
"a  c #2C052F",
"s  c #250C28",
"d  c #270C29",
"f  c #260E28",
"g  c #280C2A",
"h  c #29092C",
"j  c #2A0C2D",
"k  c #211024",
"l  c #29162C",
"z  c #2D0430",
"x  c #2D0531",
"c  c #2F0532",
"v  c #2E0F30",
"b  c #300534",
"n  c #310535",
"m  c #320636",
"M  c #330637",
"N  c #300833",
"B  c #300F32",
"V  c #320B36",
"C  c #310D34",
"Z  c #340838",
"A  c #370E3A",
"S  c #311334",
"D  c #39133C",
"F  c #212322",
"G  c #202323",
"H  c #212423",
"J  c #212523",
"K  c #222624",
"L  c #222625",
"P  c #252828",
"I  c #252A28",
"U  c #262A29",
"Y  c #272B2A",
"T  c #292E2C",
"R  c #2A2F2D",
"E  c #2B302E",
"W  c #342432",
"Q  c #2D3330",
"!  c #2E3332",
"~  c #323936",
"^  c #333A37",
"/  c #343B38",
"(  c #363C3A",
")  c #383F3C",
"_  c #433631",
"`  c #4A3939",
"'  c #39403D",
"]  c #39413E",
"[  c #39423E",
"{  c #3F403F",
"}  c #6C5830",
"|  c #3C1040",
" . c #401344",
".. c #401B41",
"X. c #451949",
"o. c #481B4C",
"O. c #4B1F4F",
"+. c #422D44",
"@. c #4D2051",
"#. c #3B4340",
"$. c #3E4643",
"%. c #404945",
"&. c #424B48",
"*. c #444E4A",
"=. c #4F4E4F",
"-. c #47504C",
";. c #48524E",
":. c #5E5D4E",
">. c #5E4A56",
",. c #495450",
"<. c #7B6E4C",
"1. c #6A5862",
"2. c gray48",
"3. c #8C7642",
"4. c #9A8045",
"5. c #9C8F6C",
"6. c #B19C73",
"7. c #847685",
"8. c #999799",
"9. c #989898",
"0. c #ACA8AD",
"q. c #CEB987",
"w. c #E2CB96",
"e. c #F1DBA4",
"r. c #CECECE",
"t. c None",
/* pixels */
"t.t.t.t.t.t.t.t.t.t.t.t.t.t.t.t.t.t.t.t.t.t.t.t.t.t.o   & :   O t.t.t.t.t.t.t.t.t.t.t.t.t.t.t.t.t.t.t.t.t.t.t.t.t.t.t.t.",
"t.t.t.t.t.t.t.t.t.t.t.t.t.t.t.t.t.t.t.# q f j B B A A A A D | D D S d o t.t.t.t.t.t.t.t.t.t.t.t.t.t.t.t.t.t.t.t.t.t.t.t.",
"t.t.t.t.t.t.t.t.t.t.t.t.t.t.t.t.t.e a V Z Z Z Z M M m m m m m M Z |  ...f t.t.t.t.t.t.t.t.t.t.t.t.t.t.t.t.t.t.t.t.t.t.t.",
"t.t.t.t.t.t.t.t.t.t.t.t.t.t.t.t.+ n M m m m m m m m m m m m m m m m M | o.S t.t.t.t.t.t.t.t.t.t.t.t.t.t.t.t.t.t.t.t.t.t.",
"t.t.t.t.t.t.t.t.t.t.t.t.t.t.t.t.. p c n m m m m m m m m m m m m m m m m A o.j t.t.t.t.t.t.t.t.t.t.t.t.t.t.t.t.t.t.t.t.t.",
"t.t.t.t.t.t.t.t.t.t.t.t.t.t.t.t.t.; i i p p a x c c b n m m m m m m m m m  .X.: t.t.t.t.t.t.t.t.t.t.t.t.t.t.t.t.t.t.t.t.",
"t.t.t.t.t.t.t.t.t.t.t.t.t.t.t.t.t.$ y u u u u u u u i i p x n m m m m m m M X.S t.t.t.t.t.t.t.t.t.t.t.t.t.t.t.t.t.t.t.t.",
"t.t.t.t.t.t.t.t.t.t.t.t.t.t.t.t.t.t.w u u u u u u u u u u u p m m m m m m m | ..t.t.t.t.t.t.t.t.t.t.t.t.t.t.t.t.t.t.t.t.",
"t.t.t.t.t.t.t.t.t.t.t.t.t.t.t.t.t.t.w u u u i p p p p p p a x m m m m m m m Z X.: t.t.t.t.t.t.t.t.t.t.t.t.t.t.t.t.t.t.t.",
"t.t.t.t.t.t.t.t.t.t.t.t.t.t.t.t.t.# y u i a b m m m m m m m m m m m m m M M M X.d t.t.t.t.t.t.t.t.t.t.t.t.t.t.t.t.t.t.t.",
"t.t.t.t.t.t.t.t.t.t.t.t.t.t.t.t.t.& y u p n n b b c c c c x x a a a p p p p i V e t.t.t.t.t.t.t.t.t.t.t.t.t.t.t.t.t.t.t.",
"t.t.t.t.t.t.t.t.t.t.t.t.t.t.t.t.t.% 0 0 t y y g g g g g g g v v v v S S S S v S g t.t.t.t.t.t.t.t.t.t.t.t.t.t.t.t.t.t.t.",
"t.t.t.t.t.t.t.t.t.t.t.t.t.t.t.t.t.v X.O.O.O.O.O.@.@.@.@.@.@.@.@.@.@.@.@.@.o.Z Z c o t.t.t.t.t.t.t.t.t.t.t.t.t.t.t.t.t.t.",
"t.t.t.t.t.t.t.t.t.t.t.t.t.t.t.t.t.p o.@.@.@.@.@.@.@.@.@.@.@.@.@.@.@.@.@.@.X.M m x o t.t.t.t.t.t.t.t.t.t.t.t.t.t.t.t.t.t.",
"t.t.t.t.t.t.t.t.t.t.t.t.t.t.t.t.t.p X.@.@.@.@.@.@.@.@.@.@.@.@.@.O.O.O.O.O.X.M M c O t.t.t.t.t.t.t.t.t.t.t.t.t.t.t.t.t.t.",
"t.t.t.t.t.t.t.t.t.t.t.t.t.t.t.t.t.p  .X. . . . . .| | | | | A A A A Z V V N a a i # t.t.t.t.t.t.t.t.t.t.t.t.t.t.t.t.t.t.",
"t.t.t.t.t.t.t.t.t.t.t.t.t.t.t.t.t.- t t w w w 0 0 0 0 0 0 0 0 0 0 0 0 0 0 w w t 0 % t.t.t.t.t.t.t.t.t.t.t.t.t.t.t.t.t.t.",
"t.t.t.t.t.t.t.t.t.t.t.t.t.t.t.t.  0 p p a a a x x c c c b b b n n n m m m m m m n b r t.t.t.t.t.t.t.t.t.t.t.t.t.t.t.t.t.",
"t.t.t.t.t.t.t.t.t.t.t.t.t.t.t.+ t m M m m m m m m m m m m m m m m m m m m m m m m m b + t.t.t.t.t.t.t.t.t.t.t.t.t.t.t.t.",
"t.t.t.t.t.t.t.t.t.t.t.t.t.< G * p m m m m m m m m m m m m m m m m m m m m m m m m m Z r t.t.t.t.t.t.t.t.t.t.t.t.t.t.t.t.",
"t.t.t.t.t.t.t.t.t.t.t.t.t.6 R - p n m m m m m m m m m m m m m m m m m m m m m m m m M u O t.t.t.t.t.t.t.t.t.t.t.t.t.t.t.",
"t.t.t.t.t.t.t.t.t.t.t.t.t.7 R - i c m m m m m m m m m m m m m m m m m m m m m m m m M - , X t.t.t.t.t.t.t.t.t.t.t.t.t.t.",
"t.t.t.t.t.t.t.t.t.t.t.t.t.K ) 1 y p b m m m m m m m m m m m m m m m m m m m m m m M p 5 ! ! L t.t.t.t.t.t.t.t.t.t.t.t.t.",
"t.t.t.t.t.t.t.t.t.t.t.t.t.4 ~ Y - u i a x x b m m m m m m m m m m m m m m m n a x y 1 ~ #.#.L t.t.t.t.t.t.t.t.t.t.t.t.t.",
"t.t.t.t.t.t.t.t.t.t.t.t.t.t.3 5 , * - ; 0 y i p a x c c c c c c c c c c x p t + 1 5 ) ) ) ) 7 t.t.t.t.t.t.t.t.t.t.t.t.t.",
"t.t.t.t.t.t.t.t.t.t.t.t.t.t.[ %.&.) 8 t.t.. % ; 0 0 w w t t w t w w w 0 ; + t.t.> Y $.#.#.) 6 t.t.t.t.t.t.t.t.t.t.t.t.t.",
"t.t.t.t.t.t.t.t.t.t.t.t.t.t.Q *.&.-.<.t.t.t.t.t.t.  5 G P P P G 5   t.t.t.t.t.t.t.2 R Y Y U t.t.t.t.t.t.t.t.t.t.t.t.t.t.",
"t.t.t.t.t.t.t.t.t.t.t.t.t.t.t.<.6.w.w._ t.t.t.t.t.7 G Y R R R P G > t.t.t.t.t.t.t.H ~ P 5 9 t.t.t.t.t.t.t.t.t.t.t.t.t.t.",
"t.t.t.t.t.t.t.t.t.t.t.t.t.t.t.4.w.q.1.B q C h $ U *.*.*.&.&.&.&.&.%.I t.t.# t.t.t.I &.;.;.' t.t.t.t.t.t.t.t.t.t.t.t.t.t.",
"t.t.t.t.t.t.t.t.t.t.t.t.t.t.t.& W ..o.D p Z Z N W &.( ( ( ( ( ( ) *.U e m Z S t.t.5.:.*.%.T t.t.t.t.t.t.t.t.t.t.t.t.t.t.",
"t.t.t.t.t.t.t.t.t.t.t.t.t.t.t.t.j | D g b m m m l &.#.#.#.] ] ] #.&.k c m m Z s ` w.e.q.3.t.t.t.t.t.t.t.t.t.t.t.t.t.t.t.",
"t.t.t.t.t.t.t.t.t.t.t.t.t.t.t.t.t.O ; u p b n b k ] ) ( ( ) ) ) ] ] k x m m m u D >.6.6.} t.t.t.t.t.t.t.t.t.t.t.t.t.t.t.",
"t.t.t.t.t.t.t.t.t.t.t.t.t.t.t.t.t.t.t.t.: e h r k $.#.] ] ] ] ) ] ) y r p a c i D O.D g t.t.t.t.t.t.t.t.t.t.t.t.t.t.t.t.",
"t.t.t.t.t.t.t.t.t.t.t.t.t.t.t.t.t.t.t.t.t.t.t.+ Y &.) ) ) ) ] ] #.%.k & t.: = u ; C C q t.t.t.t.t.t.t.t.t.t.t.t.t.t.t.t.",
"t.t.t.t.t.t.t.t.t.t.t.t.t.t.t.t.t.t.t.t.t.t.t.9 $.&.] ) ) ) ) ) ] -.! . t.t.t.t.t.t.t.t.t.t.t.t.t.t.t.t.t.t.t.t.t.t.t.t.",
"t.t.t.t.t.t.t.t.t.t.t.t.t.t.t.t.t.t.t.t.t.t.t.I &.&.] ] ] ] ] ] $.-.#.7 t.t.t.t.t.t.t.t.t.t.t.t.t.t.t.t.t.t.t.t.t.t.t.t.",
"t.t.t.t.t.t.t.t.t.t.t.t.t.t.t.t.t.t.t.t.t.t.t.I &.&.) ) ) ( ( ( ) -.] J t.t.t.t.t.t.t.t.t.t.t.t.t.t.t.t.t.t.t.t.t.t.t.t.",
"t.t.t.t.t.t.t.t.t.t.t.t.t.t.t.t.t.t.t.t.t.t.t.U &.&.] ] #.#.#.#.$.-.] 6 t.t.t.t.t.t.t.t.t.t.t.t.t.t.t.t.t.t.t.t.t.t.t.t.",
"t.t.t.t.t.t.t.t.t.t.t.t.t.t.t.t.t.t.t.t.t.t.t.U *.%.( ( ( ( ( ( ) -.] 6 t.t.t.t.t.t.t.t.t.t.t.t.t.t.t.t.t.t.t.t.t.t.t.t.",
"t.t.t.t.t.t.t.t.t.t.t.t.t.t.t.t.t.t.t.t.t.t.t.3 R ( ] #.$.%.%.$.#.] R : t.t.t.t.t.t.t.t.t.t.t.t.t.t.t.t.t.t.t.t.t.t.t.t.",
"t.t.t.t.t.t.t.t.t.t.t.t.t.t.t.t.t.t.t.t.t.t.t.X w t t k k k k k k - @   t.t.t.t.t.t.t.t.t.t.t.t.t.t.t.t.t.t.t.t.t.t.t.t.",
"t.t.t.t.t.t.t.t.t.t.t.t.t.t.t.t.t.t.t.t.t.t.{ 1.V m b x x x c c x x i ; . t.t.t.t.t.t.t.t.t.t.t.t.t.t.t.t.t.t.t.t.t.t.t.",
"t.t.t.t.t.t.t.t.t.t.t.t.t.t.t.t.t.t.t.t.t.{ 2.r.7.N c u y y y u b m m c i ; : t.t.t.t.t.t.t.t.t.t.t.t.t.t.t.t.t.t.t.t.t.",
"t.t.t.t.t.t.t.t.t.t.t.t.t.t.t.t.t.t.t.t.# +.0.9.r.1.p = $ + + = m m m m n i y d t.t.t.t.t.t.t.t.t.t.t.t.t.t.t.t.t.t.t.t.",
"t.t.t.t.t.t.t.t.t.t.t.t.t.t.t.t.t.t.t.t.p p +.0.9.0.S t.t.t.t.t.C m M M p i m m B t.t.t.t.t.t.t.t.t.t.t.t.t.t.t.t.t.t.t.",
"t.t.t.t.t.t.t.t.t.t.t.t.t.t.t.t.t.t.t.C m n u >.8.=.t.t.t.t.t.t.t.= r p - p n m m z t.t.t.t.t.t.t.t.t.t.t.t.t.t.t.t.t.t.",
"t.t.t.t.t.t.t.t.t.t.t.t.t.t.t.t.t.t.t.m m m x - F t.t.t.t.t.t.t.t.t.t.o U ! l l l s t.t.t.t.t.t.t.t.t.t.t.t.t.t.t.t.t.t.",
"t.t.t.t.t.t.t.t.t.t.t.t.t.t.t.t.t.t.q p g l W E t.t.t.t.t.t.t.t.t.t.t.t.[ ,.;.*.&.E t.t.t.t.t.t.t.t.t.t.t.t.t.t.t.t.t.t.",
"t.t.t.t.t.t.t.t.t.t.t.t.t.t.t.t.t.t.H ) $.*.;.*.< t.t.t.t.t.t.t.t.t.t.t.^ *.-.;.*.I t.t.t.t.t.t.t.t.t.t.t.t.t.t.t.t.t.t.",
"t.t.t.t.t.t.t.t.t.t.t.t.t.t.t.t.t.t.J %.,.,.-.$.4 t.t.t.t.t.t.t.t.t.t.t.> R ! ! Y 7 t.t.t.t.t.t.t.t.t.t.t.t.t.t.t.t.t.t.",
"t.t.t.t.t.t.t.t.t.t.t.t.t.t.t.t.t.t.O R ~ ~ ! 8 t.t.t.t.t.t.t.t.t.t.t.t.> ! ! R 8 t.t.t.t.t.t.t.t.t.t.t.t.t.t.t.t.t.t.t.",
"t.t.t.t.t.t.t.t.t.t.t.t.t.t.t.t.t.t.t.. G R ~ K t.t.t.t.t.t.t.t.t.t.t.K $.-.;.*./ F t.t.t.t.t.t.t.t.t.t.t.t.t.t.t.t.t.t.",
"t.t.t.t.t.t.t.t.t.t.t.t.t.t.t.t.t.t.t.Q ] %.%./ F t.t.t.t.t.t.t.t.t.t.^ ,.;.;.,.,.&.8 < t.t.t.t.t.t.t.t.t.t.t.t.t.t.t.t.",
"t.t.t.t.t.t.t.t.t.t.t.t.t.t.t.t.t.8 #.,.,.,.,.,.) t.t.t.t.t.t.t.t.t.6 &.,.;.;.;.;.,.%.U t.t.t.t.t.t.t.t.t.t.t.t.t.t.t.t.",
"t.t.t.t.t.t.t.t.t.t.t.t.t.t.t.t.E #.,.;.;.;.;.;.&.6 t.t.t.t.t.t.t.t.H #.%.*.-.-.;.,.*.~ K t.t.t.t.t.t.t.t.t.t.t.t.t.t.t.",
"t.t.t.t.t.t.t.t.t.t.t.t.t.t.t.K ( %.,.;.;.;.;.;.-.K t.t.t.t.t.t.t.t.< 6 K L U ! ~ ( R ( Q t.t.t.t.t.t.t.t.t.t.t.t.t.t.t.",
"t.t.t.t.t.t.t.t.t.t.t.t.t.t.t.J ( P ~ ( ~ ~ ! ! ! 9 t.t.t.t.t.t.t.t.t.t.t.t.t.t.t.# . K 4 t.t.t.t.t.t.t.t.t.t.t.t.t.t.t.",
"t.t.t.t.t.t.t.t.t.t.t.t.t.t.t.t.> O O O t.t.t.t.t.t.t.t.t.t.t.t.t.t.t.t.t.t.t.t.t.t.t.t.t.t.t.t.t.t.t.t.t.t.t.t.t.t.t.t.",
"t.t.t.t.t.t.t.t.t.t.t.t.t.t.t.t.t.t.t.t.t.t.t.t.t.t.t.t.t.t.t.t.t.t.t.t.t.t.t.t.t.t.t.t.t.t.t.t.t.t.t.t.t.t.t.t.t.t.t.t.",
"t.t.t.t.t.t.t.t.t.t.t.t.t.t.t.t.t.t.t.t.t.t.t.t.t.t.t.t.t.t.t.t.t.t.t.t.t.t.t.t.t.t.t.t.t.t.t.t.t.t.t.t.t.t.t.t.t.t.t.t."
};
