/* XPM */
static char *result[] = {
/* columns rows colors chars-per-pixel */
"60 60 70 1 ",
"  c #010101",
". c #08090A",
"X c #09090C",
"o c #0A0A0E",
"O c #0D0E10",
"+ c #101116",
"@ c #17181A",
"# c #1B1C23",
"$ c #2D2D2D",
"% c #222430",
"& c #252835",
"* c #2C2F3E",
"= c gray21",
"- c #303343",
"; c #333749",
": c #353A4C",
"> c #383D50",
", c #393E51",
"< c gray26",
"1 c gray31",
"2 c #5B5B5B",
"3 c DimGray",
"4 c #797979",
"5 c gray48",
"6 c #7C7C7C",
"7 c gray49",
"8 c #7E7E7E",
"9 c #818180",
"0 c gray51",
"q c #838383",
"w c #868686",
"e c #888888",
"r c #898989",
"t c #8B8B8B",
"y c gray55",
"u c #8E8E8E",
"i c #909090",
"p c gray57",
"a c #939393",
"s c gray58",
"d c gray59",
"f c #979797",
"g c gray60",
"h c #9A9A9A",
"j c gray61",
"k c gray62",
"l c #9F9F9F",
"z c gray63",
"x c #A2A2A2",
"c c #A4A4A4",
"v c #A7A7A7",
"b c gray66",
"n c #AAAAAA",
"m c gray67",
"M c #ACACAC",
"N c #AEAEAE",
"B c #B1B1B1",
"V c gray70",
"C c #B4B4B4",
"Z c gray71",
"A c gray72",
"S c #BBBBBB",
"D c gray74",
"F c #C0C0C0",
"G c #C3C3C3",
"H c #C6C6C6",
"J c #CACACA",
"K c gray80",
"L c #CDCDCD",
"P c None",
/* pixels */
"PPPPPPPPPPPPPPPPPPPPPPPPPPPPP78PPPPPPPPPPPPPPPPPPPPPPPPPPPPP",
"PPPPPPPPPPPPPPPPPPPPPPPPPPPPaNdPPPPPPPPPPPPPPPPPPPPPPPPPPPPP",
"PPPPPPPPPPPPPPPPPPPP8PPPPPecAHpPPPPP4tad8PPPPPPPPPPPPPPPPPPP",
"PPPPPPPPPPPPPPPPPPPkMPPPPemZHGyPPPqkmVFAPPPPPPPPPPPPPPPPPPPP",
"PPPPPPPPPPPPPPPPPPdDSPPP7vCAJGPPPiNCZGJjPPPPPPPPPPPPPPPPPPPP",
"PPPPPPPPPPPPPPPPPtBGHpPPdVVDLHyPiBCVFLDPPPPPPPPPPPPPPPPPPPPP",
"PPPPPPPPPPPPPPPPPxCGLbPPvCVGLJd5mCVSJLnPPP7eyye7PPPPPPPPPPPP",
"PPPPPPPPPPP5PPPPeBVGLFPqNVVGHHkhCVCGLJjPqhmBBBVBk4PPPPPPPPPP",
"PPPPPPPPPPPcdPPPaVVFKLntBVVZZZBBVVCDGGyymCVVAGJFdPPPPPPPPPPP",
"PPPPPPPPPPeSSPPPdCVSJHANVVVVVVVVVVVVVZxNCVVSJLFpPPPPPPPPPPPP",
"PPPPPPPPPPhSKMPPdVVZACVCVBNmvcccvmNBVVCVVVDJLHdPPPPPPPPPPPPP",
"PPPPPPPPPPvAJJbPyBVVVVBmxkhgffsffghkcmBVVVDJKbPPPPPPPPPPPPPP",
"PPPPPPPPP7mCGLJMuBVVBvlhfuwqqqqqqqwufhlvBVVAS87tadiqPPPPPPPP",
"PPPPPPPPP7mVSJKGVVVNlhsw9rsjlxxxljsr9wshxNVVNjmBVCVNztPPPPPP",
"PPPPPPPPPPvCVFGZVBvjfwqslxkhfut0whkxlsqwfjvBVCCVVVZASZkPPPPP",
"PPPPPyPPPPkCVCZVBchp9pxlhgfu8PP4pggghlxu9phcBVVVAFHJKHVyPPPP",
"PPPPPBnPPPtBVVVBcgt9jxhggf0PPPP5fggggghxh9thcBVZHLLJVdPPPPPP",
"PPPP7BJAdPPzCVVvhtqxjgggf6PP4586rfggggggklqthvVVSKGlPPPPPPPP",
"PPPP7mGLHClhVVmhuqxjgggf96tpfgggfggggggggjxquhmVCAyPPPPPPPPP",
"PPPPPvZHLLJZVBks9ljggggptfs9311139shggggggjk9skBCmtaiqPPPPPP",
"PPPPPzCAHKFVVcfqflggggggs3=+XoXoX+=3shggggglsqgvVVCVBNxyPPPP",
"PPPPPaVVZFAVNjuwxggggghr<o+%*-%-*%+O<thgggggxwujNVVVVVCBdPPP",
"PPPPP7vCVVVVvf9jjgggghw$X%;>,:&>,>;%.$rhggggjhqfvVVZAAAZBdPP",
"PPPPPPyNCVVBkpwxgggghu=X&>>>>:&>>>,>&X=phggggxwplBVSJJJHGAyP",
"PPPPPPPymVVmhwskggggg2.&>>>>>:&>>>>>>&.2gggggkswhNVAJLJHGDc4",
"P8blpPPPtBVvf9lhggghw@#:>>>>>:&>>>>>>:##wgfgghk9fvVZFBlpPPPP",
"PPNJHFSAZVVxsqxggggh2X*,>>>>,:&>,>>>>,*X2grfggxqsxVVs4PPPPPP",
"PPhSHLLLGVBlurxggggf=+:>>>>>-#+#->>>>>:+=f9eggxrplBVmktPPPPP",
"PPeNZFHJFVBktulggghu##>,,,,:@   @:,,,,>##pt5sglutkBVVCBk7PPP",
"PPPkCVZAAVBjrpkggghw@#*****%     %*****#@ruP0glprjBVVVVCx7PP",
"PPP4cCVVVVBjrpkggghw@#*****%     &*****#@ruP4flprjBVZACVVhPP",
"PPPP4zBCVVBktulggghu##>,,,,;+   @:,,,,>##utPPplutkBVFJHDZNqP",
"PPPPPPizNVBlurxggggf=+:>>>>>-#O#->>>>>:+=f0PPuxrulBVGLLKHAdP",
"PPPPPPP4sVVxsqxgggsg2X*,>>>>,:&:,>>>>,*X2f5PPtxqsxVVASDGJJmP",
"PPPPPyjMFZVvf9lhhhwpq@#:>>>>>:&>>>>>>:#@wp64Pul9fvVBt7PPdbmq",
"P5bSFHJLJAVmhwffeu50f1.&>>>>>:&>>>>>>&.2gups0sswhmVVmtPPPPPP",
"PPiSHJJJJSVBkuwl0PPPpu$o*>>>>:&>>>>>*o=uhgggplwplBVVCmePPPPP",
"PPPhVZAAAZVVcf9js4PP8fq$X%;>,:&>,>;%X$qhggggjj9fvVVVVCcPPPPP",
"PPPPhBCVVVVVNjurxp5PP6fw=X+%--%;-%+o<whgggggxwujNVADZVBiPPPP",
"PPPPPivBVCCVVcfqfls0PP6ss3$OXOoOoO$3shggggglfqfcVVFKGZCzPPPP",
"PPPPPPPeaddmCNjp9ljfp065uhp521<125phggggggjl9skBVAJLKHZvPPPP",
"PPPPPPPPPPyACVmhtqxhghfssfhhhhghhhgggggggjxquhmVVhlAJLFm7PPP",
"PPPPPPPPPjGJSVVcgrwxjgggggggggggggggggggjxqrhvVVCkPPjSJN7PPP",
"PPPPPPPpBJLLHZVBxgrqklgggggggggggggggggljqtgcBVVVBePPPMBPPPP",
"PPPPPyBHKJHGAVVVBchu9sxkgggggggggggggkxp9uhcBVCCVChPPPPiPPPP",
"PPPPP7zASAZVVVVCVBvhswqfxxjhggggghjxxsqwshvBVZGFVCvPPPPPPPPP",
"PPPPPPPycBVCCBmlNVVmlgpqqtfkxxxxlkftqwpglmVVCGKJAVm7PPPPPPPP",
"PPPPPPPPPeaddy48SAVVBvkhstwqqqqqqqwushlvBVVBuBJLGCm7PPPPPPPP",
"PPPPPPPPPPPPPPPbKJSVVVBmxjhffsssfghjxmBVVVVByPMJJAcPPPPPPPPP",
"PPPPPPPPPPPPPPdHLJDVVVCVVBmvccxcvvmBVCVCAZVVaPPBKShPPPPPPPPP",
"PPPPPPPPPPPPPpFLJDVVCNcCVVVVVVVVVVVVVNAGJSVCdPPPDSePPPPPPPPP",
"PPPPPPPPPPPPpDJGAVVCmyyGGSCVVBVCZZVVBtMLKFVViPPPjbPPPPPPPPPP",
"PPPPPPPPPPP4zZZVVBmkqPjJLGCVChzHHFVVNqyFLGVNePPPP5PPPPPPPPPP",
"PPPPPPPPPPPPP4tiit4PPPnLJSVCm5dJLGVCvPPnLGCxPPPPPPPPPPPPPPPP",
"PPPPPPPPPPPPPPPPPPPPPPDLGCVBiPpHKDVVdPPpHFByPPPPPPPPPPPPPPPP",
"PPPPPPPPPPPPPPPPPPPPPjJGZCNaPPyGJACv7PPPDDdPPPPPPPPPPPPPPPPP",
"PPPPPPPPPPPPPPPPPPPPPAGCNzePPPyHHZmtPPPPBkPPPPPPPPPPPPPPPPPP",
"PPPPPPPPPPPPPPPPPPPP8kdyqPPPPPpHAvePPPPP6PPPPPPPPPPPPPPPPPPP",
"PPPPPPPPPPPPPPPPPPPPPPPPPPPPPPjBd7PPPPPPPPPPPPPPPPPPPPPPPPPP",
"PPPPPPPPPPPPPPPPPPPPPPPPPPPPPP84PPPPPPPPPPPPPPPPPPPPPPPPPPPP"
};
