/* XPM */
static char *result[] = {
/* columns rows colors chars-per-pixel */
"60 60 104 2 ",
"   c #110A00",
".  c #1E1300",
"X  c gray10",
"o  c #1E1E1E",
"O  c #2C1B00",
"+  c #211B11",
"@  c #3A280B",
"#  c gray14",
"$  c gray16",
"%  c #30302F",
"&  c #393733",
"*  c #482D00",
"=  c #573A0A",
"-  c #714907",
";  c #7F5000",
":  c #51442D",
">  c #6D5730",
",  c #414141",
"<  c #5C534A",
"1  c #635C56",
"2  c #6C5F53",
"3  c #7B664B",
"4  c #6B645F",
"5  c #70675E",
"6  c #776C62",
"7  c #786D64",
"8  c #8C5903",
"9  c #8C6013",
"0  c #A46A0A",
"q  c #B67304",
"w  c #896730",
"e  c #957031",
"r  c #AB7D30",
"t  c #C47A00",
"y  c #847468",
"u  c #8C7C6F",
"i  c #857A72",
"p  c #8F7E70",
"a  c #807F7E",
"s  c #D18300",
"d  c #DC8A00",
"f  c #E0AE19",
"g  c #EAB511",
"h  c #C78F30",
"j  c #DD9D31",
"k  c #EEA831",
"l  c #F3DE08",
"z  c #93815B",
"x  c #908379",
"c  c #96867A",
"v  c #95887E",
"b  c #9D8A7A",
"n  c #BAA26C",
"m  c #BAA86B",
"M  c #868381",
"N  c #9A8C81",
"B  c #9F9084",
"V  c gray58",
"C  c #989897",
"Z  c #9F9D9A",
"A  c #A99789",
"S  c #AA998C",
"D  c #B29F90",
"F  c #B7A291",
"G  c #B4A192",
"H  c #B5A496",
"J  c #B6A497",
"K  c #B8A392",
"L  c #BAA692",
"P  c #BAA697",
"I  c #B1A89F",
"U  c #BAA899",
"Y  c #BEA999",
"T  c #BCAA9B",
"R  c #BDAA9B",
"E  c #BEAB9B",
"W  c #A7A6A4",
"Q  c gray67",
"!  c #AEAEAE",
"~  c #B5AEA4",
"^  c #BBB3A8",
"/  c #B1B1B1",
"(  c #B4B4B4",
")  c #BEB7B2",
"_  c gray72",
"`  c #BBBBBB",
"'  c gray75",
"]  c #C0AB9B",
"[  c #C2B2A5",
"{  c #CCBDB3",
"}  c #C2BEBB",
"|  c #C2C2C1",
" . c gray77",
".. c #C9C8C5",
"X. c #C8C8C8",
"o. c #CBCBCB",
"O. c gray80",
"+. c #CDCDCD",
"@. c #CDCDCE",
"#. c #CECECE",
"$. c #D4CCC4",
"%. c #D8CAC0",
"&. c #E4D8D1",
"*. c None",
/* pixels */
"*.*.*.*.*.*.*.*.*.*.*.*.*.*.*.*.*.*.*.*.*.*.K %.&.%.L m m m m m m L %.&.%.F *.*.*.*.*.*.*.*.*.*.*.*.*.*.*.*.*.*.*.*.*.*.",
"*.*.*.*.*.*.*.*.*.*.*.*.*.*.T E E E N p P E P %.&.$.n l l l l l l n $.&.%.P E P c c E E E T *.*.*.*.*.*.*.*.*.*.*.*.*.*.",
"*.*.*.*.*.*.*.*.*.*.*.*.*.T Y Y E P N c G P P ] [ [ n f g g g g f n [ [ E P P P N c P E Y E T *.*.*.*.*.*.*.*.*.*.*.*.*.",
"*.*.*.*.*.*.*.*.*.*.*.*.T Y Y E A c y 7 p p p p p p p z z z z z z p p p p p p p y 7 c A E Y E T *.*.*.*.*.*.*.*.*.*.*.*.",
"*.*.*.*.*.*.*.*.*.*.*.*.R Y E A y 1 a a M M M M M M M M M M M M M M M M M M M M a a 1 u A E Y R *.*.*.*.*.*.*.*.*.*.*.*.",
"*.*.*.*.*.*.*.*.*.*.*.*.R Y G u 1 Q /  .#.#.#.#.#.#.#.#.#.#.#.#.#.#.#.#.#.#.#.#.' ( Q 1 u G Y R *.*.*.*.*.*.*.*.*.*.*.*.",
"*.*.*.*.*.*.*.*.*.*.*.*.R Y D 5 Z | X.o.O.O.O.O.O.O.O.O.O.O.O.O.O.O.O.O.O.O.O.O.o.X.| C 5 G Y R *.*.*.*.*.*.*.*.*.*.*.*.",
"*.*.*.*.*.*.*.*.*.*.*.*.R Y D 7 Q _ +.O.O.O.O.O.O.O.O.O.O.O.O.O.O.O.O.O.O.O.O.O.O.O.( Q 7 G Y R *.*.*.*.*.*.*.*.*.*.*.*.",
"*.*.*.*.*.*.*.*.*.*.*.*.R Y D 7 ( #.O.O.O.O.O.O.O.O.O.O.O.O.O.O.O.O.O.O.O.O.O.O.O.O.#./ 6 G Y R *.*.*.*.*.*.*.*.*.*.*.*.",
"*.*.*.*.*.*.*.*.*.*.*.*.R Y D 7 ( +.O.O.O.O.O. .' | | | | | | | | | | '  .O.O.O.O.O.#./ 6 G Y R *.*.*.*.*.*.*.*.*.*.*.*.",
"*.*.*.*.*.*.*.*.*.*.*.*.R Y D 7 ( +.O.O.O.O. .' ! C C V V V V V C C V W `  .O.O.O.O.+./ 6 G Y R *.*.*.*.*.*.*.*.*.*.*.*.",
"*.*.*.*.*.*.*.*.*.*.*.*.R Y D 7 Q ' ' ' ' ' ' ( , % $ % # o o % & & # , W ' ' ' ' ' ' W 6 G Y R *.*.*.*.*.*.*.*.*.*.*.*.",
"*.*.*.*.*.*.*.*.*.*.*.*.R Y D 7 ( o.o.o.o.o.#.C $ % # $ X X X % % $ o % M #.o.o.o.o.O./ 7 G Y R *.*.*.*.*.*.*.*.*.*.*.*.",
"*.*.*.*.*.*.*.*.*.*.*.*.R Y D 7 ( #.+.+.+.+.#.C % % # # X X # % % # # % a #.+.+.+.+.#./ 6 G Y R *.*.*.*.*.*.*.*.*.*.*.*.",
"*.*.*.*.*.*.*.*.*.*.*.*.R Y D 7 !  .| | | | X.Z & # $ X X X $ % % o $ # a X.| | | |  .Q 6 G Y R *.*.*.*.*.*.*.*.*.*.*.*.",
"*.*.*.*.*.*.*.*.*.*.*.*.R Y D 7 / X.X.X.X. .' _ 4 & & % % % , , , & , < Q | X.X.X.X.X.! 7 G Y R *.*.*.*.*.*.*.*.*.*.*.*.",
"*.*.*.*.*.*.*.*.*.*.*.*.R Y D 5 N I I I I I } ' _ ! ! Q Q Q ! ! ! Q ! ( |  .~ I I I I N 5 G Y R *.*.*.*.*.*.*.*.*.*.*.*.",
"*.*.*.*.*.*.*.*.*.*.*.*.R Y D 2 7 b b b b b A } X.X.X.X.X.X.X.X.X.X.X.X. .D b b b b b 6 2 G Y R *.*.*.*.*.*.*.*.*.*.*.*.",
"*.*.*.*.*.*.*.*.*.*.*.*.R Y D 6 Z ) ) ) ) ) A A ~ ~ ) O.O.O.O.O.+...~ ~ A A ^ ) ) ) ) Z 6 G Y R *.*.*.*.*.*.*.*.*.*.*.*.",
"*.*.*.*.*.*.*.*.*.*.*.*.R Y D 7 ( #.+.+.+.@.| A b b G O.O.O.O.O.+.} b b A } @.+.+.+.#./ 6 G Y R *.*.*.*.*.*.*.*.*.*.*.*.",
"*.*.*.*.*.*.*.*.*.*.*.*.R Y D 7 ( +.O.O.O.O.+.| ^ ^ } O.O.O.O.O.O...^ ^ } +.O.O.O.O.#./ 6 G Y R *.*.*.*.*.*.*.*.*.*.*.*.",
"*.*.*.*.*.*.*.*.*.*.*.*.R Y D 7 ( +.O.O.O.O.O.+.+.+.+.O.O.O.O.O.O.O.@.+.+.O.O.O.O.O.#./ 6 G Y R *.*.*.*.*.*.*.*.*.*.*.*.",
"*.*.*.*.*.*.*.*.*.*.*.*.R Y D 7 ( +.O.O.O.O.O.O.O.O.O.O.O.O.O.O.O.O.O.O.O.O.O.O.O.O.#./ 6 G Y R *.*.*.*.*.*.*.*.*.*.*.*.",
"*.*.*.*.*.*.*.*.*.*.*.*.R Y D 7 ( +.O.O.O.O.O.O.O.O.O.O.O.O.O.O.O.O.O.O.O.O.O.O.O.O.#./ 6 G Y R *.*.*.*.*.*.*.*.*.*.*.*.",
"*.*.*.*.*.*.*.*.*.*.*.*.R Y D 7 ( +.O.O.O.O.O.O.O.O.O.O.O.O.O.O.O.O.O.O.O.O.O.O.O.O.#./ 6 G Y R *.*.*.*.*.*.*.*.*.*.*.*.",
"*.*.*.*.*.*.*.*.*.*.*.*.R Y D 7 ( +.O.O.O.O.O.O.O.O.O.O.O.O.O.O.O.O.O.O.O.O.O.O.O.O.#./ 6 G Y R *.*.*.*.*.*.*.*.*.*.*.*.",
"*.*.*.*.*.*.*.*.*.*.*.*.R Y D 7 ( +.O.O.O.O.O.O.O.O.O.O.O.O.O.O.O.O.O.O.O.O.O.O.O.O.#./ 6 G Y R *.*.*.*.*.*.*.*.*.*.*.*.",
"*.*.*.*.*.*.*.*.*.*.*.*.R Y D 7 ( +.O.O.O.O.O.O.O.O.O.O.O.O.O.O.O.O.O.O.O.O.O.O.O.O.#./ 6 G Y R *.*.*.*.*.*.*.*.*.*.*.*.",
"*.*.*.*.*.*.*.*.*.*.*.*.R Y D 7 ( +.O.O.O.O.O.O.O.O.O.O.O.O.O.O.O.O.O.O.O.O.O.O.O.O.#./ 6 G Y R *.*.*.*.*.*.*.*.*.*.*.*.",
"*.*.*.*.*.*.*.*.*.*.*.*.R ] D 7 ( +.O.O.O.O.O.O.O.O.O.O.O.O.O.O.O.O.O.O.O.O.O.O.O.O.#./ 6 G ] R *.*.*.*.*.*.*.*.*.*.*.*.",
"*.*.*.*.*.*.*.*.*.*.*.*.S c A 7 ( +.O.O.O.O.O.O.O.O.O.O.O.O.O.O.O.O.O.O.O.O.O.O.O.O.#./ 7 A c S *.*.*.*.*.*.*.*.*.*.*.*.",
"*.*.*.*.*.*.*.*.*.*.*.*.i < c 6 ( +.O.O.O.O.O.O.O.O.O.O.O.O.O.O.O.O.O.O.O.O.O.O.O.O.#./ 6 c < i *.*.*.*.*.*.*.*.*.*.*.*.",
"*.*.*.*.*.*.*.*.*.*.*.*.i 4 u 4 ( +.O.O.O.O.O.O.O.O.O.O.O.O.O.O.O.O.O.O.O.O.O.O.O.O.#./ 4 u 4 i *.*.*.*.*.*.*.*.*.*.*.*.",
"*.*.*.*.*.*.*.*.*.*.*.*.x 1 N 7 ( +.O.O.O.O.O.O.O.O.O.O.O.O.O.O.O.O.O.O.O.O.O.O.O.O.#./ 7 N 1 x *.*.*.*.*.*.*.*.*.*.*.*.",
"*.*.*.*.*.*.*.*.*.*.*.*.U D D 7 ( +.O.O.O.O.O.O.O.O.O.O.O.O.O.O.O.O.O.O.O.O.O.O.O.O.#./ 7 D D R *.*.*.*.*.*.*.*.*.*.*.*.",
"*.*.*.*.*.*.*.*.*.*.*.*.R Y D 7 ( +.O.O.O.O.O.O.O.O.O.O.O.O.O.O.O.O.O.O.O.O.O.O.O.O.#./ 6 G Y R *.*.*.*.*.*.*.*.*.*.*.*.",
"*.*.*.*.*.*.*.*.*.*.*.*.R Y D 7 ( #.O.O.O.O.O.O.O.O.O.O.O.O.O.O.O.O.O.O.O.O.O.O.O.O.#./ 6 G Y R *.*.*.*.*.*.*.*.*.*.*.*.",
"*.*.*.*.*.*.*.*.*.*.*.*.R Y D 7 ( O.o.o.O.O.O.O.O.O.O.O.O.O.O.O.O.O.O.O.O.O.O.O.o.o.O./ 6 G Y R *.*.*.*.*.*.*.*.*.*.*.*.",
"*.*.*.*.*.*.*.*.*.*.*.*.R Y D 7 / ` _ ' O.O.O.O.O.O.O.O.O.O.O.O.O.O.O.O.O.O.O.O.' _ ` ! 6 G Y R *.*.*.*.*.*.*.*.*.*.*.*.",
"*.*.*.*.*.*.*.*.*.*.*.*.R Y D 7 / ( ! ` O.O.O.O.O.O.O.O.O.O.O.O.O.O.O.O.O.O.O.o.` ! _ ! 7 G Y R *.*.*.*.*.*.*.*.*.*.*.*.",
"*.*.*.*.*.*.*.*.*.*.*.*.R Y D 7 / ( Q ` O.O.O.O.O.O.O.O.O.O.O.O.O.O.O.O.O.O.O.o.` Q _ ! 7 G Y R *.*.*.*.*.*.*.*.*.*.*.*.",
"*.*.*.*.*.*.*.*.*.*.*.*.R Y D 7 / _ ! ` O.+.+.+.+.+.+.+.+.+.+.+.+.+.+.+.+.+.+.O.` ! _ ! 7 G Y R *.*.*.*.*.*.*.*.*.*.*.*.",
"*.*.*.*.*.*.*.*.*.*.*.*.R Y D 7 Q ` _ `  . . . . . . . . . . . . . . . . . . . .` _ ` Q 6 G Y R *.*.*.*.*.*.*.*.*.*.*.*.",
"*.*.*.*.*.*.*.*.*.*.*.*.R Y D 7 Q ' ' ' ' ' ' ' ' ' ' ' ' ' ' ' ' ' ' ' ' ' ' ' ' ' ' W 6 G Y R *.*.*.*.*.*.*.*.*.*.*.*.",
"*.*.*.*.*.*.*.*.*.*.*.*.R Y D 7 ( O.+.+.+.+.+.+.+.+.+.+.+.+.+.+.+.+.+.+.+.+.+.+.+.+.+./ 7 G Y R *.*.*.*.*.*.*.*.*.*.*.*.",
"*.*.*.*.*.*.*.*.*.*.*.*.R Y D 7 W ( #.@.#.@.@.#.@.@.#.@.@.#.@.@.@.#.@.@.#.@.@.#.@.@.( W 7 G Y R *.*.*.*.*.*.*.*.*.*.*.*.",
"*.*.*.*.*.*.*.*.*.*.*.*.R Y D 7 C W ^ ~ W ~ ~ W ~ ^ W I ^ W W ^ ~ W ~ ~ W ~ ^ W I ^ W V 6 G Y R *.*.*.*.*.*.*.*.*.*.*.*.",
"*.*.*.*.*.*.*.*.*.*.*.*.R Y G 2 + = 0 @ @ 0 = + 0 - + 9 9 + - q @ @ 0 = + 0 - + 9 9 + = 3 G Y R *.*.*.*.*.*.*.*.*.*.*.*.",
"*.*.*.*.*.*.*.*.*.*.*.*.R Y G < . t -   q 0   8 q   - s O * d ;   0 0   8 t . = d @ O 8 3 G Y R *.*.*.*.*.*.*.*.*.*.*.*.",
"*.*.*.*.*.*.*.*.*.*.*.*.R Y G < ; 0   ; s . = d @ @ d = . s q   ; s . = d * O d -   q - < G Y R *.*.*.*.*.*.*.*.*.*.*.*.",
"*.*.*.*.*.*.*.*.*.*.*.*.R Y D 3 8 . * d * O s - . t 8   0 d O * d * O d -   q 0   8 t   < G Y R *.*.*.*.*.*.*.*.*.*.*.*.",
"*.*.*.*.*.*.*.*.*.*.*.*.R Y D 3 : & h r & r h & e j : > k w & h r & r h & w j : > j > % 2 G Y R *.*.*.*.*.*.*.*.*.*.*.*.",
"*.*.*.*.*.*.*.*.*.*.*.*.R Y D 6 W } $... .$... .$... ...$. ...$... .$... ..... ...$.` W 6 G Y R *.*.*.*.*.*.*.*.*.*.*.*.",
"*.*.*.*.*.*.*.*.*.*.*.*.R Y D 7 W ( #.+.O.O.O.O.O.O.O.O.O.O.O.o.O.O.O.O.O.+.O.O.+.+./ Q 6 G Y R *.*.*.*.*.*.*.*.*.*.*.*.",
"*.*.*.*.*.*.*.*.*.*.*.*.R Y D 6 a X._  .#.+.+.+.+.+.+.+.+.+.+.+.+.+.+.+.+.+.+.#.' ` X.a 6 G Y R *.*.*.*.*.*.*.*.*.*.*.*.",
"*.*.*.*.*.*.*.*.*.*.*.*.R Y P b 2 a Q ( ` ` ` ` ` ` ` ` ` ` ` ` ` ` ` ` ` ` ` ` / ! a 2 b P Y R *.*.*.*.*.*.*.*.*.*.*.*.",
"*.*.*.*.*.*.*.*.*.*.*.*.R Y E D b 5 4 1 5 5 5 5 5 5 5 5 5 5 5 5 5 5 5 5 5 5 5 5 1 4 5 b G E Y R *.*.*.*.*.*.*.*.*.*.*.*.",
"*.*.*.*.*.*.*.*.*.*.*.*.H E Y E G A c c A A A A A A A A A A A A A A A A A A A A b p A G E Y E H *.*.*.*.*.*.*.*.*.*.*.*.",
"*.*.*.*.*.*.*.*.*.*.*.*.*.J E Y E ] N y P ] E E E E Y { $.$.$.$.{ Y E E E E ] P u c E E Y E J *.*.*.*.*.*.*.*.*.*.*.*.*.",
"*.*.*.*.*.*.*.*.*.*.*.*.*.*.H U U U B B U U U U U U U [ { { { { [ U U U U U U U B v U U U H *.*.*.*.*.*.*.*.*.*.*.*.*.*."
};
