/* XPM */
static char *result[] = {
/* columns rows colors chars-per-pixel */
"60 60 55 1 ",
"  c black",
". c #070605",
"X c #141110",
"o c #171412",
"O c #2B2621",
"+ c #423A34",
"@ c #4B423A",
"# c #4F463E",
"$ c #584E45",
"% c #5E544C",
"& c #675C54",
"* c #6D655F",
"= c #817368",
"- c #87796E",
"; c #8F7F71",
": c #DEAD1A",
"> c #E1AF17",
", c #EAB511",
"< c #EDD20D",
"1 c #F6E406",
"2 c #95835B",
"3 c #94825F",
"4 c #8F8277",
"5 c #97877A",
"6 c #96897E",
"7 c #9B8A7D",
"8 c #BAA569",
"9 c #B8A570",
"0 c #A19185",
"q c #A89687",
"w c #A7978A",
"e c #AC998A",
"r c #B19F8F",
"t c #B5A292",
"y c #B5A395",
"u c #B7A495",
"i c #B6A597",
"p c #B8A392",
"a c #B8A490",
"s c #BAA693",
"d c #B7A698",
"f c #B9A698",
"g c #BBA798",
"h c #BAA899",
"j c #BEA999",
"k c #BEAA99",
"l c #BDAA9B",
"z c #BCAA9C",
"x c #BFAB9C",
"c c #C2B1A4",
"v c #CCBEB4",
"b c #D2C3B7",
"n c #D9CCC3",
"m c #E3D8D1",
"M c None",
/* pixels */
"MMMMMMMMMMMMMMMMMMMMMMpnmna988889snmbpMMMMMMMMMMMMMMMMMMMMMM",
"MMMMMMMMMMMMMMzllx74gljnmn8<1111<8nmbglg45lllzMMMMMMMMMMMMMM",
"MMMMMMMMMMMMMlkjlg75uggccc8>,,,,:9ccxggu75gljkzMMMMMMMMMMMMM",
"MMMMMMMMMMMMlkjlq5==;;;;;;;322223;;;;;;;==5qljkzMMMMMMMMMMMM",
"MMMMMMMMMMMMljlq=OXXooooooooooooooooooooXXO-qljlMMMMMMMMMMMM",
"MMMMMMMMMMMMlkr=O                         .O;tjlMMMMMMMMMMMM",
"MMMMMMMMMMMMlkr#                            $tjlMMMMMMMMMMMM",
"MMMMMMMMMMMMlkr@                            $tjlMMMMMMMMMMMM",
"MMMMMMMMMMMMlkr@                            $tjlMMMMMMMMMMMM",
"MMMMMMMMMMMMlkr@                            $tjlMMMMMMMMMMMM",
"MMMMMMMMMMMMlkr@                            $tjlMMMMMMMMMMMM",
"MMMMMMMMMMMMlkr@                            $tjlMMMMMMMMMMMM",
"MMMMMMMMMMMMlkr@                            $tjlMMMMMMMMMMMM",
"MMMMMMMMMMMMlkr@                            $tjlMMMMMMMMMMMM",
"MMMMMMMMMMMMlkr@                            $tjlMMMMMMMMMMMM",
"MMMMMMMMMMMMlkr@                            $tjlMMMMMMMMMMMM",
"MMMMMMMMMMMMlkr@                            $tjlMMMMMMMMMMMM",
"MMMMMMMMMMMMlkr@                            $tjlMMMMMMMMMMMM",
"MMMMMMMMMMMMlkr@                            $tjlMMMMMMMMMMMM",
"MMMMMMMMMMMMlkr@                            $tjlMMMMMMMMMMMM",
"MMMMMMMMMMMMlkr@                            $tjlMMMMMMMMMMMM",
"MMMMMMMMMMMMlkr@                            $tjlMMMMMMMMMMMM",
"MMMMMMMMMMMMlkr@                            $tjlMMMMMMMMMMMM",
"MMMMMMMMMMMMlkr@                            $tjlMMMMMMMMMMMM",
"MMMMMMMMMMMMlkr@                            $tjlMMMMMMMMMMMM",
"MMMMMMMMMMMMlkr@                            $tjlMMMMMMMMMMMM",
"MMMMMMMMMMMMlkr@                            $tjlMMMMMMMMMMMM",
"MMMMMMMMMMMMlkr@                            $tjlMMMMMMMMMMMM",
"MMMMMMMMMMMMlkr@                            $tjlMMMMMMMMMMMM",
"MMMMMMMMMMMMxxr@                            $txlMMMMMMMMMMMM",
"MMMMMMMMMMMMq7e@                            $e5wMMMMMMMMMMMM",
"MMMMMMMMMMMM=%7@                            $5%-MMMMMMMMMMMM",
"MMMMMMMMMMMM=*4+                            #4*-MMMMMMMMMMMM",
"MMMMMMMMMMMM;&0@                            $0&4MMMMMMMMMMMM",
"MMMMMMMMMMMMurr@                            $rrfMMMMMMMMMMMM",
"MMMMMMMMMMMMlkr@                            $tklMMMMMMMMMMMM",
"MMMMMMMMMMMMlkr@                            $tjlMMMMMMMMMMMM",
"MMMMMMMMMMMMlkr@                            $tjlMMMMMMMMMMMM",
"MMMMMMMMMMMMlkr@                            $tjlMMMMMMMMMMMM",
"MMMMMMMMMMMMlkr@                            $tjlMMMMMMMMMMMM",
"MMMMMMMMMMMMlkr@                            $tjlMMMMMMMMMMMM",
"MMMMMMMMMMMMlkr@                            $tjlMMMMMMMMMMMM",
"MMMMMMMMMMMMlkr@                            $tjlMMMMMMMMMMMM",
"MMMMMMMMMMMMlkr@                            $tjlMMMMMMMMMMMM",
"MMMMMMMMMMMMlkr@                            $tjlMMMMMMMMMMMM",
"MMMMMMMMMMMMlkr@                            $tjlMMMMMMMMMMMM",
"MMMMMMMMMMMMlkr@                            $tjlMMMMMMMMMMMM",
"MMMMMMMMMMMMlkr@                            $tjlMMMMMMMMMMMM",
"MMMMMMMMMMMMlkr@                            $tjlMMMMMMMMMMMM",
"MMMMMMMMMMMMlkr@                            $tjlMMMMMMMMMMMM",
"MMMMMMMMMMMMlkr@                            $tjlMMMMMMMMMMMM",
"MMMMMMMMMMMMlkr@                            $tjlMMMMMMMMMMMM",
"MMMMMMMMMMMMlkr@                            $tjlMMMMMMMMMMMM",
"MMMMMMMMMMMMlkr@                            $tjlMMMMMMMMMMMM",
"MMMMMMMMMMMMlkr%                           .&tjlMMMMMMMMMMMM",
"MMMMMMMMMMMMljt5#                         .$7ujlMMMMMMMMMMMM",
"MMMMMMMMMMMMxjxr5%++@@@@@@@@@@@@@@@@@@@@++&7rxjlMMMMMMMMMMMM",
"MMMMMMMMMMMMixjxre57eeeeeeeeeeeeeeeeeeee74etxjxdMMMMMMMMMMMM",
"MMMMMMMMMMMMMdxjxx5-gxxxxxkbnnnnvkxxxxxu;5xkjxiMMMMMMMMMMMMM",
"MMMMMMMMMMMMMMihhh60fhhhhhfcvvvvcfhhhhhfw6fhhyMMMMMMMMMMMMMM"
};
